<?xml version="1.0" encoding="UTF-8"?>
<svg id="Layer_1" data-name="Layer 1" xmlns="http://www.w3.org/2000/svg" xmlns:xlink="http://www.w3.org/1999/xlink" version="1.1" viewBox="0 0 1999.44 1999.44">
  <defs>
    <style>
      .cls-1 {
        fill: #190dff;
      }

      .cls-1, .cls-2, .cls-3, .cls-4, .cls-5, .cls-6, .cls-7, .cls-8 {
        stroke-width: 0px;
      }

      .cls-2 {
        fill: url(#linear-gradient);
      }

      .cls-3 {
        fill: #ff7828;
      }

      .cls-4 {
        fill: #00ff1d;
      }

      .cls-5 {
        fill: #fa0e0e;
      }

      .cls-6 {
        fill: #01ff1e;
      }

      .cls-7 {
        fill: #000;
      }

      .cls-8 {
        fill: #fff;
      }
    </style>
    <linearGradient id="linear-gradient" x1="-4.56" y1="2000.52" x2="-1.22" y2="2000.52" gradientTransform="translate(-328676.66 1082.45) rotate(-90) scale(164.75)" gradientUnits="userSpaceOnUse">
      <stop offset="0" stop-color="#1626e5"/>
      <stop offset=".02" stop-color="#1626e5"/>
      <stop offset=".25" stop-color="#0e6ca4"/>
      <stop offset=".49" stop-color="#08ab6a"/>
      <stop offset=".68" stop-color="#03d840"/>
      <stop offset=".83" stop-color="#01f426"/>
      <stop offset=".92" stop-color="#00ff1d"/>
    </linearGradient>
  </defs>
  <g>
    <path class="cls-7" d="M199.22,759.37c7.53,0,12.33,1.77,14.38,5.33,1.47,2.56.62,4.93-2.57,7.09-1.28.74-1.62,1.61-1.03,2.64s3.58,1.94,8.99,2.74c5.4.81,8.88,2.55,10.42,5.24,1.55,2.68,2.01,5.57,1.4,8.64-4.69,21.45-8.19,39.05-10.49,52.79-2.29,13.77-4.1,24.09-5.41,30.97-1.32,6.9-2.74,14.79-4.26,23.67-1.53,8.88-2.74,19.64-3.66,32.26-.91,12.62-1.36,24.87-1.31,36.78.75,28.52,6.31,51.81,16.7,69.83,10.38,18.04,21.91,34.24,34.6,48.56,12.67,14.35,21.83,22.27,27.48,23.78.44.77-.23,1.68-2.02,2.71-7.17,4.12-14.7,6.19-22.6,6.19-5.07,0-10.3-.85-15.68-2.56-25.21-8.3-45.86-26.4-61.91-54.28-5.74-9.99-10.39-23.66-13.92-41.04-.33-1.18-.64-2.02-.94-2.54l-.68-.53-.34.1c-.38.23-.78,1.3-1.19,3.24-.42,1.94-.86,4.57-1.33,7.91s-1.74,9.86-3.81,19.56c-2.07,9.72-4.56,19.16-7.46,28.32-7.5,25.45-17.14,47.17-28.91,65.18-2.92,4.4-6.81,8.02-11.66,10.81-5.16,2.97-10.23,4.46-15.21,4.46-13.02,0-25.4-10.18-37.12-30.55-14.43-25.07-19.91-62.12-16.44-111.12,1.83-22.85,6.09-46.68,12.77-71.47,6.67-24.8,15.3-48.42,25.9-70.86,10.58-22.45,24.07-43.41,40.45-62.89,16.38-19.47,34.42-34.88,54.12-46.22,3.32-1.91,8.46-3.34,15.42-4.28,2.68-.3,5.12-.46,7.33-.46M95.43,1111.83l1.63-.54c1.41-.8,3.6-3.35,6.6-7.62,2.98-4.27,10.64-23.68,22.96-58.19,12.33-34.51,26.41-81.2,42.27-140.07l31.05-116.5c.76-2.81.92-4.61.48-5.38l-1-.59-1.58.54c-17.94,14.42-34.15,34.48-48.64,60.19-14.5,25.72-25.76,52.31-33.81,79.76-8.04,27.45-14.45,54.49-19.24,81.08-4.79,26.6-7.22,49.47-7.28,68.58-.07,19.12,1.66,31.75,5.2,37.88l1.36.86M199.22,744.88c-2.74,0-5.76.19-8.97.55-9.23,1.24-16,3.23-21.02,6.13-21.06,12.12-40.57,28.76-57.97,49.45-17.13,20.38-31.42,42.6-42.46,66.04-10.9,23.1-19.92,47.76-26.78,73.27-6.88,25.57-11.33,50.49-13.22,74.08-3.72,52.57,2.27,91.62,18.33,119.51,14.44,25.09,31.16,37.81,49.68,37.81,7.52,0,15.07-2.15,22.44-6.39,6.77-3.89,12.33-9.06,16.5-15.35,12.54-19.2,22.86-42.41,30.73-69.09,1.19-3.75,2.33-7.62,3.41-11.56,17.8,30.76,41.26,51.11,69.74,60.48,6.92,2.19,13.67,3.28,20.21,3.28,10.43,0,20.46-2.73,29.82-8.12,9.99-5.75,11.27-15.66,7.36-22.47-1.92-3.35-5.1-5.79-8.83-6.79-.24-.13-5.53-2.58-20.36-19.37-11.96-13.5-23.03-29.04-32.9-46.2-9.12-15.83-14.09-37.02-14.77-62.98-.04-11.08.39-23.08,1.28-35.36.88-12.13,2.05-22.51,3.49-30.85,1.51-8.78,2.91-16.58,4.22-23.4,1.38-7.27,3.23-17.8,5.48-31.32,2.26-13.49,5.75-31.01,10.36-52.08,1.35-6.8.29-13.27-3.01-18.98-2.79-4.86-7.27-8.38-13.34-10.51-.35-2.56-1.21-5.01-2.47-7.19-4.81-8.36-13.87-12.59-26.93-12.59ZM103.47,1066.74c.52-16.92,2.85-36.95,6.94-59.66,4.68-25.98,11.04-52.75,18.89-79.57,7.7-26.29,18.65-52.1,32.53-76.71,3.76-6.67,7.64-12.93,11.65-18.8l-18.57,69.68c-15.69,58.24-29.79,105-41.91,138.93-3.79,10.62-6.92,19.2-9.51,26.13Z"/>
    <path class="cls-7" d="M504.43,637.83c1.92,0,3.95.44,6.07,1.33,3.95,1.67,7.12,3.74,9.51,6.23l3.8,3.17c2.73,6.23-.91,24.09-10.87,53.59-10.16,30.55-23.79,61.42-40.92,92.61-17.13,31.19-33.7,58.67-49.72,82.44-12.91,19.84-16.53,36.23-10.84,49.23,2.96,6.75,6.22,10.13,9.78,10.13.86,0,1.73-.2,2.62-.59,8.93-3.9,23.08-19.61,42.46-47.11,19.38-27.5,36.4-53.96,51.05-79.39l22.39-38.31c3.25.82,5.48,2.6,6.67,5.3,1.18,2.7.95,5.87-.69,9.48s-3.95,8.82-6.94,15.6c-2.99,6.81-8.91,19.22-17.76,37.28-8.86,18.06-17.24,34.61-25.15,49.68-20.67,39.67-37.57,65.11-50.7,76.33-4.27,3.49-8.99,6.37-14.12,8.61-5.14,2.25-9.38,3.62-12.71,4.11-.98.14-2.03.21-3.13.21-2.63,0-5.6-.41-8.91-1.22-9.64-2.87-18.95-14.58-27.95-35.14-1.96-4.48-3.19-11.57-3.74-21.07-2.89,6.61-5.74,13.05-8.5,19.19-18.28,40.82-33.64,67.22-46.08,79.21-4.06,3.74-8.59,6.87-13.59,9.41-5,2.56-9.14,4.17-12.43,4.87-1.43.3-3,.45-4.71.45-2.23,0-4.68-.25-7.38-.75-9.8-2.28-19.79-13.43-29.99-33.42-2.82-5.53-4.75-15.14-5.79-28.86-1.03-13.71-.19-31.38,2.52-53,2.72-21.61,7.29-44.15,13.7-67.66,6.4-23.49,16.76-48.98,31.04-76.51,14.3-27.51,31.65-52.78,52.05-75.8,3.28-3.33,6.49-5.8,9.65-7.41,1.67-.85,3.47-1.28,5.4-1.28,1.7,0,3.5.33,5.39.99,4.03,1.42,7.32,3.31,9.85,5.67l3.99,2.92c3.09,6.06.53,24.1-7.67,54.14-8.32,31.1-20.1,62.72-35.35,94.86-15.24,32.15-30.16,60.57-44.74,85.24-11.71,20.57-14.34,37.16-7.89,49.79,3.25,6.36,6.59,9.54,10.03,9.54.96,0,1.94-.25,2.92-.75,8.68-4.43,21.88-20.94,39.6-49.55,15.86-25.6,29.77-50.22,41.95-73.94.46-2.73.86-5.35,1.4-8.22,3.99-21.4,9.9-43.64,17.68-66.71,7.79-23.07,19.64-47.92,35.54-74.53,15.9-26.62,34.72-50.81,56.46-72.57,3.46-3.13,6.81-5.4,10.06-6.83,1.5-.65,3.07-.98,4.72-.98M423.22,836.1l.4-.09c6.75-2.96,19.96-28.56,39.62-76.81,19.64-48.25,28.64-74.26,26.99-78.04l-.76-.63-5.48,6.26c-10.04,15.36-21.9,39.25-35.58,71.65-13.69,32.43-22.26,56.82-25.74,73.16-.49,1.84-.58,3.08-.29,3.74l.86.76M290.43,891.52l.43-.11c6.57-3.36,18.23-29.69,34.98-79.02,16.75-49.32,24.19-75.84,22.31-79.51l-.8-.58-5.09,6.57c-9.11,15.93-19.54,40.47-31.27,73.65-11.73,33.17-18.85,58.03-21.35,74.55-.38,1.85-.41,3.1-.07,3.75l.86.71M504.43,623.34h0c-3.65,0-7.18.74-10.51,2.19-4.75,2.08-9.32,5.14-13.99,9.37l-.53.5c-22.47,22.49-42.2,47.86-58.65,75.38-16.35,27.38-28.74,53.4-36.82,77.33-7.99,23.68-14.11,46.79-18.2,68.69-.39,2.1-.72,4.08-1.04,6.05l-.04.22c-11.93,23.1-25.49,46.95-40.34,70.92-14.23,22.98-23.14,34.11-28.27,39.48-3.14-9.84,2.76-23.57,8.53-33.72,14.6-24.7,29.86-53.77,45.24-86.2,15.54-32.75,27.74-65.49,36.26-97.32,11.41-41.83,10.89-56.04,6.57-64.48-1.03-2.01-2.51-3.76-4.34-5.09l-3.39-2.48c-3.85-3.4-8.62-6.12-14.19-8.09-3.46-1.21-6.89-1.82-10.21-1.82-4.22,0-8.25.96-11.97,2.85-4.6,2.35-8.98,5.67-13.4,10.16l-.52.55c-21.08,23.78-39.27,50.27-54.06,78.73-14.71,28.34-25.53,55.04-32.16,79.38-6.56,24.09-11.31,47.53-14.09,69.66-2.86,22.79-3.71,41.07-2.6,55.9,1.22,16.04,3.55,26.96,7.34,34.37,12.53,24.55,25.11,37.56,39.6,40.94l.66.14c3.56.66,6.92.99,10,.99,2.69,0,5.27-.25,7.66-.75,4.66-.99,9.9-3,16.07-6.15,6.15-3.14,11.81-7.06,16.8-11.65,12.33-11.87,26.13-34.16,42.18-68.04,9.07,16.36,18.84,25.71,30.17,29.08l.65.18c4.42,1.09,8.59,1.65,12.39,1.65,1.79,0,3.54-.12,5.2-.36,4.71-.69,10.08-2.39,16.45-5.18,6.31-2.76,12.19-6.35,17.47-10.66,14.95-12.76,32.65-39.14,54.38-80.85,8.08-15.4,16.6-32.23,25.31-49.99,9.11-18.58,15-30.95,18.02-37.83,2.95-6.7,5.24-11.85,6.87-15.43,4.24-9.34,2.76-16.72.77-21.27-3.01-6.84-8.83-11.64-16.4-13.55-1.18-.3-2.37-.44-3.54-.44-5.06,0-9.87,2.66-12.51,7.18l-22.39,38.31c-14.42,25.03-31.35,51.36-50.38,78.35-15.58,22.1-25.12,32.69-30.56,37.74-2.55-10,4.15-23.36,10.52-33.14,16.07-23.84,33.02-51.96,50.28-83.37,17.45-31.78,31.57-63.74,41.97-95.01,13.87-41.07,14.19-55.28,10.39-63.96-.9-2.06-2.27-3.88-4-5.32l-3.26-2.72c-3.64-3.61-8.24-6.6-13.68-8.9-3.96-1.65-7.88-2.47-11.71-2.47Z"/>
    <path class="cls-7" d="M945.21,533.73h.53c12.86.05,23.69,1.03,32.53,2.96,8.83,1.94,17.16,5.98,24.97,12.12,7.82,6.14,12.8,14.14,14.92,24.02,1.71,7.9-4.09,18.02-17.39,30.33-3.64,3.4-7.68,6.56-12.11,9.49,25.79-6.99,54.43-13.87,86.27-20.62l24.33-43.44c1.26-3.67,7.04-6.19,17.34-7.57,2.51-.34,4.72-.5,6.65-.5,6,0,9.22,1.62,9.66,4.88.19,1.42-.62,4.15-2.41,8.17l-8.71,16.46c-.82,4.76-1.23,8.32-1.2,10.63.22,1.59,1.58,2.38,4.12,2.38l2.29-.17,21.83-3.36c10.65-1.43,20.28-2.14,28.9-2.14,14.31,0,25.82,1.96,34.52,5.88,6.55,1.18,10.05,3.32,10.46,6.46.31,2.3-2.27,4.24-7.73,5.85-5.46,1.61-24.48,6.41-57.04,14.41-32.58,8-54.97,13.12-67.2,15.33-5.4,1.02-16.65,12.13-33.75,33.35-17.11,21.22-33.04,44.18-47.79,68.88-14.76,24.68-21.54,41.47-20.36,50.34.2,1.43,1.07,2.55,2.64,3.36,1.15.59,2.46.89,3.93.89l1.64-.11c2.14-.29,5.4-1.59,9.74-3.92,50.07-39.32,98.17-81.43,144.29-126.35,2.44,1.43,3.78,3.39,4.41,5.69,3.16-2.19,6.29-4.41,9.55-6.49,19.3-12.28,36.31-18.83,51.05-19.63h.04c5.59,0,10.21,3.74,13.87,11.21,2.78-3.09,5.36-4.72,7.73-4.85h.27c2.31,0,5.11,1.62,8.42,4.84,1.78.21,3.61,1.08,5.46,2.59,1.86,1.53,2.87,3.76,3.03,6.71s-1.73,6.3-5.66,10.06c-5.77,8.01-12.53,17.09-20.25,27.28-7.72,10.17-13.23,17.5-16.53,21.97-3.31,4.46-6.73,9.46-10.27,14.97-5.99,9.5-9.13,17.06-9.41,22.69,14.66-8.05,33.41-20.51,56.25-37.38.47-2.13,2.66-4.87,6.79-8.3,16.12-11.38,32.98-23.66,50.56-36.83-9.52-6.39-15.63-12.68-18.35-18.85-.91-2.06-1.37-3.53-1.38-4.41-.06-5.9,1.82-9.83,5.64-11.79,3.81-1.95,10.01-2.98,18.57-3.07h.04c3.28,0,12.91,3.89,28.87,11.66,15.93,7.75,26.05,11.65,30.38,11.65h.08c4.27-.05,10.24-1.36,17.89-3.94,7.65-2.58,13.76-3.9,18.35-3.94h.31c4.41,0,7.64,1,9.68,2.99,7.48,9.67,11.23,15.54,11.25,17.6.02,2.08-.92,3.78-2.83,5.12-1.91,1.35-7.91,5.61-18.03,12.8-10.12,7.2-20.01,14.54-29.67,22.01-9.67,7.49-18.74,15.84-27.2,25.08-8.48,9.24-12.68,16.67-12.62,22.27,0,.88.73,1.31,2.18,1.31h.05c15.94-.16,69.35-33.04,160.21-98.61h.05c1.49,0,2.44,1,2.86,2.97,8.44-6.06,17.29-12.52,26.66-19.49,4.68-5.16,8.71-7.74,12.12-7.74l.61.03c3.53.32,9.31,1.96,17.34,4.93,8.03,2.96,11.9,5.91,11.63,8.86-1.62,17.64-4.72,33.51-9.28,47.61-4.57,14.11-8.89,24.76-12.96,31.94-4.07,7.19-6.13,11.07-6.19,11.66l.8.96h.14c.63,0,1.8-.33,3.51-1,23.08-9.13,52.83-24.76,89.27-46.91l11.32-6.96c2.46,2.31,3.55,4.93,3.28,7.87-.27,2.95-1.84,5.46-4.7,7.56h-.01c-.68,0-8.81,5.48-24.42,16.43-15.69,11-33.1,22.96-52.23,35.87-19.14,12.91-39.4,24.46-60.79,34.64-19.43,9.25-34.65,13.87-45.65,13.87-1.11,0-2.18-.05-3.2-.14-27.64-2.56-39.92-20.44-36.85-53.66.25-2.65,1.57-4.97,3.98-6.98,2.07-1.72,4.56-2.58,7.46-2.58l1.44.07c-.13,1.47.46,3.82,1.8,7.06,1.32,3.24,2.78,5.97,4.36,8.18,4.83,5.5,12.32,8.71,22.46,9.64l2.27.11c9.36,0,18.59-5.41,27.68-16.24,9.83-11.7,17.1-23.77,21.81-36.23,4.71-12.47,7.41-22.51,8.12-30.17.19-2.05-1.26-3.22-4.35-3.5l-.85-.04c-2.92,0-6.38,1.29-10.4,3.88l-55.5,35.17c-19.27,17.2-40.35,34.16-63.41,50.85-29.17,21.12-50.4,31.73-63.68,31.87h-.61c-20.26,0-30.49-10.22-30.69-30.69-.11-11.22,3.54-22.1,10.96-32.65,7.42-10.55,23.15-24.82,47.18-42.78h-.29c-5,0-11.7-1.19-20.12-3.56-8.13-2.29-13.38-5.09-15.97-8.38-3.4,3.26-7.72,7.38-13.21,12.61-9.56,9.1-18.77,17.81-27.63,26.12-8.86,8.32-19.01,17.61-30.42,27.83-11.41,10.24-21.66,18.99-30.72,26.29-21.82,17.46-35.53,26.34-41.12,26.64l-1.38.04c-4.9,0-8.52-1.56-10.86-4.7-2.55-3.41-4.07-9.67-4.57-18.82l1.99-28.5-.71-1.29h-.03c-.44.03-1.22.67-2.33,1.91-3.61,4.34-8.2,9.69-13.77,16.05-5.57,6.37-15.21,15.02-28.96,25.98-13.75,10.94-25.03,16.66-33.88,17.14-1.49-.21-3.36-.64-5.61-1.25-2.25-.61-5.25-2.89-9.02-6.82s-5.86-9.73-6.27-17.4c-.09-1.64.21-3.58.63-5.62-23.14,23.25-40.35,37.65-51.43,42.9-4.96,2.11-10.94,3.65-17.94,4.59-.9.12-1.8.18-2.69.18-6.1,0-12.12-2.78-18.06-8.33-6.82-6.36-11.06-15.7-12.7-28.01-1.65-12.29,3.92-31.1,16.69-56.4,12.77-25.3,31.27-51.94,55.49-79.95,2.3-2.33,3.34-4.38,3.11-6.09-.16-1.17-1.66-1.76-4.5-1.76-1.33,0-2.95.13-4.86.38l-26.92,4.48c-14.34,1.92-26.14,2.88-35.41,2.88-15.31,0-23.68-2.63-25.11-7.88-6.93-.41-11.32-1.67-13.24-3.75-8.72,1.53-15.37,2.3-19.93,2.3s-7.04-.77-7.37-2.33c-.66-3.09,6.65-8.52,21.97-16.24,15.31-7.73,30.54-16.17,45.69-25.35,15.15-9.17,21.97-17.28,20.45-24.34-.46-2.12-2.86-3.18-7.2-3.18-3.17,0-7.37.56-12.61,1.69-81.84,17.63-147.55,53.93-197.12,108.9-9.24,10.56-13.22,18.79-11.95,24.72.85,3.95,6.8,5.92,17.85,5.92,15,0,39.4-3.64,73.19-10.92,14.86-3.04,27.87-4.56,39.03-4.56,28.55,0,44.97,9.95,49.25,29.83,4.26,19.76-5.11,41.41-28.09,64.97-22.99,23.55-51.54,44.16-85.67,61.85-34.14,17.69-67.12,30.11-98.94,37.26-6.39,1.38-13.1,2.07-20.11,2.07-9.39,0-19.34-1.23-29.85-3.7-18.35-4.32-28.75-12.12-31.18-23.41-.79-3.66,1.89-6.32,8.04-7.94,32.51-10.83,52.96-19.37,61.36-25.61,2.14-1.05,3.91-1.73,5.32-2.03l1.25-.16,1.05.55c.25,1.13-1.06,3.32-3.89,6.6-2.74,2.36-5.79,4.64-9.16,6.84-7.29,4.52-10.85,7.21-10.67,8.06.08.34.61.52,1.6.52,1.43,0,3.81-.36,7.14-1.07,5.65-1.22,19.41-6.54,41.29-15.98,21.89-9.43,45.12-20.5,69.7-33.17,24.58-12.67,45.77-26.39,63.56-41.15,17.78-14.75,25.65-26.93,23.58-36.53-.88-4.11-4.7-6.17-11.44-6.17-3.43,0-7.62.53-12.57,1.6l-42.81,11c-26.52,5.72-44.57,8.64-54.14,8.79-1.15.02-2.29.02-3.41.02-8.22,0-15.74-.44-22.55-1.3-7.74-.99-14.1-2.73-19.06-5.2-12.14-5.65-19.64-15.11-22.5-28.38-.85-3.94.27-10.39,3.37-19.32,3.1-8.93,9.33-20.09,18.7-33.49,9.37-13.38,21.11-26.69,35.25-39.93,14.12-13.23,33.66-26.36,58.61-39.42,24.94-13.05,52.82-23.48,83.62-31.3,10.86-2.34,22.61-3.5,35.26-3.5M1110.6,756.37h.1c3.55-.19,13.98-8,31.32-23.42,17.35-15.44,33.72-30.82,49.15-46.15l23.58-23.01c1.11-1.25,1.66-2.09,1.64-2.54l-1.12-.6h-.24c-11.21.62-25.45,7.83-42.73,21.64-17.29,13.8-32.1,28.21-44.44,43.23-12.34,15.03-18.36,25.02-18.09,30.03l.82.83M945.21,519.25h0c-13.63,0-26.52,1.29-38.31,3.83l-.51.12c-31.77,8.06-60.96,19-86.77,32.5-26.01,13.62-46.8,27.64-61.8,41.68-14.77,13.83-27.3,28.02-37.21,42.19-10.23,14.62-16.95,26.74-20.52,37.05-4.13,11.91-5.32,20.28-3.84,27.12,3.8,17.63,14.36,30.93,30.55,38.46,6.16,3.07,13.91,5.23,23.34,6.43,7.43.94,15.63,1.42,24.38,1.42,1.19,0,2.4,0,3.62-.03,10.63-.16,29.27-3.14,56.98-9.11l.55-.13,42.53-10.93c1.49-.32,2.79-.55,3.94-.73-2.41,3.66-7.08,9.12-16.07,16.57-16.92,14.04-37.43,27.3-60.95,39.42-24.26,12.51-47.4,23.53-68.8,32.75-2.52,1.09-4.88,2.1-7.09,3.04-2.25-5.83-7.93-9.73-14.54-9.73-1.38,0-2.8.16-4.32.49-2.55.55-5.39,1.59-8.64,3.19l-2.25,1.37c-4,2.97-16.72,9.96-56.91,23.37-16.27,4.49-19.89,16.16-18.01,24.86,3.7,17.18,17.84,28.77,42.02,34.47,11.56,2.71,22.71,4.09,33.17,4.09,8.01,0,15.8-.8,23.17-2.39,33-7.41,67.46-20.38,102.55-38.56,35.35-18.32,65.42-40.05,89.37-64.59,26.48-27.15,37.21-53.44,31.88-78.14-4.05-18.82-18.35-41.26-63.41-41.27-12.08,0-26.18,1.63-41.93,4.85-32.78,7.06-56.38,10.63-70.29,10.63h-.23c1.24-1.79,2.93-3.99,5.23-6.62,42.87-47.53,99.49-80.91,168.41-99.26-11.6,6.76-23.35,13.16-35.05,19.06-18.03,9.09-32.71,17.79-29.61,32.22,1.11,5.15,5.39,13.78,21.54,13.78,4.38,0,9.99-.53,17.04-1.63,2.61,1.11,5.38,1.82,8.12,2.28,9.39,8.67,25.9,8.67,33.12,8.67,10,0,22.21-.98,37.33-3.01l3.58-.59c-16.98,21.63-30.64,42.62-40.75,62.64-14.46,28.63-20.21,49.24-18.12,64.85,2.09,15.66,7.87,28,17.18,36.68,8.69,8.11,18.09,12.22,27.94,12.22,1.54,0,3.07-.1,4.61-.31,8.27-1.11,15.57-3,21.71-5.62l.52-.23c9.35-4.43,21.24-13.36,36.69-27.6,1.1,1.66,2.33,3.21,3.7,4.64,5.83,6.09,10.67,9.42,15.68,10.78,3.15.84,5.41,1.34,7.41,1.61l2,.14.79-.02c12.02-.65,25.79-7.28,42.11-20.27,8.45-6.74,15.38-12.62,20.93-17.75,1.09,8.68,3.3,15.05,6.82,19.76,5.06,6.77,13.04,10.51,22.46,10.51l2.18-.06c6.58-.35,15.83-2.95,49.37-29.79,9.49-7.64,20.03-16.66,31.35-26.82,11.28-10.1,21.6-19.54,30.66-28.05,8.87-8.33,18.11-17.06,27.7-26.18l4.76-4.54,2.04.88c-12.2,10.4-20.86,19.3-26.23,26.93-9.17,13.03-13.74,26.87-13.6,41.14.28,28.2,17.17,45.04,45.18,45.04h.76c16.76-.18,39.64-11.18,72.03-34.63,3.63-2.62,7.22-5.27,10.78-7.93,3.26,20.67,15.14,41.91,49.38,45.07,1.45.13,2.96.2,4.53.2,13.3,0,30.26-5,51.88-15.28,21.93-10.43,43.02-22.45,62.67-35.71,19.08-12.88,36.72-24.99,52.44-36.02,15.53-10.89,20.42-14.1,21.97-15.04.96-.42,1.88-.95,2.73-1.58,7.87-5.79,10.08-12.93,10.54-17.9.67-7.42-2.1-14.42-7.79-19.77-2.76-2.59-6.33-3.92-9.92-3.93-2.61,0-5.24.71-7.59,2.15l-11.32,6.96c-21.44,13.03-40.62,23.82-57.35,32.25,1.36-3.73,2.75-7.76,4.15-12.1,4.87-15.05,8.21-32.12,9.92-50.75,1.44-15.48-15.48-21.72-21.04-23.78-9.42-3.49-16.11-5.32-21.04-5.77l-1.92-.09c-7.4,0-14.55,3.73-21.83,11.4-6.11,4.54-11.99,8.86-17.69,13l-2.11-.13c-3.04,0-6.05.96-8.52,2.74-43.04,31.06-74.04,52.1-96.35,66.34,6.72-5.06,13.51-10.03,20.28-14.85l18-12.78c5.73-4.03,9.01-10.26,8.95-17.08-.05-5.51-2.12-10.62-14.28-26.33l-1.33-1.5c-4.83-4.72-11.5-7.12-19.81-7.12-6.64.07-14.11,1.6-23.29,4.71-7.61,2.57-11.44,3.08-13.01,3.17-1.25-.24-6.96-1.7-24.37-10.17-24.88-12.12-30.85-13.12-35.2-13.12-11.27.11-19.23,1.59-25.22,4.66-5.12,2.63-13.67,9.34-13.52,24.82.03,3.02.81,6.04,2.61,10.11,1.86,4.23,4.6,8.32,8.27,12.31-12.25,9.04-24.16,17.64-35.57,25.69l-.89.68c-1.98,1.64-3.68,3.22-5.14,4.79,7.35-9.7,13.53-18.04,18.86-25.4,6.41-6.5,9.47-13.33,9.09-20.31-.49-8.9-4.78-14.22-8.29-17.11-2.4-1.97-4.93-3.46-7.54-4.46-5.17-4.22-10.28-6.28-15.54-6.28l-1.08.03c-1.06.06-2.1.2-3.14.42-6.51-5.69-13.32-6.8-17.65-6.8l-.83.02c-17.4.95-36.36,8.09-57.97,21.83-1.99-.95-4.13-1.42-6.25-1.42-3.69,0-7.33,1.4-10.11,4.11-42,40.9-86.23,79.95-131.66,116.25,2.73-5.75,6.66-13.17,12.33-22.65,14.34-24.01,30.03-46.62,46.63-67.22,17.54-21.76,24.49-27.21,26.34-28.42,12.64-2.35,34.55-7.36,66.8-15.28,33.09-8.13,51.95-12.9,57.67-14.58,18.17-5.34,18.64-16.94,18-21.69-.71-5.43-4.36-14.93-20.48-18.43-10.41-4.34-23.15-6.46-38.86-6.46-9.22,0-19.59.76-30.82,2.27l-6.69,1.03,3.09-5.84.44-.9c3.09-6.96,4.11-11.58,3.52-15.96-.39-2.93-3.39-17.46-24.02-17.46-2.6,0-5.4.21-8.58.63-6.39.86-22.96,3.07-28.5,15.64l-20.69,36.92c-11.9,2.56-23.51,5.18-34.78,7.85,2.28-5.98,2.81-11.73,1.61-17.31-2.84-13.21-9.62-24.1-20.14-32.36-9.5-7.47-19.87-12.47-30.81-14.87-9.91-2.17-21.55-3.25-35.58-3.3h-.58ZM1462.11,723.43l42.43-26.89c-.55,1.56-1.14,3.17-1.76,4.83-4.1,10.85-10.61,21.63-19.35,32.02-4.25,5.06-10.56,11.08-16.59,11.08l-.93-.04c-4.11-.38-9.49-1.43-12.45-4.29-.61-.96-1.42-2.44-2.29-4.58-.4-.97-.62-1.6-.73-1.96h0c3.96-3.39,7.85-6.78,11.67-10.17Z"/>
    <path class="cls-7" d="M650.21,748.49c5.71,0,11.22,2.73,16.51,8.18,3.06,2.1,5,4.53,5.83,7.28,2.02,6.64.32,11.53-5.06,14.66-58.63,16.56-93.1,26.26-103.4,29.07-1.96,1.5-3.84,2.52-5.64,3.07-.91.28-1.69.42-2.34.42l-1.49-.39c-.76-.52-1.57-2.16-2.4-4.92l-3.02-24.87c.39-.72,2.92-1.79,7.62-3.22l47.09-13.37c12.15-3.68,23.9-7.7,35.26-12.05,1.68-1.41,3.49-2.41,5.42-3,1.89-.57,3.76-.86,5.61-.86M650.21,734c-3.26,0-6.56.5-9.81,1.48-2.95.89-5.74,2.26-8.32,4.07-10.44,3.94-21.31,7.63-32.36,10.98l-46.84,13.29c-7.47,2.26-13.25,4.41-16.42,10.28-1.42,2.64-1.99,5.65-1.63,8.62l3.02,24.87.51,2.42c1.35,4.48,3.37,9.51,8.13,12.74,2.64,1.85,6.03,2.89,9.63,2.89,2.11,0,4.26-.34,6.57-1.05,2.56-.78,5.13-1.99,7.65-3.61,12.23-3.37,44.63-12.49,101.1-28.44,1.17-.33,2.3-.81,3.35-1.42,11.26-6.56,15.61-18.29,11.63-31.39-1.66-5.51-5.11-10.27-10.26-14.13-7.86-7.7-16.58-11.61-25.94-11.61Z"/>
  </g>
  <g>
    <path class="cls-2" d="M949.22,1372.5v5.93h-80.82v-5.93h-65.14l105.31-113.17,106.77,113.17h-66.12ZM873.54,1635.41h75.56v-24.47h-75.56v24.47ZM873.54,1470.59h75.56v-32.62h-75.56v32.62ZM873.54,1595.38h75.56v-27.74h-75.56v27.74ZM873.54,1676.92h75.56v-22.96h-75.56v22.96ZM873.54,1714.72h75.56v-19.26h-75.56v19.26ZM873.54,1797.74h75.56v-18.77h-75.56v18.77ZM873.54,1834.32h75.56v-12.61h-75.56v12.61ZM873.54,1427.35h75.56v-38.52h-75.56v38.52ZM873.54,1755h75.56v-19.21h-75.56v19.21ZM873.54,1557.43h75.56v-32.88h-75.56v32.88ZM873.54,1518.51h75.56v-37.3h-75.56v37.3Z"/>
    <path class="cls-1" d="M611.11,1746.42c-20.56,0-37.23-16.82-37.23-37.57v-444.83h-109.71v429.96c0,77,61.87,139.42,138.18,139.42h237.36v-86.97h-228.59Z"/>
    <path class="cls-1" d="M1219.66,1258.33h-282.68l105.8,108.72h179.71c25.02,0,45.31,20.47,45.31,45.71s-20.29,45.71-45.31,45.71h-252.69v104.27h249.86c74.62,0,135.12-61.03,135.12-136.32v-31.77c0-75.29-60.49-136.32-135.12-136.32Z"/>
    <rect class="cls-4" x="465.75" y="1009.11" width="42.83" height="196.04"/>
    <rect class="cls-4" x="519.35" y="1160.99" width="65.96" height="44.16"/>
    <rect class="cls-4" x="1238.31" y="1009.11" width="42.83" height="196.04"/>
    <rect class="cls-4" x="1291.92" y="1160.99" width="65.96" height="44.16"/>
    <rect class="cls-4" x="610.78" y="1160.99" width="166.73" height="44.16"/>
    <rect class="cls-4" x="610.78" y="1009.11" width="166.73" height="44.16"/>
    <rect class="cls-4" x="610.78" y="1085.05" width="125.39" height="44.16"/>
    <rect class="cls-4" x="1034.94" y="1160.99" width="171.1" height="44.16"/>
    <rect class="cls-4" x="1034.94" y="1009.11" width="171.1" height="44.16"/>
    <rect class="cls-4" x="1034.94" y="1085.05" width="128.67" height="44.16"/>
    <polygon class="cls-4" points="924.25 1205.15 879.18 1205.15 803.1 1009.11 847.84 1009.11 924.25 1205.15"/>
    <path class="cls-4" d="M910.86,1131.34c.33-1.32,48.33-122.23,48.33-122.23h44.73l-67.59,179.88-25.47-57.65Z"/>
  </g>
  <g>
    <path class="cls-6" d="M1060.74,1610.33c8.22,0,15.73,1.38,22.52,4.12,6.79,2.74,12.71,6.65,17.78,11.75,5.07,5.09,9.08,11.21,12.05,18.35,2.96,7.13,4.63,15.08,5.02,23.83h-42.75c-1.35-11.09-6.31-16.63-14.92-16.63-4.4,0-8.03,1.56-10.9,4.67-2.87,3.11-4.3,6.9-4.3,11.38,0,6.22,2.96,10.79,8.9,13.71,1.14.39,2.29.77,3.44,1.16,1.15.4,3.92,1.08,8.32,2.04l-18.65,37.93c-6.7-1.94-12.05-3.98-16.07-6.13-4.02-2.13-7.85-4.96-11.48-8.46-4.98-5.05-8.85-11.03-11.61-17.95-2.78-6.89-4.16-14.34-4.16-22.31s1.44-15.72,4.3-22.67c2.87-6.95,6.89-13.01,12.05-18.2,5.16-5.19,11.19-9.25,18.07-12.2,6.89-2.94,14.35-4.41,22.38-4.41M1060.74,1600.67c-9.3,0-18.1,1.74-26.17,5.18-8.02,3.43-15.12,8.23-21.13,14.27-6.04,6.07-10.8,13.25-14.13,21.33-3.34,8.11-5.03,16.97-5.03,26.36s1.64,17.9,4.86,25.92c3.23,8.06,7.84,15.17,13.69,21.11,4.45,4.29,9.04,7.67,13.83,10.21,4.63,2.47,10.49,4.72,17.9,6.87l7.79,2.26,3.58-7.28,18.65-37.93,5.38-10.94h48.27l-.45-10.09c-.44-9.86-2.37-18.98-5.75-27.11-3.45-8.3-8.2-15.52-14.13-21.46-5.97-6-13.04-10.67-21.01-13.89-7.92-3.2-16.72-4.82-26.14-4.82ZM1057.91,1672.59c-2.53-1.37-3.01-2.71-3.01-4.79s.52-3.51,1.74-4.82c.87-.95,1.85-1.57,3.81-1.57s4.35,0,5.33,8.13l.66,5.4c-4.4-.98-5.53-1.34-5.72-1.4l-1.76-.59-1.05-.35Z"/>
    <path class="cls-6" d="M1088.57,1692.31c25.63,11.86,38.45,31.11,38.45,57.76,0,9.14-1.63,17.66-4.88,25.57-3.26,7.91-7.75,14.8-13.49,20.68-5.73,5.87-12.48,10.52-20.22,13.95-7.75,3.43-16.12,5.14-25.11,5.14-11.1,0-21.47-2.75-31.12-8.22-9.67-5.48-17.36-13.13-23.1-22.92-2.87-4.9-5.02-9.87-6.45-14.94-1.44-5.06-2.34-11.09-2.73-18.1h40.74c2.1,15.17,9.75,22.76,22.95,22.76,6.31,0,11.57-2.19,15.78-6.57,4.21-4.37,6.31-9.86,6.31-16.48,0-5.05-1.24-9.24-3.73-12.54-2.49-3.3-6.5-6.22-12.04-8.75l18.65-37.34M1084.12,1679.61l-4.19,8.39-18.65,37.34-4.47,8.95,9.1,4.15c5.03,2.29,7.31,4.41,8.34,5.78,1.2,1.6,1.79,3.8,1.79,6.73,0,4.11-1.15,7.22-3.62,9.79-2.4,2.49-5.11,3.6-8.82,3.6-5.51,0-11.54-1.11-13.38-14.42l-1.15-8.33h-59.35l.55,10.18c.42,7.7,1.45,14.5,3.08,20.22,1.64,5.81,4.13,11.59,7.41,17.18,6.59,11.24,15.56,20.14,26.67,26.44,11.08,6.29,23.16,9.48,35.89,9.48,10.3,0,20.07-2.01,29.01-5.96,8.86-3.93,16.67-9.32,23.23-16.04,6.57-6.73,11.79-14.73,15.51-23.75,3.72-9.08,5.6-18.91,5.6-29.25,0-30.62-14.82-53-44.05-66.53l-8.51-3.94Z"/>
    <path class="cls-6" d="M1175.51,1615v195.16h-41.31v-195.16h41.31M1185.17,1605.34h-60.62v214.47h60.62v-214.47Z"/>
    <path class="cls-6" d="M1211.66,1615c6.12,0,11.52.24,16.21.72,4.69.49,8.99,1.32,12.91,2.48,3.92,1.17,7.47,2.73,10.62,4.67,3.15,1.94,6.26,4.28,9.32,7,6.12,5.65,10.9,12.26,14.35,19.84s5.16,15.66,5.16,24.21c0,9.15-1.96,17.85-5.88,26.11-3.92,8.27-9.42,15.22-16.5,20.85-5.54,4.48-11.57,7.63-18.07,9.48-6.51,1.85-14.92,2.77-25.25,2.77h-15.78v-41.42h13.48c4.77,0,8.32-.15,10.61-.43,2.29-.28,4.49-.91,6.6-1.87,3.06-1.33,5.49-3.39,7.31-6.17,1.81-2.77,2.73-5.88,2.73-9.32,0-2.87-.68-5.55-2.01-8.04-1.35-2.49-3.06-4.49-5.16-6.02-2.11-1.34-4.45-2.25-7.03-2.73-2.58-.47-6.26-.71-11.05-.71h-15.49v-41.42h12.91M1211.66,1605.34h-22.57v60.74h25.15c5.18,0,7.92.3,9.3.56,1.24.23,2.33.63,3.32,1.21.83.66,1.52,1.53,2.13,2.64.57,1.06.84,2.17.84,3.44,0,1.55-.37,2.83-1.15,4.04-.78,1.2-1.77,2.03-3.09,2.6-1.37.62-2.61.97-3.93,1.13-1.32.16-4.02.36-9.43.36h-23.14v60.74h25.44c11.34,0,20.46-1.03,27.89-3.14,7.74-2.2,14.97-5.99,21.5-11.26,8.17-6.51,14.63-14.67,19.16-24.23,4.52-9.53,6.81-19.71,6.81-30.25,0-9.91-2.03-19.4-6.03-28.21-3.96-8.72-9.54-16.44-16.59-22.94-3.61-3.2-7.19-5.89-10.79-8.12-3.87-2.38-8.21-4.3-12.93-5.71-4.49-1.33-9.42-2.28-14.67-2.83-5.01-.52-10.8-.78-17.21-.78Z"/>
    <path class="cls-6" d="M1380.9,1610.33c12.82,0,24.91,2.24,36.3,6.71,11.38,4.48,21.52,10.75,30.41,18.81,8.89,8.07,16.25,17.65,22.08,28.74,5.83,11.09,9.62,23.24,11.33,36.46h-41.59c-3.83-15.16-11-27.08-21.52-35.73-10.52-8.65-22.96-12.98-37.3-12.98-7.27,0-14.06,1.17-20.37,3.5-6.31,2.33-12.05,5.65-17.22,9.92-5.16,4.29-9.56,9.44-13.2,15.47-3.64,6.02-6.22,12.64-7.74,19.83h-41.6c1.53-12.83,5.21-24.8,11.05-35.88,5.83-11.09,13.24-20.71,22.24-28.88,8.99-8.17,19.22-14.54,30.7-19.11,11.47-4.57,23.62-6.86,36.43-6.86M1380.9,1600.67c-13.98,0-27.44,2.54-40.01,7.55-12.5,4.98-23.81,12.02-33.62,20.93-9.78,8.88-17.96,19.49-24.29,31.53-6.35,12.06-10.42,25.26-12.09,39.23l-1.29,10.8h60.31l1.62-7.66c1.29-6.11,3.5-11.77,6.56-16.84,3.06-5.07,6.79-9.45,11.1-13.03,4.3-3.56,9.15-6.35,14.39-8.29,5.21-1.93,10.94-2.9,17.02-2.9,12.15,0,22.34,3.53,31.17,10.78,8.95,7.37,14.94,17.4,18.29,30.64l1.84,7.29h60.11l-1.42-10.9c-1.86-14.28-6.02-27.64-12.36-39.71-6.33-12.03-14.45-22.59-24.14-31.39-9.73-8.82-20.96-15.77-33.37-20.65-12.46-4.9-25.86-7.38-39.83-7.38Z"/>
    <path class="cls-6" d="M1481.03,1724.69c-1.72,13.23-5.5,25.38-11.33,36.47-5.83,11.09-13.2,20.66-22.08,28.73-8.9,8.07-19.04,14.35-30.41,18.82-11.38,4.47-23.48,6.7-36.3,6.7s-24.96-2.29-36.43-6.85c-11.48-4.57-21.71-10.94-30.7-19.12-9-8.17-16.4-17.79-22.24-28.88-5.84-11.09-9.51-23.05-11.05-35.88h41.6c1.52,7.39,4.1,14.05,7.74,19.98,3.63,5.93,8.03,11.03,13.2,15.31,5.16,4.28,10.9,7.58,17.22,9.92,6.31,2.33,13.09,3.49,20.37,3.49,14.35,0,26.78-4.32,37.3-12.98,10.51-8.65,17.68-20.57,21.52-35.73h41.59M1492.02,1715.03h-60.11l-1.84,7.29c-3.35,13.25-9.33,23.27-18.29,30.64-8.81,7.25-19.01,10.78-31.17,10.78-6.1,0-11.82-.97-17.02-2.89-5.26-1.95-10.11-4.75-14.41-8.3-4.32-3.58-8.07-7.93-11.12-12.92-3.04-4.95-5.23-10.63-6.52-16.89l-1.59-7.71h-60.35l1.29,10.8c1.67,13.98,5.74,27.18,12.09,39.24,6.33,12.03,14.5,22.64,24.29,31.53,9.8,8.91,21.11,15.96,33.62,20.94,12.57,5,26.03,7.54,40,7.54s27.36-2.48,39.82-7.37c12.43-4.89,23.65-11.84,33.38-20.66,9.69-8.79,17.81-19.35,24.14-31.38,6.35-12.07,10.51-25.43,12.36-39.72l1.42-10.9Z"/>
    <path class="cls-6" d="M1532.83,1615v195.16h-41.31v-195.16h41.31M1542.48,1605.34h-60.63v214.47h60.63v-214.47Z"/>
    <path class="cls-6" d="M1612.87,1741.32l23.81,68.85h-43.6l-20.95-59.8c8.79-.2,16.3-.97,22.52-2.34,6.21-1.35,12.29-3.59,18.22-6.7M1618.32,1727.53l-9.95,5.23c-5.13,2.7-10.44,4.66-15.77,5.82-5.58,1.23-12.53,1.94-20.69,2.12l-13.3.3,4.4,12.55,20.95,59.8,2.26,6.47h64.01l-4.43-12.82-23.81-68.85-3.67-10.62Z"/>
    <path class="cls-6" d="M1901.42,1615l-26.97,40.84h-239.73c1.86,5.77,2.81,11.79,2.81,18.08,0,9.15-1.96,17.85-5.88,26.11-3.92,8.27-9.42,15.22-16.5,20.85-5.54,4.48-11.57,7.63-18.07,9.48-6.5,1.85-14.91,2.77-25.25,2.77h-15.78v-41.42h13.48c4.78,0,8.32-.15,10.61-.43,2.29-.28,4.5-.91,6.6-1.87,3.06-1.33,5.49-3.39,7.31-6.17,1.82-2.77,2.73-5.88,2.73-9.32,0-2.87-.67-5.55-2.01-8.04-1.34-2.49-3.06-4.49-5.16-6.02-2.11-1.34-4.45-2.25-7.03-2.73-2.58-.47-6.26-.71-11.05-.71h-15.49v-41.42h12.91c6.12,0,11.52.24,16.21.72,4.69.49,8.99,1.32,12.92,2.48,3.92,1.17,7.46,2.73,10.61,4.67,3.16,1.94,6.26,4.28,9.32,7,2.04,1.88,3.7,4.03,5.44,6.12v-20.99h277.95M1919.38,1605.34h-305.56v9.33l-.04-.02c-3.86-2.38-8.21-4.3-12.92-5.71-4.51-1.33-9.43-2.28-14.68-2.83-5.01-.52-10.8-.78-17.21-.78h-22.57v60.74h25.15c5.18,0,7.92.3,9.3.56,1.24.23,2.33.63,3.32,1.21.83.66,1.53,1.52,2.12,2.62.58,1.08.85,2.18.85,3.46,0,1.56-.36,2.83-1.14,4.02-.79,1.21-1.78,2.04-3.1,2.62-1.37.62-2.61.97-3.92,1.13-1.32.16-4.02.36-9.43.36h-23.14v60.74h25.44c11.35,0,20.47-1.03,27.89-3.14,7.73-2.2,14.97-5.99,21.49-11.26,8.17-6.51,14.63-14.67,19.16-24.23,4.52-9.53,6.81-19.71,6.81-30.25,0-2.84-.17-5.65-.51-8.42h232.96l2.86-4.34,26.97-40.84,9.89-14.98Z"/>
    <path class="cls-6" d="M1708.97,1679.76v130.4h-41.32v-130.4h41.32M1718.63,1670.1h-60.63v149.72h60.63v-149.72Z"/>
    <path class="cls-6" d="M1904.57,1769.32v40.84h-180.45l26.97-40.84h153.49M1914.23,1759.66h-168.34l-2.86,4.34-26.97,40.84-9.89,14.98h208.07v-60.16Z"/>
    <path class="cls-6" d="M1859.25,1680.05l-43.03,65.63h-49.64l43.03-65.63h49.64M1877.13,1670.39h-72.74l-2.86,4.36-43.03,65.63-9.8,14.95h72.74l2.86-4.36,43.03-65.63,9.8-14.95Z"/>
  </g>
  <g>
    <ellipse class="cls-5" cx="1883.14" cy="755.33" rx="60.49" ry="60.34"/>
    <path class="cls-5" d="M1699.67,882.75s33.6-29.91,34.12-46.41c.52-16.5-17.06-46.41-52.21-48.98-35.15-2.58-49.62,23.2-51.69,30.94-2.07,7.73-16.54,8.77-17.58,11.34s-1.55,8.77-1.55,8.77c0,0-7.75,6.19-9.3,13.41-1.55,7.22-.52,27.33,10.86,32.48s26.36,4.64,26.36,4.64l-.52,22.69s-34.12,9.8-43.94,22.69c-9.82,12.89-21.71,45.37-48.59,68.06-26.88,22.69-42.9,14.95-63.06,26.3-20.16,11.34-39.29,9.28-41.35,8.77-2.07-.52-13.96-15.98-21.19-23.72-7.24-7.73-13.96-15.47-16.54-11.86-2.58,3.61,0,15.98,6.2,21.66,6.2,5.67,6.2,10.83,6.2,10.83,0,0-7.75,2.58-20.68-1.03-12.92-3.61-29.98-6.7-29.98-2.58s28.43,10.31,28.43,10.31c0,0-10.86,4.12-22.74,6.19-11.89,2.06-14.47,7.22-4.65,8.25,9.82,1.03,24.3,1.55,24.3,1.55,0,0-2.07,8.25-10.86,10.31-8.79,2.06-17.06,7.22-16.02,8.77,1.03,1.55,33.08-3.09,46.01-8.25,12.92-5.16,64.62-11.86,89.95-9.8,25.33,2.06,61-8.77,61-8.77,0,0-7.24,61.36,3.1,87.14,10.34,25.78,8.79,38.67,13.44,47.95,4.65,9.28,3.62,47.95,6.2,57.23,2.58,9.28-4.65,65.48-9.82,79.41-5.17,13.92,1.55,82.5,31.02,99.51,29.46,17.02,70.3,10.83,71.34,12.89,1.03,2.06,8.79,8.77,23.26,3.09,14.47-5.67,16.54-15.47,47.56-22.17,31.02-6.7,46.01-6.7,46.01-6.7,0,0,13.44,23.72,19.64,23.2,6.2-.52,18.09-18.56,21.71-20.11,3.62-1.55,32.05,23.2,42.39,36.61,10.34,13.41,30.5,11.34,33.6-12.89,3.1-24.23-37.74-63.94-38.77-79.92-1.03-15.98-6.2-39.7-24.81-38.67-18.61,1.03-32.05,34.55-38.25,42.8-6.2,8.25-45.49,5.16-45.49,5.16,0,0,21.19-47.95,39.29-67.55,18.09-19.59,30.5-24.23,31.53-22.17,1.03,2.06,5.69,1.55,8.27-.52s-4.14-13.41,20.16-34.55c24.3-21.14,59.96-18.56,68.75-18.56s8.27-8.25,6.2-13.41c-2.07-5.16-62.55-23.72-87.88-22.17-25.33,1.55-35.15-5.67-48.59-3.61-13.44,2.06-17.58,20.62-14.99,28.36,2.58,7.73,10.34,41.25,10.34,45.37s-19.64,15.47-33.6,28.36c-13.96,12.89-26.88,25.78-29.98,26.81-3.1,1.03-21.19-8.25-23.78-9.8-2.58-1.55,18.61-60.33,14.99-101.06-3.62-40.73-24.3-63.94-26.88-69.09-2.58-5.16,3.1-9.8,1.03-14.95-2.07-5.16-13.44-10.83-13.96-15.47-.52-4.64,36.18-56.72,49.11-80.44,12.92-23.72,11.37-45.37,18.09-50.53,6.72-5.16,33.08-6.19,55.83-6.7s43.94-20.62,54.79-23.72c10.86-3.09,38.77-20.62,68.23-60.84,29.46-40.22,40.84-64.45,41.87-72.19,1.03-7.73-3.62-43.31-6.72-59.3s-34.12-45.37-64.1-42.28c-29.98,3.09,17.58,73.73,17.58,73.73,0,0,24.3,8.77,27.91,10.31,3.62,1.55.52,19.08,0,24.23-.52,5.16-33.08,30.94-56.86,50.02-23.78,19.08-39.8,42.28-43.42,42.8-3.62.52-31.53-6.19-42.9-3.09-11.37,3.09-11.89,6.7-21.19,8.25-9.3,1.55-16.02-12.37-40.32-10.83-24.3,1.55-29.98,9.8-37.22,11.34-7.24,1.55-4.65-27.84-4.65-27.84Z"/>
  </g>
  <path class="cls-3" d="M64.48,1400.1l.65-.49-.8.22.14.27.65-.49-.8.22c.07.18.24,1.97.41,4.23.29,3.46.72,8.38,1.58,13.03.88,4.67,2.09,9.04,4.31,11.65l1.83-1.59c-2.29-2.53-3.8-9.44-4.54-15.64-.39-3.11-.64-6.06-.82-8.3-.09-1.12-.17-2.06-.24-2.76l-.12-.9-.33-.91-1.94,1.46Z"/>
  <g>
    <path class="cls-3" d="M82.19,1359.01l15.14,10.26,11.84-12.07-6.19-13.31-.85-.09c-6.04,0-11.77,1.24-17.11,3.25l-2.82,11.96Z"/>
    <path class="cls-3" d="M75.66,1389.96l-12.36-12.73-8.9,5.24c-.69,3.28-1.09,6.66-1.09,10.15,0,3.24.35,6.4.95,9.46l13.43,1.83,7.96-13.95Z"/>
    <path class="cls-3" d="M130.33,1369.66l8.04,14.34,12.08,3.81c-1.13-11.4-5.97-21.7-13.58-29.42l-6.55,11.27Z"/>
    <path class="cls-3" d="M92.85,1440.08l-5.08-16.35-18,2.26-.46,2.54c6.41,5.86,14.28,10.13,23.13,11.91l.41-.36Z"/>
    <path class="cls-3" d="M147.24,1411.16l-9.23,1.97-13.27,9.71-2.66,14.23c11.35-5.11,20.4-14.37,25.15-25.91Z"/>
    <polygon class="cls-3" points="122.6 1396.43 105.89 1382.55 91.7 1396.1 95.3 1417.37 116.95 1416.67 122.6 1396.43"/>
    <path class="cls-3" d="M150.93,1392.61h-1.21c0,13.15-5.33,25.04-13.94,33.65-8.62,8.62-20.51,13.94-33.66,13.94-13.15,0-25.04-5.33-33.66-13.94-8.62-8.62-13.94-20.51-13.94-33.65,0-13.15,5.33-25.04,13.94-33.66,8.62-8.62,20.51-13.94,33.66-13.94,13.15,0,25.04,5.33,33.66,13.94,8.62,8.62,13.94,20.51,13.94,33.66h2.43c0-27.63-22.4-50.02-50.02-50.02-27.63,0-50.02,22.4-50.02,50.02,0,27.63,22.4,50.02,50.02,50.02,27.63,0,50.02-22.39,50.02-50.02h-1.21Z"/>
    <path class="cls-3" d="M92.5,1361.59l.8,1.29c2.73,3.92,12.42,17.93,12.33,26.72l-.02.64,2.42.14.02-.78c-.03-5.89-3.34-12.83-6.63-18.55-1.65-2.85-3.31-5.38-4.57-7.26l-1.55-2.28-.45-.67-.11-.18-.02-.03-.55.29.58-.23-.03-.06-.55.29.58-.23-2.25.9Z"/>
    <path class="cls-3" d="M134.12,1370.19s-5.45-3.72-11.9-7.48c-6.5-3.76-13.77-7.62-18.29-7.9l-.12,2.42c3.37.11,10.87,3.84,17.18,7.57,6.36,3.72,11.74,7.39,11.75,7.39l1.37-2.01Z"/>
    <path class="cls-3" d="M87.09,1354.59c-.05.13-23.47,14.09-26.96,30.15l2.38.49c1.44-7.09,7.86-14.35,14-19.71,3.06-2.68,6.03-4.91,8.24-6.46,2.2-1.55,3.61-2.41,3.62-2.41l-1.26-2.07Z"/>
    <polyline class="cls-3" points="84.98 1426.88 99.56 1413.87 97.95 1412.06 83.36 1425.07"/>
    <polyline class="cls-3" points="107.66 1410.18 128.16 1426.14 129.65 1424.23 109.16 1408.27"/>
    <path class="cls-3" d="M137.79,1416.92s3.02-17.7,3.02-29.47c0-3.31-.22-6.14-.9-8.17l-2.3.79c.52,1.5.78,4.21.77,7.39,0,11.41-2.99,29.04-2.99,29.06l2.39.41Z"/>
    <path class="cls-3" d="M120.93,1399.77s5-3.51,10.04-7.56c2.52-2.02,5.05-4.18,7-6.13,1.93-2.02,3.37-3.52,3.58-5.38l-2.43-.12c.11.21-1.01,2.01-2.87,3.78-2.76,2.76-6.96,6.14-10.45,8.8-3.49,2.66-6.26,4.61-6.27,4.62l1.4,1.99Z"/>
    <path class="cls-3" d="M98.86,1396.22s-5.8-1.47-12.1-3.31c-6.26-1.8-13.23-4.13-14.88-5.36l-1.41,1.98c2.48,1.72,9.21,3.83,15.61,5.72,6.35,1.85,12.18,3.33,12.18,3.34l.6-2.35Z"/>
    <path class="cls-3" d="M191.04,1211.94s-18.04,18.46-15.94,31.88c2.1,13.42,21.81,22.65,24.33,28.11,2.52,5.45,3.36,13.42,4.61,14.68,1.26,1.26,5.45-2.52,5.45-2.52,0,0,6.71,3.78,8.81,6.71,2.1,2.94,10.07,5.45,14.26,5.45s5.87-6.29,9.65-7.13c3.77-.84,10.91,2.94,10.91,2.94,0,0-4.61,10.91-6.29,23.91-1.68,13-4.61,25.59-4.61,34.4s4.2,26.43,3.77,31.04c-.42,4.61-34.82,5.45-47.82,5.87-13,.42-18.04,13-18.04,16.36s11.75-1.26,15.1-2.52c3.36-1.26,8.81,5.45,16.78,7.55,7.97,2.1,21.81-5.45,27.69-6.71,5.87-1.26,15.52,3.78,15.52,3.78,0,0,1.26,44.89.84,48.24-.42,3.36-39.43.42-55.37-9.65-15.94-10.07-17.2-7.97-20.56-2.94-3.36,5.03-3.36,9.23-3.36,9.23,0,0-48.66-4.19-54.95,15.94-6.29,20.14-4.19,102.78-3.36,112.43.84,9.65-5.87,9.65-7.55,13.84-1.68,4.19-3.36,18.04-3.78,20.97-.42,2.94-19.3,19.3-35.66,26.85-16.36,7.55-25.59,11.75-24.33,17.62,1.26,5.87,22.65,6.29,41.53,2.52,18.88-3.78,53.28-5.45,57.47-6.29,4.19-.84,5.87-23.49,4.19-27.69-1.68-4.2-12.58-5.87-13.42-9.23-.84-3.36,2.94-28.95,7.55-36.92,4.61-7.97,18.46-38.59,20.97-51.6,2.52-13-1.26-31.88-.42-30.62.84,1.26,5.03,16.36,9.65,21.39,4.61,5.03,43.21,18.04,53.28,22.65,10.07,4.61,17.62,4.61,19.72,5.87,2.1,1.26-17.62,39.85-18.46,46.56-.84,6.71,6.71,9.23,6.71,9.23,0,0,2.1,55.37,7.97,70.9,5.87,15.52,8.81,106.97,9.23,115.78.42,8.81-19.72,27.27-35.66,31.04-15.94,3.78-35.24,17.62-33.98,23.07,1.26,5.45,22.65,7.13,33.14,7.13s32.3-6.71,56.21-6.71,20.97-20.14,20.14-30.62c-.84-10.49-10.07-11.75-10.07-13.42s-1.68-47.82,7.55-70.89c9.23-23.07,2.94-52.44-2.94-63.76-5.87-11.33-9.23-18.04-9.23-18.04,0,0,8.39-17.2,12.58-20.98,4.19-3.78,15.1.84,17.2,0,2.1-.84,24.75-62.51,33.14-80.12,8.39-17.62,12.58-55.37,9.65-69.64-2.94-14.26-10.91-25.17-10.91-25.17,0,0,12.16-.84,13.84-3.36,1.68-2.52-7.13-83.06-5.45-86,1.68-2.94,23.07,18.46,28.11,24.75,5.03,6.29,17.2,15.1,17.62,17.2.42,2.1-7.13,21.39-7.13,23.91s13.42-8.39,16.36-10.07c2.94-1.68,10.61,8.2,8.51,15.75-2.1,7.55-4.04,16.1-2.36,14.84,1.68-1.26,14.82-14.23,16.92-13.81,2.1.42,12.17,23.91,13.84,24.33,1.68.42,3.77-33.98-15.52-66.28-19.3-32.3-33.14-41.95-47.82-62.51-14.68-20.55-29.36-35.24-43.21-40.27-13.84-5.03-59.15-32.3-62.09-34.82-2.94-2.52-5.87-46.98-26.01-57.89-20.14-10.91-46.98,1.68-54.53,13.42Z"/>
  </g>
  <g>
    <path class="cls-8" d="M1019.71,1708.06c3.63,3.5,7.46,6.33,11.48,8.46,4.02,2.14,9.37,4.18,16.07,6.13l18.65-37.93c-4.4-.96-7.17-1.64-8.32-2.04-1.14-.39-2.29-.77-3.44-1.16-5.93-2.92-8.9-7.49-8.9-13.71,0-4.48,1.43-8.27,4.3-11.38,2.87-3.12,6.5-4.67,10.9-4.67,8.61,0,13.58,5.54,14.92,16.63h42.75c-.39-8.75-2.06-16.7-5.02-23.83-2.97-7.14-6.98-13.26-12.05-18.35-5.07-5.09-11-9.01-17.78-11.75-6.8-2.75-14.3-4.12-22.52-4.12s-15.49,1.47-22.38,4.41c-6.88,2.94-12.91,7.01-18.07,12.2-5.16,5.19-9.18,11.26-12.05,18.2-2.86,6.95-4.3,14.49-4.3,22.67s1.39,15.41,4.16,22.31c2.77,6.91,6.64,12.89,11.61,17.95Z"/>
    <path class="cls-8" d="M1088.57,1692.31l-18.65,37.34c5.54,2.53,9.56,5.45,12.04,8.75,2.49,3.3,3.73,7.49,3.73,12.54,0,6.62-2.11,12.11-6.31,16.48-4.21,4.38-9.46,6.57-15.78,6.57-13.2,0-20.85-7.58-22.95-22.76h-40.74c.38,7.01,1.29,13.04,2.73,18.1,1.43,5.07,3.58,10.04,6.45,14.94,5.74,9.79,13.43,17.44,23.1,22.92,9.65,5.47,20.03,8.22,31.12,8.22,8.99,0,17.36-1.71,25.11-5.14,7.74-3.43,14.49-8.08,20.22-13.95,5.74-5.88,10.23-12.77,13.49-20.68,3.24-7.91,4.88-16.43,4.88-25.57,0-26.65-12.82-45.9-38.45-57.76Z"/>
    <rect class="cls-8" x="1134.2" y="1615" width="41.31" height="195.16"/>
    <path class="cls-8" d="M1260.72,1629.88c-3.06-2.72-6.17-5.05-9.32-7-3.16-1.94-6.7-3.5-10.62-4.67-3.92-1.16-8.22-1.99-12.91-2.48-4.69-.48-10.09-.72-16.21-.72h-12.91v41.42h15.49c4.78,0,8.46.24,11.05.71,2.58.48,4.93,1.39,7.03,2.73,2.1,1.53,3.82,3.54,5.16,6.02,1.33,2.49,2.01,5.16,2.01,8.04,0,3.44-.91,6.55-2.73,9.32-1.82,2.78-4.26,4.84-7.31,6.17-2.11.96-4.31,1.58-6.6,1.87-2.29.28-5.84.43-10.61.43h-13.48v41.42h15.78c10.33,0,18.74-.92,25.25-2.77,6.5-1.85,12.53-5.01,18.07-9.48,7.08-5.64,12.58-12.58,16.5-20.85,3.92-8.26,5.88-16.96,5.88-26.11,0-8.55-1.72-16.63-5.16-24.21s-8.23-14.19-14.35-19.84Z"/>
    <path class="cls-8" d="M1447.61,1635.86c-8.9-8.06-19.04-14.34-30.41-18.81-11.38-4.48-23.48-6.71-36.3-6.71s-24.96,2.29-36.43,6.86c-11.48,4.57-21.71,10.94-30.7,19.11-9,8.17-16.4,17.79-22.24,28.88-5.84,11.09-9.51,23.05-11.05,35.88h41.6c1.52-7.19,4.1-13.81,7.74-19.83,3.63-6.02,8.03-11.18,13.2-15.47,5.16-4.27,10.9-7.58,17.22-9.92,6.31-2.33,13.09-3.5,20.37-3.5,14.35,0,26.78,4.33,37.3,12.98,10.51,8.66,17.68,20.57,21.52,35.73h41.59c-1.72-13.22-5.5-25.37-11.33-36.46-5.83-11.09-13.2-20.67-22.08-28.74Z"/>
    <path class="cls-8" d="M1417.92,1760.42c-10.52,8.66-22.96,12.98-37.3,12.98-7.27,0-14.06-1.16-20.37-3.49-6.31-2.34-12.05-5.65-17.22-9.92-5.16-4.28-9.56-9.38-13.2-15.31-3.64-5.93-6.22-12.59-7.74-19.98h-41.6c1.53,12.83,5.21,24.8,11.05,35.88,5.83,11.09,13.24,20.71,22.24,28.88,8.99,8.18,19.22,14.55,30.7,19.12,11.47,4.56,23.62,6.85,36.43,6.85s24.91-2.24,36.3-6.7c11.38-4.48,21.52-10.75,30.41-18.82,8.89-8.06,16.25-17.64,22.08-28.73,5.83-11.09,9.62-23.24,11.33-36.47h-41.59c-3.83,15.16-11,27.09-21.52,35.73Z"/>
    <rect class="cls-8" x="1491.51" y="1615" width="41.31" height="195.16"/>
    <path class="cls-8" d="M1594.65,1748.02c-6.22,1.37-13.73,2.14-22.52,2.34l20.95,59.8h43.6l-23.81-68.85c-5.93,3.12-12,5.35-18.22,6.7Z"/>
    <path class="cls-8" d="M1735.6,1655.84h138.86l26.97-40.84h-277.95v20.99c-1.74-2.09-3.41-4.24-5.44-6.12-3.06-2.72-6.16-5.05-9.32-7-3.16-1.94-6.7-3.5-10.61-4.67-3.93-1.16-8.23-1.99-12.92-2.48-4.69-.48-10.09-.72-16.21-.72h-12.91v41.42h15.49c4.78,0,8.46.24,11.05.71,2.58.48,4.93,1.39,7.03,2.73,2.1,1.53,3.83,3.54,5.16,6.02,1.34,2.49,2.01,5.16,2.01,8.04,0,3.44-.91,6.55-2.73,9.32-1.82,2.78-4.26,4.84-7.31,6.17-2.11.96-4.31,1.58-6.6,1.87-2.29.28-5.83.43-10.61.43h-13.48v41.42h15.78c10.34,0,18.75-.92,25.25-2.77,6.5-1.85,12.53-5.01,18.07-9.48,7.08-5.64,12.58-12.58,16.5-20.85,3.92-8.26,5.88-16.96,5.88-26.11,0-6.29-.95-12.32-2.81-18.08h100.87Z"/>
    <rect class="cls-8" x="1667.66" y="1679.76" width="41.32" height="130.4"/>
    <polygon class="cls-8" points="1751.09 1769.32 1724.12 1810.16 1904.57 1810.16 1904.57 1769.32 1751.09 1769.32"/>
    <polygon class="cls-8" points="1816.21 1745.69 1859.25 1680.05 1809.61 1680.05 1766.58 1745.69 1816.21 1745.69"/>
  </g>
  <path class="cls-3" d="M351.7,403.36c.85.43,3.62.22,4.26,0,.21.64-1.49,1.91-.22,3.62-.64.21-2.55-1.28-4.26,0-.64.21-.42.85.21,2.76-5.74,1.91-10.43,4.88-13.84,9.56.85.43,2.34.64,3.62.22,1.07-3.2,6.6-5.74,8.52-8.5l.64,1.91c.64-.21,3.84-3.4,6.39-4.25-4.69,5.1-13.42,12.97-26.21,23.6-12.78,10.63-21.52,18.49-26.22,23.6,1.28,1.7,3.84-3.4,4.48-1.48-1.28,2.55-6.61,5.74-6.61,7.87-2.56-1.28,2.13-4.26,1.92-4.9-2.77.21-6.82,7.23-9.37,8.08,1.28,1.7,1.06,3.2-.65,4.48-.63-1.92.44-2.98-.42-3.41-1.92.63-1.49,1.91-.22,3.62-1.7,1.27-6.17,7.01-8.51,8.49-.64-1.91,2.34-3.61,2.13-4.25-3.41-1.71-2.98,3.83-6.18,4.89.21.64,1.71.85,1.7,2.98l-1.92.63c-5.1-2.56-3.19,3.19-7.66,4.67,3.19,1.08,5.11-3.83,7.66-4.67-2.34,3.62-9.16,10.85-11.72,13.82-1.06-1.06-1.27-1.7-.85-2.55-1.91.63-1.49,1.91-.21,3.61-2.77,2.34-4.69,5.11-5.75,8.29-.64.21-1.28.42-2.13,0-.85-.43-.64.21-1.07,1.06-.85-.43-.64.21-.43.85.86.43.64-.21.43-.85,1.71.85,1.28,1.71-.43,2.98-1.7,1.27-1.92,2.76-2.34,3.61-.64.21-1.49-.22-1.7-.85-.64.21-1.07,1.06-.43,2.98-1.91.63-2.98-.43-3.62-.22,2.98,2.56,2.34,4.9-3.2,7.44l-1.06-1.07c-.64.21-.43.85-.22,1.49-1.27.42-1.91.64-2.34,1.48.21.64.85.43,2.13,0,.21.64-1.06,1.06-3.62,1.91l.21.64c.43,1.27.64,1.91.21,2.76-3.4.42-6.18,7.02-8.31,7.02-1.7,3.4-6.61,14.25-10.86,12.12.64-.21,1.49-1.91,2.34-1.48-1.07-1.07-1.7-.86-2.34,1.48-.64.21-1.07,1.07-1.49,1.91.21.64,1.28-.42,1.49.22-.22,1.5-3.84,5.53-10.02,12.55q-.21-.64.21-1.49l.43-.85c-1.49-.22-2.55.85-2.98,1.69.21.64,1.06,1.07,2.34.65-1.28,2.55-2.77,4.46-3.41,4.67-.85-.42-.42-1.28.22-1.49q.42-.85.21-1.49c-1.49-.22-1.91.64-1.92,2.76l.21,2.77c-1.7,1.27-1.49-2.34-3.19-1.07-1.91.63.85,2.55,1.06,3.2-1.27.42-1.7,1.28-1.49,1.91-.64.21-2.12-2.13-2.55-1.29,1.49,2.35-.22,5.75-4.48,7.88l-.42-1.28c1.27-.42,1.7-1.27,1.49-1.91-.21-.64-.64.21-1.49,1.91-.64.21-.22,1.5.42,1.28.22.63-.42.85-.21,1.49-.64.21-2.13,2.13-4.05,2.76-8.96,13.61-22.15,16.58-39.18,10.17-3.19-3.2-7.44-5.33-14.25-6.61-2.12-4.26-8.93-5.54-9.56-7.46,1.32-36.61,9.02-71.09,24.19-119.38,7.05-23.62,11.97-40.86,14.75-51.71l.85-1.7c.43-.85.85-1.7,1.71-1.28,2.36-14.26,7.91-33.83,16.66-58.72,8.76-24.89,14.31-42.34,17.31-52.55,3.83-3.4,5.75-6.17,5.54-8.93,1.7-1.27,4.26-2.12,8.73-3.61.21.64,1.7.85,1.7,2.98,9.36-1.69,20,8.96,26.8,12.38.21.64-.42.85-.85,1.69l-1.07,1.07c.86.43,1.07,1.07,1.5.21.42-.85,1.06-1.06,1.91-.63.64,1.91-1.71,5.53-2.56,7.23-1.92,9.15-9.18,32.13-11.12,43.41-.64.21-1.92,2.76-2.55,2.97l.85,2.55c-3.41,4.68-5.12,10.21-5.14,16.6-.85-.43-1.7,1.27-2.34,1.48-.86,8.09-4.07,17.67-8.76,27.03-.01,10.65-9.18,30-9.84,38.73-1.5,4.04-9.4,31.49-23.72,82.34,2.99-1.7,8.09-7.65,14.28-16.8,2.98-1.7,4.9-4.46,6.39-8.5,25.57-27.64,53.91-55.5,84.38-83.34,1.49,2.34,1.7-1.27,3.63-1.91.64,1.91-3.21,5.32-2.36,7.87l-1.06-1.07c-.85-.43-2.34-.65-2.76.21-.43.86.42,1.28,2.55,1.28.85.43,1.06,1.06,1.27,1.7,1.71-1.28,2.77-2.33,3.41-2.55.22.64,0,2.13.21,2.77,2.99-1.7,6.39-4.25,10.44-9.14,0,0,.21.64,1.06,1.06.22.64.85.43,1.49.22-.85-2.56,1.08-5.33,5.97-7.66.21.64-1.7,3.4-.21,5.75,1.28-2.55,1.48-4.05,1.49-6.17.85.43,1.91-.64,3.62-1.91-.43-1.27-1.06-1.07-1.49-.21.43-.86,10.01-4.03,11.07-9.35.64,1.91,0,4.25-1.7,5.53,2.13,0,2.55,1.28,2.34,2.77,1.7-1.27,10.44-9.14,14.7-11.26.85.43-1.49,1.91,1.06,3.2,2.77-2.34,4.48-3.61,5.32-3.19-1.28,2.55-10.43,7.01-10.65,12.77.64-.21,9.59-11.7,12.99-7.87l.64-2.34c0-2.13,1.07-3.19,3.2-3.19,1.27,1.7-.43,2.98-.22,3.62,2.56-2.97,11.93-6.8,14.91-8.49-.43.85-4.69,5.1-2.98,8.09-.64.21-.86-.43-1.49-2.35q-.64.21-1.06,1.07c-1.51,1.92-2.78,2.34-3.84,1.27-.43.85-.22,1.49,1.27,1.71l.85.43-4.47,1.49c-.64.21.85,2.55-1.07,3.19-1.91-3.62-4.67-3.41-7.02.2ZM184.18,593.02c.64-.21,1.07-1.06.22-1.49-.64.21-1.07,1.07-1.28,2.55-.22-.64.43-.85,1.06-1.06ZM189.51,587.71c-1.28.42-1.7,1.27-1.49,1.91,1.27-.42,1.7-1.27,1.49-1.91ZM196.96,582.39c-2.55.85-3.83,1.27-3.61,1.91,1.48.22,2.76-.21,3.61-1.91ZM185.55,513.84c0,2.13-4.7,11.5-3.22,15.97.64-4.47,4.27-12.77,3.22-15.97ZM189.61,500.44c-.64.21-1.06,1.07-.85,1.71-1.71,5.53-2.77,8.72-2.78,10.85,2.56-2.97,3.41-6.81,2.78-10.85.64-.21,1.06-1.06.85-1.71l1.49-4.04c-1.49-.22-1.91.63-1.28,2.55-.63.21-.42.85-.21,1.49ZM199.66,460.22c.21.64-.85,1.7-.21,3.61-.86-.42-.64.21-.43.85l-.64.21c-1.71,3.41-2.14,6.39-1.93,9.15l-.64.21c.21.64-4.47,9.99-3.42,15.31-3.2,1.06-1.71,5.53-.86,5.96,0-2.12,1.07-5.32.86-5.96,0-2.12,4.9-10.85,4.06-15.53,1.28-2.55,1.29-6.81,2.57-9.37l.43-.85.63-.21c-.21-.64.43-2.98.22-3.62l.64-.21q-.21-.64.42-.85l-.42-1.28c-.85-.43-1.28.42-.64,2.34l-.64.21ZM221.9,552.84c-.63.21-1.27.42-2.13,0l-2.13,2.13c-.85,1.7-1.06,3.19-1.48,4.04,3.19-3.19,5.32-5.32,5.74-6.17ZM203.08,451.29c-1.92.64-2.34,1.49-1.7,3.4l1.7-3.4ZM203.93,447.45l1.28-.42-.43-1.27-1.27.42.42,1.28ZM207.78,435.54c-1.92.64-2.78,2.34-2.35,5.75,1.7-1.28,2.56-2.98,2.35-5.75ZM228.51,544.96c-.42-1.28-1.28-1.7-1.7-.85.21.64.42,1.28,1.27,1.71-.21-.64-.42-1.28.43-.86ZM208.21,430.43c-.64.21-1.07,1.07-.22,1.5,1.28-.42,1.7-1.28,1.92-2.77.85-1.7.64-2.34-.64-1.91-.64.21-.43.85,0,2.12l-1.06,1.06ZM211.63,423.62c-1.28.42-1.71,1.28-1.5,1.92,1.28-.42,1.71-1.28,1.5-1.92ZM213.12,417.46c-2.35,1.49-3.62,4.04-1.07,5.32-.64-1.91,1.28-4.68,1.07-5.32ZM213.76,412.98l.64-.21q.64-.21.43-.86c-.64.21-1.28.42-1.07,1.07ZM247.48,523.07c.21.64-1.06,1.06-1.28.42l1.28-.42ZM251.59,462.83c-2.13,0-6.82,5.11-5.54,6.81,1.71-1.28,5.54-4.68,5.54-6.81ZM250.74,458.15c-2.13,0-2.55,2.98-.43,2.98-.21-.64,1.28-2.55.43-2.98ZM251.59,467.09c1.28-.42,1.7-1.27,1.49-1.91l-1.28.42.21.64-.42.85ZM259.63,504.14c1.28-.42,1.7-1.28,1.49-1.92,1.28-.42,1.7-1.27,1.28-2.55-1.49-.22-1.92.63-1.28,2.55-1.49-.22-2.13,0-1.49,1.92ZM256.71,456.88c-3.19,1.06-4.68,2.97-4.47,5.74,2.55-2.97,4.04-4.89,4.47-5.74ZM260.98,452.63c-2.13,2.12-3.21,3.19-2.99,3.83,2.13-2.13,3.2-3.19,2.99-3.83ZM265.22,454.76l-.43-1.27-.84-.43-.64.21c.21.64-2.13,2.13-1.5,4.04.64-.21,1.28-2.55,3.41-2.55ZM260.34,448.59l1.28-.42-.43-1.28-1.27.42.42,1.28ZM265.66,447.53c.43-.85.22-1.49-1.27-1.71,1.48,2.35-2.77,4.47-2.14,6.38,1.92-.63,3.41-2.55,3.41-4.68ZM272.43,480.74c-2.13,0-2.56,2.97-.42,2.98-.22-.64,1.27-2.55.42-2.98ZM269.49,444.13c-1.27.42-1.7,1.28-1.49,1.92,1.28-.42,1.71-1.28,1.49-1.92ZM269.49,448.38l1.28-.42-.43-1.27-1.27.42.42,1.28ZM279.03,477.13c-.21-2.76-3.4-1.71-2.55.85l2.55-.85ZM273.76,437.74c.21.64-2.56,2.97-2.56,5.11,2.55-.85,5.11-3.83,2.56-5.11ZM290.58,428.61c-7.24,5.95-12.57,11.28-16.61,16.16,4.47-1.48,10.01-10.42,14.48-11.9-.21-.64,2.77-2.34,2.13-4.26ZM283.08,478.62l1.28-.42.42,1.28-1.28.42-.42-1.28ZM282.02,471.18l.64-.21q.64-.21.42-.85c-.63.21-1.27.42-1.06,1.06ZM278.65,435.41q-.63.21-.84-.43l-1.28.43c.21.64-1.71,3.4.42,3.4l1.7-3.4ZM287.34,467.99c-.43-1.27-1.27-1.71-1.7-.86.21.64.42,1.28,1.28,1.71-.22-.64-.43-1.28.42-.85ZM278.87,431.79c.85.43-.22,3.62,1.92,3.62.42-.85,0-2.13-.64-4.04,1.28-.42,1.7-1.27,1.28-2.55-1.49-.22-1.92.63-1.28,2.55l-1.28.42ZM289.89,471.4l-.42-1.28c-1.28,2.55-1.07,3.19-.22,3.62-.85-.43-.42-1.28.64-2.34ZM284.84,428.39c.21.64-2.35,1.49-1.71,3.4,1.92-.63,2.34-1.49,1.71-3.4ZM291.65,425.42c-.43-1.28-1.28-1.7-1.91-1.5.21.64-1.92,2.77-1.71,3.4,1.92-.64,2.98-1.69,3.62-1.91ZM294.42,425.21c-1.92.63-2.99,1.7-3.2,3.19,1.92-.64,2.98-1.7,3.2-3.19ZM296.54,427.34l1.29-.43-.43-1.27-1.28.42.42,1.28ZM296.99,415.85c-2.12,0-2.34-.65-1.06-3.2.42-.85,1.06-1.06,1.7-1.27.22.64-.85,3.83-.64,4.47ZM296.56,418.83c1.71-1.28,1.92-.63,2.77,1.92-1.92.63-2.77.21-3.19-1.07l.42-.85ZM299.96,418.41c.85-3.83,2.98-5.96,7.03-6.6-.43.86-2.56,2.98-7.03,6.6ZM305.28,419.48c-.64.21-1.28.42-1.07,1.07l.43-.85.64-.21ZM311.85,452.05l-.43-1.27.85.43,1.28-.42c-.21,1.48-.85,1.7-1.7,1.27ZM303.38,407.34c.64-.21,1.49.22,1.28,1.7l-1.28.42-.43-1.27.43-.85ZM317.59,445.89c-.21,1.48-1.06,3.19-4.04,4.89.21-1.49,1.07-3.19,4.04-4.89ZM308.9,417.56l-.43.86c-.64.21-1.06,1.06-.21,1.49.63-.21,1.06-1.06.64-2.34ZM309.77,409.48c-1.07,1.07-1.7,1.27-2.13,2.13-.21-.64,1.28-2.55,4.68-5.1-.42.85-.85,1.7-2.55,2.97ZM314.41,438.43c-1.7,1.28,1.91,3.63,1.7.86l1.28-.42-.63-1.92c-.86-.42-1.29.43-.65,2.34l-1.7-.86ZM319.31,436.1l-1.28.42,1.28-.42ZM321.86,443.76c-.43-1.27,0-2.12,1.91-2.76-.85,1.7-1.27,2.55-1.91,2.76ZM313.81,404.59c1.07-1.07,1.92-.63,2.35.63l-1.92.64-.43-1.27ZM322.07,435.88c1.28-.42,1.71-1.27,1.07-3.19l-1.91.63.84,2.55ZM317.63,411.83q.64-.21,1.07-1.07l-1.07-1.07q.22.64-.42.85l.42,1.29ZM327.43,407.15c.42-.85-1.28-3.83-2.12-4.26.21,2.76-4.7,2.98-4.7,5.1.64-.21,5.97-3.4,6.82-.85ZM327.61,429.08c2.99-1.7,3.42-2.55,1.28-2.55l-1.06,1.06c-1.06,1.06-1.49,1.91-1.28,2.55q.64-.21,1.06-1.06ZM330.84,402.48c-.21-.64.86-1.7,2.99-3.82.21.64-.85,1.7-2.99,3.82ZM338.49,421.22l-2.56.85c.22.64-1.06,3.19.85,2.55-1.27-1.71,1.92-2.76,1.71-3.4ZM335.94,407.17l-1.27.42c.21.64-.43.86-.22,1.49,1.28-.42,1.7-1.27,1.49-1.91ZM337.65,401.63c-1.91.64-2.98,1.7-3.2,3.19,1.92-.64,2.99-1.7,3.2-3.19ZM334.9,395.46c-.85-.43.22-1.5,2.13-2.13-.43.85-1.49,1.91-2.13,2.13ZM341.9,410.16c-.63,2.34-.42,2.98.85,2.55l-.85-2.55ZM342.35,396.53c-.43.85-.01,2.13,1.49,2.34,0-2.12-.21-2.76-1.49-2.34ZM348.74,392.28c-.64.21-1.28.42-1.07,1.07-1.49-.22-1.7-.86,0-2.12l1.29-.43c.84.42.42,1.28-.22,1.49ZM350.87,392.29l1.28-.42.42,1.28-1.28.42-.42-1.28ZM356.41,389.73c0-2.12,1.27-2.55,2.13-2.12-.43.85-1.5,1.91-2.13,2.12ZM361.28,398.05c-.42-1.28-1.27-1.71-1.7-.85.21.64.42,1.28,1.28,1.7-.22-.64-.43-1.27.42-.85Z"/>
  <path class="cls-3" d="M326.54,532.42c-.19-.65.08-2.13.54-2.96.56,1.94.3,3.42-.54,2.96ZM327.09,529.46c-.31-3.42.41-5.74,2.16-6.95l-2.16,6.95ZM339,541.39c1.94-.57-1.33-4.52-1.52-5.17-.65.19-.07,2.13-2.2,2.05.2.65,2.51,1.37,3.07,3.3-2.58.76-.6,5.09-4.02,5.39,1.32,4.52.8,7.49-1.59,8.89-.8-7.49-.38-13.22,1.25-17.21-.83-.45-2.12-.08-2.2,2.05-.76-2.59-.23-5.55,2.05-9.73-1.21-1.75-1.93.57-2.78.11,2.48-15.46,3.43-24.16,3.24-24.81,1.74-1.21,2.85-2.24,2.66-2.88-1.03-1.1-1.87-1.56-2.51-1.37-.65.19-.45.84-.26,1.49.37,1.29-.08,2.12-.91,1.67-2.9-2.66-.15-7.67,2.35-6.3-.11-2.78,1.44-4.63,3.19-5.85-.83-.45-1.41-2.39-1.33-4.52-.83-.45-1.48-.27-.91,1.68-.07,2.13-.54,2.96-1.18,3.15-1.28.38-2.12-.08-2.5-1.37-.46.84-1.52,6.76-2.89,9.27-.68-4.71-.52-8.96.46-12.76,2.39-1.41,1.22-10.18,3.61-11.58l.76,2.58c.65-.19,1.1-1.03.53-2.96-.65.19-1.48-.26-1.87-1.56-.83-.45-1.48-.27-2.58.76-.76-2.58-.04-4.9,2.09-4.82l.26-1.49c.46-.83.26-1.48.72-2.32-3.53-2.47,1.87-10.37-.1-14.7,1.93-.57,2.58-.76,3.04-1.59l-.76-2.58c.64-.19.26-1.48-.31-3.42l1.94-.57c-2.24-2.85-1.89-6.46,1.41-9.53-3.26-3.95,1.29-12.31-.3-15.35,3.98-10.3,7.68-47.86,11.03-57.96-.19-.65-1.22-1.76-1.41-2.4,1.91-5.47,2.06-21.65,5.64-26.2.98-3.8,2.02-14.63,3.72-32.67,1.72-18.04,3.66-30.54,5.45-38.79,3.68-1.79,7.56-2.92,12.26-3.6.57,1.94,6.96,2.17,6.88,4.3,2.59-.76,7.41,1.33,9.98.57,1.22,1.75,3.92,3.76,9.39,5.67l.95,3.23c4.18,2.28,13.14,1.75,14.85,7.57-2.28,4.18-5.05,16.22-8.33,36.12-.65.19-2.13-.07-2.78.11-.45.84-.26,1.49.57,1.94s.83.45,1.02,1.1c-1.17,3.15-2.78,23.97-5.21,32.4-.56-1.94.62-5.09.43-5.74-2.66,2.89-3.24,12.87-3.39,17.13,3.23-.95,1.14-8.05,2.51-10.56,1.59,3.04.35,8.32-2.09,16.75.72-2.32.15-4.25-.68-4.71-1.83,3.34-.84,11.47-2.66,14.81,2.89,2.66,2.8,4.79,1.06,6-.38-1.29-.57-1.94-.11-2.77-4.37,9-7.91,42.31-9.88,49.91-.01,11.92-6.36,40.45-6.36,52.38-2.48,3.53-3.57,16.49-4.75,19.63.92-13.6,3.72-32.66,7.8-57.01,3.42-24.15,6.35-40.45,7.29-49.15-.19-.64-.82-.46-1.67-.91-.64.19-1.48-.27-1.02-1.11-.91,1.68-1.18,3.16-.98,3.81l.65-.19c.45-.83.91-1.67,1.74-1.21.57,1.94-1.63,3.99-1.07,5.93-.65.19-.83-.46-1.21-1.75l-.38-1.29c-.46.84-.91,1.67-1.17,3.15,2.32.72,2.69,2.01,2.23,2.85l-.83-.46-.84-.45-.26,1.48c-1.37,2.51-1.18,3.16.76,2.58-2.28,4.18-2.62,7.79-1.48,11.66-3.23.95-3.77,3.91-.96,8.7-4.13,2.62-4.93,7.06-3.04,13.52-3.35,10.1-4.75,19.64-4.23,28.6l-3.3,3.07c-1.41-2.4,3.08-8.62.19-11.28,4.52-1.33,1.59-8.89-.34-8.32l-.83-.46c-.46.84-.26,1.49.76,2.58.83.46,1.02,1.1,1.21,1.75-5.17,1.52-1.52,6.76-2.89,9.27-.64.19-.83-.46-1.67-.92-.83-.45-1.29.38-1.56,1.87-.65.19-.83-.46-1.21-1.74l-.38-1.29c-1.17,3.15-3.05,13.52-3.12,15.65,4.52-1.33,1.78-8.24,3.16-10.75l.83.46c1.48.27,2.13.08,1.74-1.21.65-.19.84.45,1.41,2.39-1.93.57-3.23.95-3.68,1.79,2.51,1.37,1.14,3.87,2.55,6.27l-2.59.76c2.89,2.66,2.8,4.79-.05,7.03-.11-2.78-1.58-3.04-4.43-.8,2.12.08,1.71,5.81,4.28,5.05-1.82,3.34-.11,9.15-5.93,10.86,1.26-5.28,3.83-6.04,1.94-12.5-3.2,5.85-3.8,10.94-1.44,16.56-1.41-2.4-2.86,2.24-3.5,2.43,1.21,1.75,1.59,3.04,1.52,5.17-1.94.57-2.85,2.25-4.79,2.81.2.65,2.5,1.37,2.43,3.5l-3.23.95c1.48.27,1.86,1.56,1.52,5.17-.65.19-1.29.38-.83-.46.46-.83.08-2.12-.11-2.77-3.04,1.59-2.92,4.37.15,7.67-1.94.57-3.42.31-4.26-.15-.46.83-.26,1.48,1.59,3.04.83.45,1.48.27,2.13.07-.46.84-2.17,6.95-5.51,17.06-1.94.57-.95-3.23-1.14-3.88-.64.19-.34,3.61-2.47,3.53l-.37-1.29q.46-.83.27-1.48c-1.83,3.34-3.28,7.98-3.69,13.71-1.94.57-1.79-3.69-3.8-.99-.57-1.94,1.89-5.46.68-7.21-2.13-.07-2.66,2.89-3.31,3.08-.3-3.41,1.11-12.95,2.09-16.75l.65-.19ZM335.35,560c.19.64-.46.83-1.1,1.02-.2-.64.45-.83,1.1-1.02ZM328.75,518.44l1.02,1.11-1.1,1.02-.38-1.29.46-.84ZM337.33,564.33l1.28-.38.38,1.29-1.29.38-.37-1.29ZM334.63,526.53c-2.12-.08-2.65,2.88-.53,2.96-.2-.65,1.74-1.22.53-2.96ZM333.58,508.61c.19.64-.92,1.67-3.51,2.43l.27-1.48c.26-1.48.07-2.13-.11-2.78,1.75-1.22,2.7,2.02,3.35,1.83ZM328.27,490.52c.27-1.48.54-2.96.61-5.09,1.74-1.21,1.41,2.39,1.59,3.04-.65.19-.07,2.13-2.2,2.05ZM339.76,543.97c.95,3.23-2.81,7.13.15,7.67,2.28-4.18,2.36-6.31-.15-7.67ZM335.97,519.13c-1.29.38-1.75,1.22-2.02,2.69,1.74-1.21,2.2-2.04,2.02-2.69ZM329.6,483.12c-.57-1.94.99-3.8.42-5.73,2.5,1.37,1.52,5.16-.42,5.73ZM342.39,536.18l-1.67-.91c.19.65-.07,2.13.11,2.78,1.48.27,1.94-.57,1.56-1.87ZM333.25,488.36c-.72,2.32-.53,2.97.76,2.59l-.76-2.59ZM340.79,521.22c-.57-1.94-1.4-2.4-1.86-1.56l-.46.83.39,1.3,1.93-.57ZM334.99,487.14l2.59-.76c-.57-1.94-1.41-2.4-3.35-1.82l.76,2.58ZM347.55,546.59c.45-.83,1.1-1.03,2.13.07l.45-.83c.46-.83.26-1.48-.56-1.94-.46.83-1.11,1.02-.83-.45.07-2.13-.76-2.58-1.87-1.56-.08,2.12-.87,6.57-.68,7.21.65-.19,1.1-1.03,1.37-2.51ZM337.91,482.77c-.19-.64-.38-1.29.07-2.13-1.93.57-2.58.76-2.39,1.41.65-.19.83.46,1.02,1.1l1.29-.38ZM343.57,509.17c-1.29.38-1.74,1.22-1.56,1.87,1.29-.38,1.74-1.22,1.56-1.87ZM336.97,479.55c.83.45,1.48.27,2.13.07-1.22-1.75-.5-4.06-.68-4.71-1.74,1.21-2.66,2.88-1.44,4.63ZM348.88,539.18c-.2-.64-1.48-.26-1.29.38l1.29-.38ZM348.5,537.9q.65-.19,1.11-1.03l-1.68-.91.57,1.94ZM342.77,501.69l1.29-.38-.38-1.29-1.29.38.38,1.29ZM338.34,465.11l-.83-.45c-1.74,1.21,1.59,3.04,1.68.91l-.84-.45ZM338.76,471.3q.65-.19,1.1-1.03l-1.02-1.1q.19.64-.46.83l.38,1.29ZM349.07,527.9c.57,1.94.76,2.58,1.41,2.4-.57-1.94-.76-2.58-1.41-2.4ZM337.47,459.76c.64-.19,1.28-.38,1.1-1.03-.65.19-1.29.38-1.1,1.03ZM346.27,487.34c-2.12-.09-2.65,2.88-.53,2.96-.19-.64,1.74-1.21.53-2.96ZM342.86,451.86c-.82-.46-1.48-.27-1.93.57l-.65.19.8-4.44c-1.93.57-2.85,2.24-2.55,5.65,1.22,1.75,4.45.8,4.33-1.97ZM340.54,463.06q.65-.19,1.11-1.03l-1.03-1.1q.19.65-.45.84l.37,1.29ZM344.49,471.72c-1.93.57-2.39,1.41-1.56,1.87,1.29-.38,1.75-1.22,1.56-1.87ZM341.68,443.08c-1.29.38-1.74,1.22-2.02,2.7.2.65.38,1.29-.08,2.12,1.29-.38,2.2-2.04,2.09-4.82ZM348.25,479.74c-.83-.45-1.94.57-2.01,2.7.64-.19,1.36-2.51,2.01-2.7ZM356.36,538.39l1.29-.38.38,1.29-1.29.38-.38-1.29ZM343.96,438.9l1.29-.38-.37-1.29-1.29.38.37,1.29ZM357.21,514.99c.65-.19,1.29-.38,1.1-1.02-.65.19-1.29.38-1.1,1.02ZM360.2,532.35l1.29-.38.38,1.29-1.29.37-.38-1.29ZM362.67,528.81c-.46.84-.92,1.67-.72,2.32-2.51-1.37.41-5.74.22-6.38.83.45.57,1.94.5,4.06ZM345.07,425.95c.65-.19,1.29-.38,1.11-1.02-.65.19-1.29.38-1.11,1.02ZM344.08,417.82c.19.64,1.22,1.75,2.05,2.2.45-.83-.11-2.77-2.05-2.2ZM364.39,510.77c2.5,1.37,1.06,6.01-1.53,6.77.53-2.96.61-5.1.42-5.74.65-.19,1.29-.38,1.11-1.03ZM365.75,520.19c-.19-.65,1.11-1.03,1.29-.38l-1.29.38ZM366.1,504.66l.65-.19c.19.65-2.02,2.7-.61,5.09-2.13-.07-2.32-.72-1.59-3.04.46-.83.26-1.48.08-2.12q.65-.19,1.48.26ZM351.41,421.28c.83.46,1.29-.38.92-1.67l.45-.84c-.83-.45-1.29.38-1.75,1.22l.38,1.29ZM348,397.73c.65-.19,1.29-.38,1.1-1.02-.64.19-1.28.38-1.1,1.02ZM366.22,483.58c-1.29.38-1.75,1.22-1.18,3.16,1.29-.38,1.74-1.22,1.18-3.16ZM368.37,500.48q-.19-.65.46-.83l-.46.83ZM369.13,491.14c.19.65-.45.83-1.1,1.03-.19-.65.45-.84,1.1-1.03ZM371.88,462.27c-.57-1.94.72-2.32.15-4.26-3.22.95-5.96,5.96-2.81,7.15.07-2.13,1.18-3.16,2.66-2.89ZM370.25,466.26l1.29-.38-.38-1.29-1.29.38.38,1.29ZM375.41,476.67l.83.45c.2.65-1.63,3.99-1.06,5.93-2.5-1.37.41-5.74-1.71-5.82.45-.83,1.1-1.02,1.93-.57ZM370.89,454.14c-.07,2.13.12,2.77,1.41,2.4-.56-1.94-.76-2.58-1.41-2.4ZM373.32,445.71l-.83-.46-1.29.38c1.22,1.75.5,4.07.69,4.72,1.74-1.21.8-4.45,1.44-4.64ZM377.93,454.18c-.84-.45-1.03-1.1-2.06-2.2l-1.22-1.74c.2.65-1.56,1.86-.34,3.61.65-.19,1.86,1.56,3.62.34ZM375.53,443.66c-.45.83,2.51,1.36,2.96.53-.64.19-1.21-1.75-2.96-.53ZM377.05,448.83c.65-.19,1.29-.38,1.11-1.02-.65.19-1.29.38-1.11,1.02ZM380.05,442.33c-3.34-1.83.12-9.16-2.39-10.52-.6,5.08-.95,8.69-1.02,10.82,1.94-.57,2.58-.76,3.41-.3ZM376.48,423.04c.83.45,1.29-.38,1.75-1.22l-.38-1.29c-.83-.45-1.29.38-1.11,1.02l-.26,1.49ZM378.16,412.01l1.29-.37-.37-1.29-1.29.38.38,1.28ZM380.51,417.65l1.29-.38-.38-1.29-1.29.38.38,1.29ZM381.57,411.71l1.29-.38q-.19-.65.46-.83l-.38-1.29-1.28.38q.19.64-.46.83l.38,1.29ZM390.93,388.62c-1.94.57-2.21,2.05-2.29,4.17-.26,1.49.57,1.94,1.87,1.56-.57-1.94.61-5.09.42-5.73ZM393.24,413.2l.26-1.48c-.19-.64-.38-1.29.27-1.49.56,1.94.3,3.43-.53,2.97ZM392.64,394.43c-.37-1.29-1.22-1.75-1.68-.91.37,1.29.57,1.94,1.22,1.75q-.19-.65.46-.84ZM393.66,383.61c-1.74,1.21-3.04,1.59-3.87,1.14.76,2.58,2.81,4.78,2.92,7.56.99-3.8.87-6.57.95-8.69ZM395.29,403.47l-.56-1.94c1.93-.57,2.23,2.85.11,2.77l.45-.83ZM392.14,378.44c.2.65-1.74,1.22-.52,2.97.83.45,2.47-3.53.52-2.97ZM396.17,396.91c.19.65-.08,2.12.11,2.77l-.76-2.58.65-.19ZM393.47,382.97l1.29-.38-.38-1.29-1.28.38.38,1.29ZM392.1,373.54c.65-.19,1.29-.38,1.11-1.03-.65.19-1.29.38-1.11,1.03ZM396.17,396.91c-.57-1.94-.12-2.77.72-2.32l.37,1.29q-.65.19-.46.84l-.64.19ZM395.45,375.37c-1.94.57-2.2,2.05-1.44,4.64.65-.19.91-1.67,1.44-4.64ZM398.34,389.95q-.66.19-.46.84c-.65.19-.83-.46-1.22-1.75.46-.83,1.29-.38,1.68.91ZM395.07,374.07q.65-.19,1.11-1.02l-1.68-.91.57,1.94ZM395.19,364.92c-2.13-.07-.53,2.96-1.18,3.16,2.13.07.53-2.96,1.18-3.16ZM395.75,366.86c.65-.19,1.29-.38,1.11-1.03-.65.19-1.29.38-1.11,1.03ZM395.6,359.19q.65-.19.83.45l1.49.27c-.19-.65.61-5.09.42-5.73l-2.75,5.01ZM398.6,376.54l1.29-.38.38,1.29-1.29.38-.38-1.29ZM399.51,374.87c-.19-.64,1.18-3.15-.04-4.9,1.49.27,1.22,1.75.04,4.9ZM396.94,351.78q.65-.19,1.1-1.03l-1.67-.91.57,1.94ZM399.37,343.35l-.65.19q-.83-.45-1.48-.27c1.22,1.75-.15,4.26.69,4.72-.19-.64,2.66-2.89,1.44-4.64ZM403.55,333.7c.76,2.58-1.71,6.12-1.14,8.05,3.23-.95,2.81-7.13,1.14-8.05ZM405.45,328.23l.45-.83c-1.28.38-1.74,1.21-1.37,2.51.84.45,1.29-.38.92-1.68ZM405.68,321.85c1.22,1.75-1.63,3.99.5,4.06,1.36-2.51,1.63-3.98-.5-4.06ZM408.34,307.04c.65-.19,1.29-.38,1.11-1.03-.65.19-1.29.38-1.11,1.03ZM408.88,304.07l1.28-.38-.38-1.29-1.29.38.38,1.29Z"/>
  <path class="cls-3" d="M476.99,547.43c-2.91-.75-.8,9.12-6.11,6.82,4.69-13.4,7.84-24.4,9.43-33.01-.65.14-1.17.94-2.21,2.54-.89,2.26-2.06,3.2-2.86,2.68.23-2.11,1.26-3.71,2.58-4-1.19-8.69,6.52-24.11,6.19-28.87-.51.8-1.64,5.18-4.13,6.4-1.22-2.49,2.63-10.2-.71-12.92,4.33-2.31,4.88-9.32,6.96-12.51.23-2.12-.7-3.29-1.79-5.12,1.18-.94,1.4-3.05.7-6.34,1.84-1.08,2.07-3.2,2.73-3.34-.61-6.06,3.47-15.89,3.13-20.64,4.37-8.51,12.49-41.24,15.68-48.8,1.68-11.38,3.94-20.12,6.89-25.58l-.84-3.95c3.47-6.25,10.56-37.37,15.21-44.57.28-8.32,5.3-26.61,6-32.96,5.36-3.9,6.52-14.48,7.88-20.96-7.75,2.35-13.02,3.48-15.79,3.39-6.53,4.85-17.99,5.93-23.5,9.18-.14-.65-.28-1.31-.94-1.17l-1.55,2.39c-1.98.42-19.75,4.24-24.96,8.81-10.3.14-42.07,12.48-50.77,13.66-1.36-3.15-3.76-4.7-7.33-5.32-5.22-14.71-8.53-23.63-8.72-27.73-.14-.65-2.39-1.55-2.53-2.2-.43-1.98.19-5.55-1.04-8.04,2.02-6.63,5.12-11.43,8.13-13.45l9.21-1.97c9.83,4.08,22.75,3.37,43.39-3.13,10.39-2.92,16.83-4.99,18.8-5.42,17.34-5.79,51.23-17.88,75.02-25.74,11.7-3.2,22.76-6.27,33.41-7.87,3.53-2.82,10.11-4.24,18.81-5.41,6.16-3.4,11.42-4.53,15.65-4.05,1.4-3.06,5.12-1.79,7.09-2.22.8.52-.23,2.12-.09,2.78.66-.14,1.92-3.86,3.15-1.36.23-2.12,2.07-3.2,4.19-2.97.14.66-.38,1.46-.6,3.58,1.83-1.09,7.08-2.22,7.18-4.99,1.98-.43,2.31,4.33,3.11,4.84,2.63-.57,10.02-1.46,12.51-2.68l.28,1.31c1.09,1.83,1.88,2.35,3.72,1.27l.42,1.98c.43,1.97,1.09,1.83,1.74,1.69,1.84-1.09-.7-3.29-.19-4.09,3.29-.7,4.61-.99,5.13-1.79,2.12.23,4.88.33,8.18-.38,1.09,1.83-.6,3.57-.47,4.23,2.5-1.22,3.67-2.16,4.47-1.64.23-2.11-1.36-3.15-1.5-3.81,2.11.24,3.05,1.42,3.76,4.7l-3.95.85c.94,1.18,3.71,1.27,7,.56,1.98-.43.19-5.55,2.95-5.46.15.66-.23,2.11-.46,4.24.15.65,4.75-.34,4.89.32.65-.14.37-1.45-.19-4.09,1.84-1.09,2.4,1.55,1.89,2.35l.28,1.31c2.21-2.54,9.12.8,11.74.23,1.09,1.83-2.35,1.88-2.2,2.54.8.52,2.49-1.22,4.6-.99,1.98-.42-.43-1.97.23-2.11,1.84-1.09,3.81-1.51,5.92-1.28.14.66.28,1.31,1.23,2.49.57,2.63,1.87,2.35,1.46.38-.29-1.32.23-2.12,1.03-1.6-.09,2.77,3.53,6.81,4.09,9.45-2.49,1.22-6.3,2.73-8.26,3.15,1.08,1.83,1.36,3.15,1.13,5.26-.66.14-2.17-3.66-4.15-3.24-1.73,7.95-22.98,8.38-28.2,12.94-.52.8-1.32.28-2.26-.89-.14-.66-.28-1.32-1.09-1.83-7.56,6.44-31.53,10.22-38.86,14.55-.52.8-1.32.28-2.26-.9-.81-.51-.95-1.17-1.61-1.03-1.31.28-1.83,1.08-1.4,3.06-5.92,1.27-9.07,2.63-9.44,4.1-4.81-3.1-11.38-1.69-18.95,4.76-1.36-3.16-15.51,4.71-18.8,5.41-3.71,8.37-10.51,40.8-12.91,48.89l.84,3.95c-4.92,15.52-9.43,33.01-13.36,53.13-.8-.52-1.69,1.74-2.35,1.88l.7,3.29c-4.23,9.17-6.24,15.79-5.91,20.55-6.72,20.03-11.22,37.52-14.46,51.3-2.07,3.19-5.03,18.28-8.93,22.57.57,2.63-.19,5.55-1.74,7.95-2.57,13.64-16,53.69-17.97,63.76-.51.8-1.69,1.74-2.21,2.54l-1.54,2.4c1.5,3.8,1.27,5.92-1.88,7.28.9,7.39-7.51,19.52-6.48,27.55-1.97.42-3.1,4.8-5.59,6.02l.8.52c1.46.38,1.6,1.04.42,1.98-.65.14-1.45-.38-1.74-1.7-1.4,3.06-1.27,13.35-3.19,17.21-5.68,8.79-10.19,16.65-13.52,23.56l-3.96.85c-.05-3.43-1.13-5.27-2.87-6.96-.66.14-2.06,3.2-4.84,3.1.7-6.34.51-10.43-.71-12.93,3-11.65,4.22-18.8,3.51-22.09,4.93-5.88,5.26-10.77.98-14.67-.05-3.43.04-6.2.42-7.66ZM470.37,564.69l-.52.79-.14-.65c-.14-.66-.29-1.32-.94-1.17.65-.14,1.46.38,1.6,1.04ZM471.58,557.54c.15.65.29,1.31-.23,2.11l-.14-.66c-.15-.66-.29-1.31-1.09-1.83,1.18-.94,1.98-.43,1.46.38ZM475.01,528.58c.05,3.43-3.43,9.68-3.38,13.11-2.54-2.21,1.83-10.72,1.41-12.69l1.98-.42ZM474.27,560.4c-.7-3.29.33-4.89,2.3-5.31-.61,3.57-1.64,5.18-2.3,5.31ZM475.33,514.06l.28,1.31-1.6-1.03,1.32-.28ZM479.58,553.07c.37-1.46.23-2.11-1.74-1.69l1.74,1.69ZM476.88,511.65c-2.78-.09-1.42-6.58,1.22-7.14.43,1.97.19,4.09-1.22,7.14ZM479.89,519.27c2.63-.57,2.35-1.88,3.61-5.59l-.05-3.44c-1.32.28-2.64.57-3.16,1.37.71,3.29-.84,5.69-.41,7.66ZM482.37,508.41l1.46.37c-.28-1.31-1.08-1.83-1.74-1.69l.29,1.32ZM486.12,484.19c.66-.14,1.32-.28.81.52l1.32-.28c-.29-1.31-.43-1.97-1.09-1.83l-1.04,1.6ZM648.12,187.1c-.66.14-1.83,1.09-2.35,1.88,2.12.24,3.44-.05,2.35-1.88ZM653.24,185.32c.23-2.11,4.7-3.76,7.75-2.36.43,1.98-4.7,3.76-7.75,2.36ZM684.6,190.28c-.15-.66-.81-.52-1.32.28l1.32-.28ZM691.18,188.87c-1.6-1.04-1.74-1.69-1.22-2.49,1.97-.43,3.05,1.41,1.22,2.49ZM699.83,193.9q-.15-.66.37-1.46c.51-.8-.28-1.32-1.6-1.04.8.52.94,1.18,1.08,1.83l.15.66ZM707.96,190.08l-1.31.29c.28,1.31,1.08,1.83,2.39,1.55.52-.8-.28-1.31-1.09-1.83ZM722.54,193.84l-.52.8c.8.52,4.08-.19,3.95-.85l-3.43.05ZM729.21,189.65c.15.66-.51.8-1.17.94l1.17-.94Z"/>
  <path class="cls-3" d="M682.47,498.06c-2.83-1.02-1.67,9-6.73,6.2,5.95-12.89,10.14-23.54,12.54-31.95-.66.08-1.25.82-2.44,2.31-1.1,2.16-2.36,2.99-3.1,2.4.43-2.08,1.61-3.57,2.95-3.74-.35-8.76,8.8-23.38,8.92-28.14-.58.74-2.13,4.99-4.73,5.97-.98-2.6,3.59-9.91.53-12.94,4.53-1.88,5.75-8.81,8.12-11.79.43-2.08-.39-3.34-1.29-5.27,1.26-.82,1.69-2.91,1.3-6.25,1.93-.9,2.37-2.98,3.04-3.06-.03-6.09,4.97-15.49,5.09-20.24,5.17-8.06,16.37-39.85,20.28-47.08,2.76-11.17,5.85-19.65,9.31-24.8l-.46-4.02c4.06-5.89,14.08-36.19,19.4-42.91,1.08-8.25,7.82-25.98,9.13-32.23,5.71-3.37,7.88-13.79,9.85-20.12-7.94,1.6-13.29,2.23-16.04,1.87-6.96,4.2-18.48,4.18-24.26,6.89-.08-.66-.16-1.33-.83-1.26l-1.77,2.24c-2.01.23-20.06,2.33-25.68,6.38-10.26-.84-43.07,8.39-51.84,8.73-1.06-3.26-3.29-5.04-6.79-5.99-3.79-15.14-6.23-24.34-6.02-28.44-.08-.66-2.24-1.77-2.32-2.44-.24-2.01.72-5.5-.26-8.1,2.64-6.41,6.19-10.89,9.38-12.61l9.36-1.09c9.39,5,22.33,5.54,43.49,1.04,10.62-1.91,17.23-3.35,19.23-3.59,17.82-4.1,52.72-12.9,77.14-18.45,11.95-2.07,23.25-4.06,34.01-4.64,3.78-2.47,10.47-3.24,19.24-3.59,6.45-2.79,11.8-3.41,15.97-2.53,1.69-2.91,5.26-1.3,7.27-1.53.75.6-.43,2.09-.36,2.76.67-.08,2.28-3.66,3.26-1.06.44-2.09,2.37-2.99,4.45-2.56.08.67-.52,1.42-.95,3.5,1.93-.9,7.27-1.52,7.63-4.28,2.01-.23,1.89,4.53,2.63,5.12,2.68-.31,10.11-.5,12.71-1.48l.15,1.33c.91,1.92,1.65,2.52,3.58,1.61l.23,2.01c.24,2,.91,1.93,1.58,1.85,1.92-.9-.39-3.34.2-4.09,3.34-.39,4.68-.55,5.27-1.29,2.08.43,4.83.79,8.18.4.91,1.92-.94,3.5-.87,4.16,2.59-.98,3.86-1.8,4.6-1.21.43-2.08-1.06-3.26-1.13-3.93,2.08.44,2.91,1.7,3.29,5.04l-4.02.47c.83,1.27,3.58,1.62,6.92,1.23,2.01-.23.72-5.5,3.46-5.15.08.67-.43,2.08-.87,4.17.08.66,4.76.12,4.84.79.67-.08.52-1.41.2-4.09,1.93-.9,2.24,1.77,1.66,2.52l.15,1.33c2.44-2.32,9,1.66,11.67,1.35.91,1.93-2.52,1.65-2.43,2.32.75.59,2.59-.98,4.68-.54,2.01-.24-.24-2,.43-2.08,1.93-.9,3.93-1.14,6.02-.7.08.67.15,1.33.98,2.59.31,2.67,1.65,2.52,1.41.51-.15-1.34.43-2.08,1.18-1.5-.36,2.75,2.87,7.12,3.18,9.8-2.6.98-6.54,2.11-8.54,2.34.9,1.93,1.06,3.27.62,5.35-.67.08-1.81-3.85-3.81-3.62-2.49,7.74-23.68,6.14-29.31,10.18-.6.75-1.35.16-2.17-1.1-.08-.67-.15-1.34-.91-1.93-8.14,5.69-32.36,7.15-40.08,10.76-.59.75-1.33.16-2.16-1.11-.75-.58-.83-1.25-1.5-1.18-1.33.16-1.92.91-1.69,2.91-6.02.7-9.28,1.76-9.79,3.17-4.49-3.55-11.17-2.77-19.32,2.92-1.06-3.27-15.89,3.2-19.23,3.59-4.49,7.98-14.37,39.62-17.53,47.44l.46,4.01c-6.39,14.97-12.54,31.95-18.38,51.6-.75-.59-1.85,1.57-2.52,1.65l.39,3.34c-5.08,8.73-7.73,15.13-7.85,19.89-8.6,19.29-14.76,36.27-19.3,49.68-2.37,2.98-6.75,17.72-11.05,21.6.31,2.67-.72,5.51-2.49,7.75-3.86,13.32-21.06,51.91-23.99,61.74-.58.74-1.85,1.57-2.44,2.32l-1.76,2.24c1.13,3.93.7,6.01-2.57,7.07.19,7.43-9.35,18.7-9.08,26.8-2,.24-3.55,4.48-6.15,5.46l.75.59c1.41.51,1.5,1.18.23,2.01-.67.08-1.41-.51-1.57-1.85-1.69,2.91-2.54,13.17-4.82,16.82-6.5,8.21-11.73,15.59-15.71,22.16l-4.02.47c.28-3.42-.62-5.35-2.19-7.2-.67.08-2.36,2.98-5.11,2.62,1.3-6.24,1.51-10.34.53-12.93,4.1-11.32,6-18.32,5.61-21.66,5.47-5.38,6.26-10.21,2.38-14.51.28-3.41.63-6.17,1.15-7.58ZM674.23,514.61l-.59.75-.08-.66c-.08-.67-.16-1.34-.82-1.26.66-.08,1.41.51,1.49,1.18ZM676.12,507.61c.08.66.16,1.33-.43,2.08l-.08-.67c-.08-.67-.15-1.33-.91-1.93,1.26-.83,2.01-.23,1.41.51ZM682.3,479.11c-.28,3.42-4.34,9.31-4.62,12.73-2.32-2.44,2.85-10.49,2.61-12.5l2.01-.24ZM678.52,510.72c-.39-3.34.79-4.84,2.8-5.07-.95,3.5-2.13,4.99-2.8,5.07ZM684.01,464.68l.15,1.33-1.49-1.18,1.34-.16ZM684.51,503.92c.51-1.42.43-2.08-1.58-1.85l1.58,1.85ZM685.78,462.44c-2.75-.36-.77-6.69,1.9-7,.24,2.01-.2,4.09-1.9,7ZM688.06,470.31c2.67-.31,2.52-1.65,4.13-5.23l.28-3.42c-1.34.16-2.68.31-3.27,1.06.4,3.34-1.38,5.58-1.14,7.59ZM691.57,459.73l1.41.51c-.15-1.33-.9-1.92-1.58-1.85l.16,1.34ZM697.62,435.99c.66-.08,1.33-.16.75.59l1.34-.16c-.16-1.33-.24-2-.91-1.92l-1.18,1.49ZM887.29,155.76c-.67.08-1.92.9-2.52,1.65,2.08.43,3.42.28,2.52-1.65ZM892.56,154.48c.43-2.08,5.04-3.3,7.94-1.6.24,2-5.04,3.3-7.94,1.6ZM923.3,162.42c-.08-.67-.75-.59-1.34.15l1.34-.15ZM929.99,161.64c-1.49-1.18-1.57-1.85-.98-2.6,2-.23,2.91,1.69.98,2.6ZM938.12,167.47q-.08-.67.52-1.41c.58-.75-.16-1.34-1.5-1.18.75.59.82,1.26.9,1.92l.08.67ZM946.57,164.46l-1.33.16c.15,1.33.91,1.92,2.24,1.77.59-.75-.15-1.33-.91-1.92ZM960.73,169.58l-.59.75c.75.59,4.08.2,4.01-.47l-3.41-.28ZM967.76,166.05c.08.67-.58.75-1.25.83l1.25-.83Z"/>
  <path class="cls-3" d="M1082.16,289.48c.7.6,3.35,1.04,4.02.98.05.65-1.84,1.46-1.04,3.36-.65.05-2.11-1.79-4.02-.98-.64.05-.59.7-.43,2.66-5.87.49-10.97,2.22-15.25,5.85.7.61,2.06,1.14,3.36,1.04,1.74-2.77,7.54-3.9,9.99-6.07l.15,1.95c.65-.06,4.39-2.33,6.99-2.54-5.58,3.73-15.63,9.16-30.12,16.26-14.49,7.1-24.52,12.52-30.12,16.26.81,1.9,4.39-2.33,4.56-.38-1.79,2.11-7.54,3.9-8.03,5.91-2.12-1.8,2.99-3.53,2.93-4.18-2.66-.44-8.09,5.26-10.7,5.47.82,1.9.27,3.26-1.63,4.07-.16-1.96,1.09-2.71.38-3.31-1.95.16-1.84,1.46-1.04,3.36-1.9.81-7.43,5.2-9.98,6.07-.16-1.95,3.04-2.88,2.98-3.52-2.82-2.39-3.69,2.93-6.94,3.2.05.64,1.41,1.19.92,3.2l-1.96.16c-4.23-3.58-3.74,2.28-8.29,2.66,2.75,1.74,5.7-2.44,8.29-2.66-3.03,2.88-11.12,8.14-14.22,10.36-.76-1.25-.81-1.9-.22-2.6-1.95.16-1.84,1.46-1.04,3.36-3.14,1.57-5.58,3.74-7.32,6.5-.64.06-1.3.11-2.01-.48-.7-.6-.65.05-1.24.76-.7-.6-.65.05-.6.7.71.6.65-.05.6-.7,1.41,1.2.81,1.9-1.09,2.72-1.9.81-2.44,2.17-3.04,2.87-.65.06-1.37-.54-1.42-1.19-.65.06-1.24.76-1.08,2.71-1.96.16-2.71-1.09-3.36-1.03,2.21,3.09,1.08,5.15-4.72,6.29l-.76-1.25c-.65.05-.6.7-.55,1.36-1.3.11-1.95.16-2.55.86.05.65.7.6,2.01.49.05.65-1.24.76-3.85.98l.05.65c.1,1.3.15,1.95-.44,2.65-3.3-.38-7.44,5.21-9.45,4.72-2.38,2.82-9.5,11.93-13.02,8.94.65-.06,1.84-1.46,2.55-.86-.76-1.25-1.41-1.2-2.55.86-.65.05-1.25.76-1.84,1.46.05.65,1.3-.11,1.36.54-.55,1.36-4.89,4.34-12.33,9.54q-.05-.65.54-1.36l.6-.7c-1.36-.54-2.6.22-3.2.91.05.65.76,1.25,2.06,1.14-1.79,2.11-3.64,3.58-4.29,3.63-.7-.59-.11-1.3.55-1.35q.59-.71.54-1.36c-1.36-.54-1.96.16-2.44,2.17l-.44,2.66c-1.9.81-.87-2.55-2.76-1.74-1.96.16.22,2.6.27,3.26-1.3.11-1.9.82-1.84,1.46-.65.06-1.52-2.5-2.11-1.79.87,2.55-1.53,5.37-6.03,6.4l-.11-1.3c1.3-.1,1.9-.81,1.85-1.46-.05-.65-.65.05-1.85,1.46-.65.06-.54,1.36.11,1.3.05.65-.6.7-.55,1.36-.65.05-2.5,1.52-4.44,1.68-11.57,10.79-24.7,10.56-39.28.63-2.28-3.75-5.8-6.74-11.93-9.51-1.02-4.5-7.16-7.27-7.32-9.22,9.63-34.23,24.78-64.99,50.15-107.07,12.05-20.66,20.64-35.79,25.74-45.4l1.2-1.41c.6-.7,1.19-1.41,1.9-.81,5.49-12.91,15.21-30.1,29.17-51.58,13.96-21.47,23.19-36.66,28.35-45.61,4.39-2.33,6.84-4.5,7.27-7.15,1.9-.81,4.51-1.03,9.06-1.4.05.65,1.42,1.19.93,3.2,9.22.55,16.8,13.03,22.44,17.81.05.65-.59.7-1.19,1.41l-1.25.76c.7.6.76,1.25,1.36.55.6-.71,1.25-.76,1.97-.16.15,1.95-2.89,4.83-4.08,6.23-3.91,8.19-16.02,28.21-20.42,38.4-.65.05-2.44,2.17-3.1,2.22l.22,2.6c-4.29,3.64-7.17,8.46-8.63,14.48-.7-.6-1.9.81-2.56.86-2.66,7.43-7.87,15.73-14.44,23.49-2.45,10.04-15.54,26.19-18.14,34.27-2.34,3.47-16.08,27.55-41.22,72.24,3.2-.91,9.38-5.36,17.31-12.57,3.2-.92,5.65-3.09,7.99-6.56,30.44-20.22,63.54-40,98.67-59.3.86,2.55,1.9-.81,3.84-.97.16,1.95-4.24,4.28-4.02,6.89l-.76-1.25c-.7-.6-2.06-1.14-2.66-.43-.6.7.1,1.3,2.12,1.79.7.6.76,1.24.81,1.9,1.9-.81,3.15-1.57,3.8-1.62.05.65-.49,2-.44,2.66,3.2-.92,7-2.55,11.94-6.23,0,0,.05.65.76,1.24.06.65.7.6,1.37.54-.22-2.61,2.22-4.77,7.38-5.86.05.65-2.39,2.82-1.53,5.37,1.79-2.11,2.33-3.48,2.83-5.48.7.6,1.96-.16,3.85-.98-.11-1.3-.76-1.25-1.36-.54.59-.71,10.36-1.52,12.58-6.29.16,1.95-.98,4.01-2.88,4.82,2.02.49,2.12,1.79,1.57,3.15,1.9-.81,11.94-6.23,16.45-7.26.7.6-1.85,1.46.27,3.26,3.14-1.58,5.04-2.38,5.75-1.79-1.79,2.12-11.45,4.23-12.98,9.6.66-.06,11.73-8.84,14.06-4.45l1.14-2.06c.49-2,1.74-2.76,3.74-2.28.82,1.9-1.09,2.71-1.04,3.36,3.11-2.22,12.81-3.68,16.01-4.6-.59.7-5.58,3.73-4.66,6.94-.65.05-.7-.6-.87-2.56q-.64.06-1.25.76c-1.84,1.46-3.15,1.57-3.89.32-.6.71-.55,1.36.81,1.9l.7.6-4.57.38c-.64.05.22,2.6-1.73,2.76-.97-3.85-3.63-4.28-6.67-1.42ZM880.75,430.04c.64-.06,1.24-.76.54-1.36-.64.06-1.24.76-1.79,2.12-.05-.65.6-.71,1.25-.76ZM886.99,426.24c-1.3.11-1.9.81-1.84,1.46,1.3-.11,1.9-.81,1.84-1.46ZM895.24,422.94c-2.61.22-3.9.32-3.85.97,1.36.54,2.66.44,3.85-.97ZM900.17,355.67c-.5,2.01-7.07,9.76-6.69,14.32,1.63-4.07,6.95-11.06,6.69-14.32ZM907.06,343.95c-.65.05-1.24.76-1.19,1.42-2.88,4.82-4.62,7.59-5.11,9.59,3.1-2.22,4.78-5.64,5.11-9.59.65-.06,1.24-.76,1.19-1.42l2.33-3.47c-1.36-.54-1.95.16-1.79,2.11-.64.06-.59.71-.54,1.36ZM925.74,308.32c.06.65-1.19,1.41-1.03,3.36-.7-.6-.65.05-.6.7l-.65.06c-2.38,2.82-3.47,5.54-3.91,8.19l-.65.06c.05.65-6.51,8.4-6.73,13.66-3.26.27-2.88,4.83-2.18,5.42.49-2,2.23-4.77,2.18-5.42.49-2,7.11-9.11,7.38-13.72,1.79-2.11,2.78-6.13,4.56-8.25l.6-.7.65-.06c-.06-.65,1.09-2.71,1.03-3.36l.65-.05q-.05-.65.6-.71l-.11-1.3c-.7-.6-1.29.1-1.14,2.06l-.65.06ZM925.53,400.77c-.64.05-1.3.11-2.01-.49l-2.5,1.52c-1.19,1.41-1.74,2.77-2.33,3.47,3.74-2.28,6.24-3.8,6.84-4.5ZM931.01,300.67c-1.96.16-2.56.87-2.39,2.82l2.39-2.82ZM932.69,297.25l1.3-.11-.11-1.3-1.3.11.1,1.3ZM939.05,286.9c-1.96.16-3.15,1.57-3.52,4.88,1.9-.82,3.09-2.23,3.52-4.88ZM933.56,394.85c-.11-1.3-.82-1.9-1.42-1.19.05.65.11,1.3.82,1.9-.05-.65-.11-1.3.6-.71ZM940.62,282.18c-.65.06-1.25.76-.54,1.36,1.3-.11,1.9-.82,2.44-2.17,1.19-1.41,1.14-2.06-.15-1.95-.65.05-.6.7-.5,2l-1.24.76ZM945.41,276.54c-1.3.11-1.91.82-1.85,1.46,1.3-.11,1.9-.81,1.85-1.46ZM948.23,271.07c-2.56.87-4.34,2.98-2.23,4.77-.16-1.95,2.28-4.12,2.23-4.77ZM949.86,267l.65-.06q.65-.06.6-.71c-.65.06-1.3.11-1.25.76ZM956.46,378.55c.05.64-1.24.75-1.3.1l1.3-.1ZM974.13,322.67c-2.01-.49-7.6,3.26-6.78,5.15,1.9-.81,6.3-3.14,6.78-5.15ZM974.39,318.06c-2-.49-3.09,2.22-1.08,2.71-.05-.65,1.79-2.11,1.08-2.71ZM973.15,326.69c1.3-.11,1.9-.81,1.84-1.46l-1.29.1.05.65-.6.7ZM972.26,363.47c1.3-.11,1.9-.82,1.84-1.47,1.3-.11,1.9-.81,1.78-2.11-1.36-.54-1.95.16-1.78,2.11-1.36-.54-2.01-.49-1.84,1.47ZM980.32,318.23c-3.26.27-5.1,1.73-5.55,4.39,3.1-2.22,4.94-3.69,5.55-4.39ZM985.31,315.19c-2.5,1.52-3.75,2.28-3.69,2.93,2.5-1.52,3.74-2.28,3.69-2.93ZM988.83,318.18l-.1-1.3-.7-.6-.65.06c.05.65-2.5,1.52-2.33,3.47.64-.06,1.79-2.12,3.79-1.63ZM985.64,311.24l1.3-.11-.11-1.3-1.3.11.11,1.3ZM990.91,311.45c.59-.7.54-1.36-.83-1.9.88,2.55-3.64,3.58-3.47,5.53,1.95-.16,3.79-1.63,4.3-3.63ZM989.68,344.33c-2.01-.49-3.09,2.22-1.08,2.71-.05-.65,1.79-2.12,1.08-2.71ZM995.29,309.12c-1.3.11-1.9.82-1.84,1.47,1.3-.11,1.9-.82,1.84-1.47ZM994.32,313.14l1.3-.11-.11-1.3-1.3.1.11,1.3ZM996.74,342.44c.44-2.66-2.81-2.39-2.6.21l2.6-.21ZM1000.77,304.08c.05.65-3.08,2.22-3.58,4.23,2.6-.22,5.69-2.44,3.58-4.23ZM1018.73,299.32c-8.19,3.95-14.44,7.75-19.38,11.44,4.56-.38,11.84-7.54,16.39-7.91-.05-.65,3.15-1.57,2.98-3.52ZM1000.2,344.77l1.3-.11.11,1.3-1.3.11-.11-1.3ZM1000.92,337.5l.64-.05q.66-.06.6-.71c-.65.06-1.3.11-1.24.76ZM1005.92,303q-.64.06-.69-.59l-1.31.11c.05.65-2.38,2.82-.38,3.3l2.38-2.82ZM1006.66,335.71c-.1-1.3-.81-1.9-1.41-1.19.05.65.1,1.3.82,1.9-.05-.66-.1-1.3.59-.71ZM1006.96,299.64c.7.6-1.04,3.36.97,3.85.6-.71.5-2.01.33-3.96,1.3-.11,1.9-.81,1.79-2.11-1.36-.54-1.96.16-1.79,2.11l-1.3.11ZM1008.29,339.52l-.1-1.3c-1.79,2.11-1.74,2.76-1.04,3.36-.7-.6-.11-1.3,1.14-2.06ZM1013.37,297.79c.05.65-2.56.87-2.39,2.82,1.95-.16,2.55-.87,2.39-2.82ZM1020.47,296.55c-.1-1.3-.82-1.9-1.46-1.85.05.65-2.45,2.17-2.4,2.82,1.96-.16,3.21-.91,3.86-.97ZM1023.13,296.99c-1.96.16-3.21.92-3.75,2.28,1.96-.16,3.21-.92,3.75-2.28ZM1024.65,299.48l1.3-.11-.11-1.3-1.3.11.11,1.3ZM1027.69,288.74c-2.01-.49-2.06-1.14-.28-3.26.6-.7,1.25-.76,1.9-.81.05.65-1.68,3.42-1.63,4.07ZM1026.61,291.46c1.9-.81,1.95-.16,2.16,2.44-1.95.16-2.65-.43-2.76-1.74l.6-.7ZM1029.91,291.84c1.69-3.42,4.19-4.94,8.15-4.61-.6.71-3.1,2.22-8.15,4.61ZM1034.68,294.06c-.64.06-1.3.11-1.23.76l.59-.7.64-.06ZM1033.42,326.29l-.11-1.3.71.6,1.3-.11c-.54,1.35-1.18,1.41-1.9.81ZM1035.67,282.18c.65-.06,1.36.54.82,1.9l-1.3.11-.11-1.3.6-.7ZM1040.25,321.79c-.54,1.35-1.73,2.76-4.94,3.69.56-1.36,1.74-2.77,4.94-3.69ZM1038.54,293.09l-.6.71c-.65.05-1.25.76-.54,1.36.64-.05,1.25-.76,1.14-2.06ZM1041.2,285.66c-1.24.76-1.9.81-2.5,1.52-.05-.65,1.79-2.12,5.59-3.74-.6.7-1.2,1.41-3.1,2.22ZM1038.96,314.03c-1.9.82.97,3.86,1.41,1.2l1.3-.11-.16-1.95c-.7-.6-1.29.1-1.14,2.06l-1.41-1.2ZM1044.12,312.95l-1.3.1,1.3-.1ZM1044.77,320.76c-.11-1.3.48-2,2.44-2.16-1.2,1.41-1.79,2.11-2.44,2.16ZM1046.14,281.97c1.25-.76,1.96-.16,2.06,1.14l-1.96.16-.1-1.3ZM1046.77,313.38c1.3-.11,1.9-.81,1.74-2.76l-1.96.16.22,2.6ZM1048.09,289.68q.65-.05,1.25-.76l-.76-1.25q.05.65-.59.7l.1,1.31ZM1058.4,287.51c.59-.7-.33-3.9-1.04-4.5-.43,2.66-5.1,1.73-5.58,3.74.65-.05,6.41-1.84,6.62.76ZM1053.55,308.23c3.2-.91,3.8-1.62,1.79-2.11l-1.25.76c-1.23.76-1.84,1.46-1.79,2.11q.66-.05,1.25-.76ZM1062.68,283.88c-.05-.65,1.2-1.41,3.7-2.92.05.65-1.19,1.41-3.7,2.92ZM1065.61,303.31l-2.61.22c.06.65-1.74,2.76.22,2.6-.82-1.9,2.44-2.17,2.39-2.82ZM1066.42,289.48l-1.3.11c.05.65-.59.7-.54,1.35,1.3-.11,1.9-.81,1.84-1.46ZM1069.31,284.64c-1.95.16-3.2.92-3.74,2.28,1.95-.16,3.19-.92,3.74-2.28ZM1068.11,278.19c-.7-.6.55-1.36,2.51-1.52-.6.7-1.84,1.46-2.51,1.52ZM1071.36,293.65c-1.14,2.06-1.09,2.71.22,2.6l-.22-2.6ZM1074.89,280.9c-.59.7-.49,2,.87,2.55.5-2,.45-2.66-.87-2.55ZM1081.9,278.36c-.65.06-1.3.11-1.25.76-1.35-.55-1.41-1.2.5-2.01l1.3-.11c.7.59.1,1.3-.54,1.35ZM1083.9,278.85l1.3-.11.11,1.3-1.3.11-.11-1.3ZM1089.71,277.71c.5-2.01,1.79-2.12,2.51-1.52-.61.7-1.84,1.46-2.51,1.52ZM1092.41,286.67c-.1-1.3-.81-1.9-1.41-1.19.06.65.11,1.3.82,1.9-.06-.65-.11-1.3.59-.71Z"/>
  <path class="cls-3" d="M1293.12,239.11c-.66-.69-4.07,1.25-4.09,1.92l-2.01-.05c5.5-4.57,10.27-7.14,13.69-9.08-.62-2.04.75-3.35.81-5.37,8.19-4.51,17.19-14.38,27.64-28.25-1.33-.71-5.35-1.49-12.08-1.66-.66-.02-1.32-.71-1.3-1.38-24.96,1.39-45.22,3.58-60.77,6.56l-8.15,2.48c-19.6,3.55-37.92,8.48-54.24,14.8-12.19,3.05-21.03,6.21-26.51,10.11,1.92,4.08,5.14,9.55,5.05,13.6-8.29,8.54-31.06,30.19-40.06,40.06.63,2.04,4.03.1,4.09-1.92,18.26-2.9,40.55-5.71,68.22-8.38,18.21-1.56,31.66-.55,41.66,3.07.66.69,1.4-1.99,2.07-1.97.66.02,1.33.71.64,1.37l-.06,2.02c4.05.1,9.41.91,15.45,1.73-.04,1.35-.73,2-2.05,1.3,3.29,2.78,12.03,3.66,15.34,5.77-.75,2.68,3.22,6.14,6.56,6.9,1.18,6.76,2.44,10.16,3.77,10.87-2.08,1.97.51,6.07.46,8.09-2.68-.74-2.72.61-2.8,3.97-42.23-7.12-98.25-1.79-166.66,14.67-.78,4.02-2.19,6.68-2.9,8.01-.02.67.66.69,2.02.05.65.69,1.33.71,1.33.71-2.03.62-2.07,1.97-.79,4.69-12.33,8.44-27.98,14.78-47.6,19-.02.67-.76,3.35-1.45,4-2.01-.05-6.78,1.85-10.13,1.09-.59-3.38-9.87-9-11.78-13.76.06-2.01-2.43-10.16-1.68-13.51-5.23-6.19,1.06-15.45,1.9-22.17,16-20.47,33.32-40.24,50.61-57.98-.68-.02-3.97-2.79-5.97-3.51-1.9-4.77-2.93-17.58-5.47-23.7.8-4.69.18-7.4-1.81-8.13.72-2,6.93-7.91,7.72-12.6,75.02-37.84,144.88-58.3,209.6-62.07.67.01,2.64,2.09,3.31,2.11,3.45-3.28,8.16-3.17,12.79.32.66.01,2.05-1.3,2.74-1.96.68.02,1.33.71,1.32,1.38q.65.7,1.33.71c7.42-.49,18.74,4.51,21.42,4.58.66.69,1.32,1.38,1.28,2.73,15.33,6.44,16.9,23.99,17.84,40.17,3.67,14.91-3.76,16.06-5.94,22.07l-2.01-.05c-2.81,4.64-14.39,9.74-17.17,13.03-6.74.51-15.57,3.65-25.8,8.78-4.67-2.14-15.66,6.34-20.36,6.22.02-.67,5.46-2.56,4.84-5.26-.65-.69-4.12,3.26-6.76,1.18.69-.65,4.11-2.59,4.79-3.24-5.4.53-14.35,8.39-19.07,8.94,2.13-4.66,10.99-8.48,13.07-11.12,2.02.05,3.39-.59,4.09-1.92ZM1354.06,359.81c-4.71-.12-8.11,1.14-9.51,3.12l.09-3.36c-2.03.62-1.48,5.35-3.51,5.97-6.1,1.86-20.87-.52-22.95,2.12-.68.66-1.35-.03-1.33-.71l-.64-1.36c-.69.65-1.41,1.98-1.42,2.66-.02.67-.04,1.34-.72,2-1.37.64-2.67-.74-4.62-3.48-.69.65-1.38,1.31-1.43,3.33-.69.65-1.36.64-2.7-.07-.65-.69-1.34-.03-1.36.64-.69.65-1.35-.03-1.98-1.4-.66-.69-1.31-1.38-1.99-1.39-2.01-.05-1.4,2.65-3.43,2.6,2.09-2.64-1.26-3.39-3.29-2.77-.68.66-.03,1.35.64,1.36q.66.69.65,1.36c-1.31-1.37-7.5,3.86-7.36-2.2-.69.65-1.38,1.31-1.43,3.33-2.65-2.09-2.07,1.96-4.09,1.92.04-1.34-.59-3.38-1.88-5.43-.68-.02,1.23,4.07-.78,4.02-.65-.69-4.71-.12-6.73-.17l1.31,1.38c-.69.65-1.36.64-2.02-.05-4.6-4.15-.82,6.04-5.36-.81q-.68.66-1.36.64c-.69.65-.12,4.71-2.15,5.34-4.74.56-20.93,2.17-27.05,4.03-.66-.02-.68.66-.71,2l-.04,1.34c-2.64-2.08-14.93,5.01-16.84.25-.68.66-.7,1.33-.71,2-.68-.02-5.42,1.21-13.59,4.38-13.51,1.68-40.66,10.42-54.16,12.11-.68-.02-2.76,2.62-4.79,2.57-14.19,2.33-26.39,5.39-36.6,9.85-6.1,1.87-31.8,5.94-35.98,11.89-1.34-.71-3.37-.09-6.75.51q.02-.67-.64-1.37c-3.39.59-4.76,1.23-5.42,1.21-4.43-11.56-6.19-21.7-4.64-29.74l1.35.03.66.69c-2.53-6.12,8.22-5.85,11.03-10.5.02-.67-2.04,1.3-1.31-1.38,64.48-20.6,112.58-32.19,142.96-35.46.68-.66,4.72-.56,6.8-2.52.67.02,1.35.03,1.33.71q.66.69,1.33.71c64.14-7.15,110.6-7.32,140.06-.53-.74,2.68-4.19,5.96-4.93,8.63ZM1248.8,261.56c1.39-1.98,5.48-3.91,11.6-6.45-.71,1.33-4.8,3.25-11.6,6.45ZM1249.35,266.29c-.65-.69.72-2,2.76-2.62l-2.76,2.62ZM1253.47,263.03l.02-.67.69-.65c.66.01.66.68,1.32.7-.02.67-.68.66-2.03.62ZM1274.63,251.44c-1.41,2.66-7.57,6.55-19.12,10.97,2.78-3.29,8.93-6.51,19.12-10.97ZM1254.62,271.13c-.63-2.04,1.4-1.99,6.15-3.89l-6.15,3.89ZM1260.4,255.12c6.85-4.54,15.7-9.03,26.61-14.15-10.28,7.15-19.14,11.64-26.61,14.15ZM1261.46,266.59c.72-2,6.81-3.2,7.55-5.87,4.66,2.13,17.04-8.32,21.75-8.21-11.64,7.79-21.17,12.26-29.3,14.08ZM1274.53,255.47c-.7,1.33-3.44,3.29-8.88,5.17.72-2,8.19-4.51,8.88-5.17ZM1275.91,254.16c1.35.03,2,.73,1.98,1.4l-2.01-.05.03-1.34ZM1261.4,376.34c.02-.67-.64-1.36-1.32-1.38-.04,1.35-.05,2.02.63,2.04q.02-.67.69-.65ZM1278.6,254.23c2.08-1.96,5.5-4.57,10.95-7.13-.07,2.69-4.8,3.92-5.5,4.57-2.73,1.95-4.78,2.58-5.45,2.56ZM1265.47,375.09c0-.67,1.36-.64,1.35.03l-1.35-.03ZM1284.05,251.67l1.31,1.38-1.35-.03.04-1.34ZM1301.35,152.47l-.66-.02c.66.02,1.35.03,1.37-.64q-.02.68-.7.66ZM1295.99,232.45c-.05,2.02-.73,2-2.73,1.28l2.73-1.28ZM1297.33,232.48c-.66-.69.05-2.02,2.08-2.64.64,2.03-2.06,1.97-2.08,2.64ZM1301.09,243.35l-2.02-.05c-.02.67-.72,2-1.41,2.65,2.02.05,3.37-.59,3.43-2.61ZM1352.17,354.38l1.35.03.04-1.35-1.35-.03-.04,1.35Z"/>
  <path class="cls-8" d="M168.32,1020.72c-.33-1.18-.64-2.02-.94-2.54-.29-.51-.63-.65-1.02-.43-.38.23-.78,1.3-1.19,3.24-.42,1.94-.86,4.57-1.33,7.91s-1.74,9.86-3.81,19.56c-2.07,9.72-4.56,19.16-7.46,28.32-7.5,25.45-17.14,47.17-28.91,65.18-2.92,4.4-6.81,8.02-11.66,10.81-18.68,10.75-36.13,2.06-52.33-26.09-14.43-25.07-19.91-62.12-16.44-111.12,1.83-22.85,6.09-46.68,12.77-71.47,6.67-24.8,15.3-48.42,25.9-70.86,10.58-22.45,24.07-43.41,40.45-62.89,16.38-19.47,34.42-34.88,54.12-46.22,3.32-1.91,8.46-3.34,15.42-4.28,11.82-1.34,19.06.27,21.71,4.88,1.47,2.56.62,4.93-2.57,7.09-1.28.74-1.62,1.61-1.03,2.64s3.58,1.94,8.99,2.74c5.4.81,8.88,2.55,10.42,5.24,1.55,2.68,2.01,5.57,1.4,8.64-4.69,21.45-8.19,39.05-10.49,52.79-2.29,13.77-4.1,24.09-5.41,30.97-1.32,6.9-2.74,14.79-4.26,23.67-1.53,8.88-2.74,19.64-3.66,32.26-.91,12.62-1.36,24.87-1.31,36.78.75,28.52,6.31,51.81,16.7,69.83,10.38,18.04,21.91,34.24,34.6,48.56,12.67,14.35,21.83,22.27,27.48,23.78.44.77-.23,1.68-2.02,2.71-11.77,6.77-24.53,7.99-38.28,3.63-25.21-8.3-45.86-26.4-61.91-54.28-5.74-9.99-10.39-23.66-13.92-41.04ZM168.89,905.41l31.05-116.5c.76-2.81.92-4.61.48-5.38-.44-.77-1.31-.78-2.58-.05-17.94,14.42-34.15,34.48-48.64,60.19-14.5,25.72-25.76,52.31-33.81,79.76-8.04,27.45-14.45,54.49-19.24,81.08-4.79,26.6-7.22,49.47-7.28,68.58-.07,19.12,1.66,31.75,5.2,37.88.58,1.03,1.58,1.13,2.99.32,1.41-.8,3.6-3.35,6.6-7.62,2.98-4.27,10.64-23.68,22.96-58.19,12.33-34.51,26.41-81.2,42.27-140.07Z"/>
  <path class="cls-8" d="M297.04,991.17c8.68-4.43,21.88-20.94,39.6-49.55,17.71-28.6,33.13-56.03,46.25-82.28l20.07-39.59c3.3.63,5.63,2.27,6.97,4.9,1.34,2.63,1.3,5.81-.12,9.51-1.42,3.72-3.42,9.05-6,16-2.58,6.96-7.76,19.7-15.52,38.26-7.77,18.55-15.15,35.58-22.15,51.09-18.28,40.82-33.64,67.22-46.08,79.21-4.06,3.74-8.59,6.87-13.59,9.41-5,2.56-9.14,4.17-12.43,4.87-3.3.69-7.33.58-12.08-.3-9.8-2.28-19.79-13.43-29.99-33.42-2.82-5.53-4.75-15.14-5.79-28.86-1.03-13.71-.19-31.38,2.52-53,2.72-21.61,7.29-44.15,13.7-67.66,6.4-23.49,16.76-48.98,31.04-76.51,14.3-27.51,31.65-52.78,52.05-75.8,3.28-3.33,6.49-5.8,9.65-7.41,3.15-1.6,6.75-1.7,10.79-.28,4.03,1.42,7.32,3.31,9.85,5.67l3.99,2.92c3.09,6.06.53,24.1-7.67,54.14-8.32,31.1-20.1,62.72-35.35,94.86-15.24,32.15-30.16,60.57-44.74,85.24-11.71,20.57-14.34,37.16-7.89,49.79,4.16,8.15,8.47,11.07,12.94,8.79ZM290.87,891.41c6.57-3.36,18.23-29.69,34.98-79.02,16.75-49.32,24.19-75.84,22.31-79.51l-.8-.58-5.09,6.57c-9.11,15.93-19.54,40.47-31.27,73.65-11.73,33.17-18.85,58.03-21.35,74.55-.38,1.85-.41,3.1-.07,3.75.34.67.77.86,1.3.59Z"/>
  <path class="cls-8" d="M423.87,935.96c8.93-3.9,23.08-19.61,42.46-47.11,19.38-27.5,36.4-53.96,51.05-79.39l22.39-38.31c3.25.82,5.48,2.6,6.67,5.3,1.18,2.7.95,5.87-.69,9.48s-3.95,8.82-6.94,15.6c-2.99,6.81-8.91,19.22-17.76,37.28-8.86,18.06-17.24,34.61-25.15,49.68-20.67,39.67-37.57,65.11-50.7,76.33-4.27,3.49-8.99,6.37-14.12,8.61-5.14,2.25-9.38,3.62-12.71,4.11-3.33.48-7.35.15-12.04-1.01-9.64-2.87-18.95-14.58-27.95-35.14-2.49-5.68-3.84-15.39-4.07-29.16-.22-13.75,1.66-31.34,5.66-52.76,3.99-21.4,9.9-43.64,17.68-66.71,7.79-23.07,19.64-47.92,35.54-74.53,15.9-26.62,34.72-50.81,56.46-72.57,3.46-3.13,6.81-5.4,10.06-6.83,3.24-1.41,6.84-1.29,10.79.35,3.95,1.67,7.12,3.74,9.51,6.23l3.8,3.17c2.73,6.23-.91,24.09-10.87,53.59-10.16,30.55-23.79,61.42-40.92,92.61-17.13,31.19-33.7,58.67-49.72,82.44-12.91,19.84-16.53,36.23-10.84,49.23,3.67,8.38,7.8,11.56,12.4,9.55ZM423.62,836.01c6.75-2.96,19.96-28.56,39.62-76.81,19.64-48.25,28.64-74.26,26.99-78.04l-.76-.63-5.48,6.26c-10.04,15.36-21.9,39.25-35.58,71.65-13.69,32.43-22.26,56.82-25.74,73.16-.49,1.84-.58,3.08-.29,3.74.3.7.71.91,1.26.67Z"/>
  <path class="cls-8" d="M1156.83,772.48l1.99-28.5c-.05-.89-.29-1.31-.74-1.29-.44.03-1.22.67-2.33,1.91-3.61,4.34-8.2,9.69-13.77,16.05-5.57,6.37-15.21,15.02-28.96,25.98-13.75,10.94-25.03,16.66-33.88,17.14-1.49-.21-3.36-.64-5.61-1.25-2.25-.61-5.25-2.89-9.02-6.82s-5.86-9.73-6.27-17.4c-.42-7.66,4.77-19.7,15.54-36.11,10.79-16.4,23.87-32.64,39.26-48.71,15.38-16.05,32.73-30.23,52.01-42.53,19.3-12.28,36.31-18.83,51.05-19.63,5.61-.02,10.24,3.73,13.91,11.21,2.78-3.09,5.36-4.72,7.73-4.85,2.36-.13,5.24,1.49,8.69,4.84,1.78.21,3.61,1.08,5.46,2.59,1.86,1.53,2.87,3.76,3.03,6.71s-1.73,6.3-5.66,10.06c-5.77,8.01-12.53,17.09-20.25,27.28-7.72,10.17-13.23,17.5-16.53,21.97-3.31,4.46-6.73,9.46-10.27,14.97-5.99,9.5-9.13,17.06-9.41,22.69,29.29-16.09,74.9-49.76,136.86-101.05,2.76,1.91,4.23,4.36,4.39,7.29.16,2.95-.88,5.53-3.12,7.72-2.25,2.21-4.99,4.86-8.22,7.99-3.24,3.14-9.63,9.25-19.18,18.35-9.56,9.1-18.77,17.81-27.63,26.12-8.86,8.32-19.01,17.61-30.42,27.83-11.41,10.24-21.66,18.99-30.72,26.29-21.82,17.46-35.53,26.34-41.12,26.64-5.6.31-9.68-1.24-12.23-4.66-2.55-3.41-4.07-9.67-4.57-18.82ZM1110.71,756.36c3.55-.19,13.98-8,31.32-23.42,17.35-15.44,33.72-30.82,49.15-46.15l23.58-23.01c1.11-1.25,1.66-2.09,1.64-2.54-.03-.44-.48-.64-1.37-.59-11.21.61-25.45,7.82-42.73,21.63-17.29,13.8-32.1,28.21-44.44,43.23-12.34,15.03-18.36,25.02-18.09,30.03.03.59.34.87.92.83Z"/>
  <path class="cls-8" d="M1255.82,703.12c16.12-11.38,32.98-23.66,50.56-36.83-9.52-6.39-15.63-12.68-18.35-18.85-.91-2.06-1.37-3.53-1.38-4.41-.06-5.9,1.82-9.83,5.64-11.79,3.81-1.95,10.01-2.98,18.57-3.07,3.24-.03,12.88,3.86,28.9,11.66,16.03,7.8,26.17,11.7,30.46,11.65,4.27-.05,10.24-1.36,17.89-3.94,7.65-2.58,13.76-3.9,18.35-3.94,4.57-.05,7.9.95,9.99,2.99,7.48,9.67,11.23,15.54,11.25,17.6.02,2.08-.92,3.78-2.83,5.12-1.91,1.35-7.91,5.61-18.03,12.8-10.12,7.2-20.01,14.54-29.67,22.01-9.67,7.49-18.74,15.84-27.2,25.08-8.48,9.24-12.68,16.67-12.62,22.27,0,.89.75,1.32,2.23,1.31,15.94-.16,69.35-33.04,160.21-98.61,2.07-.03,3.12,1.8,3.16,5.49.04,3.7-11.5,16.52-34.6,38.45-23.11,21.94-49.24,43.45-78.4,64.56-29.17,21.12-50.4,31.73-63.68,31.87-20.67.21-31.1-10.02-31.31-30.69-.11-11.22,3.54-22.1,10.96-32.65,7.42-10.55,23.15-24.82,47.18-42.78-5.03.05-11.83-1.14-20.41-3.56-8.59-2.42-14.08-5.4-16.48-8.92-7.6,6.88-20.78,18.36-39.5,34.5-4.4,3.29-10.14,4.98-17.22,5.05-7.09.08-10.64-.99-10.66-3.21-.03-2.22,2.3-5.27,6.99-9.16Z"/>
  <path class="cls-8" d="M1464.58,758.86c10.14.94,20.12-4.43,29.95-16.14,9.83-11.7,17.1-23.77,21.81-36.23,4.71-12.47,7.41-22.51,8.12-30.17.19-2.05-1.26-3.22-4.35-3.5s-6.84,1-11.25,3.84l-61.88,39.21c-4.34,1.98-9.15,2.73-14.44,2.24-5.29-.49-7.75-2.64-7.4-6.47.25-2.64.77-4.38,1.59-5.19.81-.82,3.07-2.08,6.8-3.81,23.14-13,55.08-34.65,95.82-64.99,4.96-5.47,9.2-8.05,12.72-7.72,3.53.32,9.31,1.96,17.34,4.93,8.03,2.96,11.9,5.91,11.63,8.86-1.62,17.64-4.72,33.51-9.28,47.61-4.57,14.11-8.89,24.76-12.96,31.94-4.07,7.19-6.13,11.07-6.19,11.66-.06.59.21.91.8.96.58.06,1.8-.27,3.65-1,23.08-9.13,52.83-24.76,89.27-46.91l11.32-6.96c2.46,2.31,3.55,4.93,3.28,7.87-.27,2.95-1.84,5.46-4.7,7.56-.6-.06-8.73,5.42-24.43,16.43-15.69,11-33.1,22.96-52.23,35.87-19.14,12.91-39.4,24.46-60.79,34.64-21.39,10.18-37.68,14.76-48.85,13.73-27.64-2.56-39.92-20.44-36.85-53.66.25-2.65,1.57-4.97,3.98-6.98,2.41-2,5.38-2.83,8.89-2.51-.13,1.47.46,3.82,1.8,7.06,1.32,3.24,2.78,5.97,4.36,8.18,4.83,5.5,12.32,8.71,22.46,9.64Z"/>
  <path class="cls-8" d="M874.88,715.76l-42.81,11c-26.52,5.72-44.57,8.64-54.14,8.79-9.57.14-18.22-.3-25.96-1.28-7.74-.99-14.1-2.73-19.06-5.2-12.14-5.65-19.64-15.11-22.5-28.38-.85-3.94.27-10.39,3.37-19.32,3.1-8.93,9.33-20.09,18.7-33.49,9.37-13.38,21.11-26.69,35.25-39.93,14.12-13.23,33.66-26.36,58.61-39.42,24.94-13.05,52.82-23.48,83.62-31.3,11.01-2.37,22.93-3.54,35.79-3.5,12.86.05,23.69,1.03,32.53,2.96,8.83,1.94,17.16,5.98,24.97,12.12,7.82,6.14,12.8,14.14,14.92,24.02,1.71,7.9-4.09,18.02-17.39,30.33-14.74,13.79-36.02,23.7-63.81,29.68-27.79,5.98-42.12,7-42.97,3.05-.66-3.09,6.65-8.52,21.97-16.24,15.31-7.73,30.54-16.17,45.69-25.35,15.15-9.17,21.97-17.28,20.45-24.34-.79-3.66-7.39-4.16-19.81-1.49-81.84,17.63-147.55,53.93-197.12,108.9-9.24,10.56-13.22,18.79-11.95,24.72,2,9.31,32.35,7.65,91.05-4.99,52.89-10.81,82.32-2.38,88.28,25.27,4.26,19.76-5.11,41.41-28.09,64.97-22.99,23.55-51.54,44.16-85.67,61.85-34.14,17.69-67.12,30.11-98.94,37.26-14.95,3.23-31.61,2.67-49.96-1.63-18.35-4.32-28.75-12.12-31.18-23.41-.79-3.66,1.89-6.32,8.04-7.94,32.51-10.83,52.96-19.37,61.36-25.61,2.14-1.05,3.91-1.73,5.32-2.03,1.41-.31,2.18-.17,2.3.39.25,1.13-1.06,3.32-3.89,6.6-2.74,2.36-5.79,4.64-9.16,6.84-7.29,4.52-10.85,7.21-10.67,8.06.18.84,3.1.66,8.74-.56,5.65-1.22,19.41-6.54,41.29-15.98,21.89-9.43,45.12-20.5,69.7-33.17,24.58-12.67,45.77-26.39,63.56-41.15,17.78-14.75,25.65-26.93,23.58-36.53-1.33-6.21-9.34-7.73-24.01-4.57Z"/>
  <path class="cls-8" d="M556.84,777.76l47.09-13.37c12.15-3.68,23.9-7.7,35.26-12.05,1.68-1.41,3.49-2.41,5.42-3,7.73-2.34,15.11.1,22.12,7.32,3.06,2.1,5,4.53,5.83,7.28,2.02,6.64.32,11.53-5.06,14.66-58.63,16.56-93.1,26.26-103.4,29.07-1.96,1.5-3.84,2.52-5.64,3.07-1.79.55-3.07.56-3.83.03-.76-.52-1.57-2.16-2.4-4.92l-3.02-24.87c.39-.72,2.92-1.79,7.62-3.22Z"/>
  <path class="cls-8" d="M1127.02,582.9l21.83-3.36c28.33-3.79,49.47-2.53,63.42,3.74,6.55,1.18,10.05,3.32,10.46,6.46.31,2.3-2.27,4.24-7.73,5.85-5.46,1.61-24.48,6.41-57.04,14.41-32.58,8-54.97,13.12-67.2,15.33-5.4,1.02-16.65,12.13-33.75,33.35-17.11,21.22-33.04,44.18-47.79,68.88-14.76,24.69-21.54,41.47-20.36,50.34.2,1.44,1.07,2.55,2.64,3.36,1.56.8,3.42,1.06,5.57.77,2.14-.29,5.4-1.59,9.74-3.92,50.07-39.32,98.17-81.43,144.29-126.35,2.84,1.66,4.46,3.93,4.84,6.78.39,2.87-.67,5.84-3.17,8.95-2.5,3.1-6.19,7.59-11.08,13.49-4.89,5.89-14.01,16.59-27.39,32.06-13.37,15.48-26.05,29.41-38.08,41.79-32.14,34.01-55.06,54.26-68.76,60.76-4.96,2.11-10.94,3.65-17.94,4.59-7.02.94-13.94-1.79-20.76-8.15-6.82-6.36-11.06-15.7-12.7-28.01-1.65-12.29,3.92-31.1,16.69-56.4,12.77-25.3,31.27-51.94,55.49-79.95,2.3-2.33,3.34-4.38,3.11-6.09-.23-1.72-3.36-2.18-9.36-1.38l-26.92,4.48c-38.05,5.09-58.23,3.43-60.51-5-9.1-.54-13.88-2.51-14.34-5.94-.15-1.15.34-1.87,1.46-2.17,1.12-.28,2.11-.56,2.95-.83.84-.25,2.24-.66,4.21-1.21,1.96-.54,17.46-4.96,46.5-13.21,29.04-8.25,62.25-16.35,99.63-24.26l24.33-43.44c1.26-3.67,7.04-6.19,17.34-7.57,10.3-1.38,15.74.07,16.32,4.38.19,1.42-.62,4.15-2.41,8.17l-8.71,16.46c-.82,4.76-1.23,8.32-1.2,10.63.28,2.02,2.4,2.74,6.41,2.21Z"/>
</svg>