<?xml version="1.0" encoding="UTF-8"?>
<svg id="Layer_1" data-name="Layer 1" xmlns="http://www.w3.org/2000/svg" xmlns:xlink="http://www.w3.org/1999/xlink" version="1.1" viewBox="0 0 2000 2000">
  <defs>
    <style>
      .cls-1 {
        fill: #f4890b;
      }

      .cls-1, .cls-2, .cls-3, .cls-4, .cls-5, .cls-6, .cls-7, .cls-8, .cls-9, .cls-10, .cls-11, .cls-12, .cls-13, .cls-14, .cls-15, .cls-16, .cls-17, .cls-18, .cls-19, .cls-20, .cls-21, .cls-22, .cls-23, .cls-24, .cls-25, .cls-26, .cls-27, .cls-28, .cls-29, .cls-30, .cls-31, .cls-32 {
        stroke-width: 0px;
      }

      .cls-2 {
        fill: #567cae;
      }

      .cls-3 {
        fill: #ef9137;
      }

      .cls-4 {
        fill: #ef0dcb;
      }

      .cls-5 {
        fill: url(#radial-gradient);
      }

      .cls-6 {
        fill: #a9ecfb;
      }

      .cls-7 {
        fill: #85d1d5;
      }

      .cls-8 {
        fill: #00ff1d;
      }

      .cls-9 {
        fill: #02eb2f;
      }

      .cls-10 {
        fill: #24e613;
      }

      .cls-11 {
        fill: #04d840;
      }

      .cls-12 {
        fill: #45acaf;
      }

      .cls-13 {
        fill: #fa0e0e;
      }

      .cls-14 {
        fill: #000;
      }

      .cls-15 {
        fill: #318bbe;
      }

      .cls-16 {
        fill: #04c94e;
      }

      .cls-17 {
        fill: #09a56f;
      }

      .cls-18 {
        fill: url(#radial-gradient-2);
      }

      .cls-19 {
        fill: url(#radial-gradient-3);
      }

      .cls-20 {
        fill: url(#radial-gradient-4);
      }

      .cls-21 {
        fill: url(#radial-gradient-6);
      }

      .cls-22 {
        fill: url(#radial-gradient-5);
      }

      .cls-23 {
        fill: url(#radial-gradient-7);
      }

      .cls-24 {
        fill: #07b461;
      }

      .cls-25 {
        fill: #baebf6;
      }

      .cls-26 {
        fill: #e7435c;
      }

      .cls-27 {
        fill: #43c3e0;
      }

      .cls-28 {
        fill: #00ad00;
      }

      .cls-29 {
        fill: #5fd2ec;
      }

      .cls-30 {
        fill: #fff;
      }

      .cls-31 {
        fill: #0b9580;
      }

      .cls-32 {
        fill: #1713fc;
      }
    </style>
    <radialGradient id="radial-gradient" cx="47.54" cy="988.51" fx="47.54" fy="988.51" r="16.51" gradientTransform="translate(228.39 15.52) rotate(13.28)" gradientUnits="userSpaceOnUse">
      <stop offset="0" stop-color="#fff"/>
      <stop offset="1" stop-color="#41c4e0"/>
    </radialGradient>
    <radialGradient id="radial-gradient-2" cx="527.35" cy="935.57" fx="527.35" fy="935.57" r="19.47" gradientTransform="matrix(1,0,0,1,0,0)" xlink:href="#radial-gradient"/>
    <radialGradient id="radial-gradient-3" cx="888.52" cy="846.84" fx="888.52" fy="846.84" r="22.19" gradientTransform="matrix(1,0,0,1,0,0)" xlink:href="#radial-gradient"/>
    <radialGradient id="radial-gradient-4" cx="1443.94" cy="839.75" fx="1443.94" fy="839.75" r="14.28" gradientTransform="matrix(1,0,0,1,0,0)" xlink:href="#radial-gradient"/>
    <radialGradient id="radial-gradient-5" cx="1718.42" cy="714.61" fx="1718.42" fy="714.61" r="13.01" gradientTransform="matrix(1,0,0,1,0,0)" xlink:href="#radial-gradient"/>
    <radialGradient id="radial-gradient-6" cx="1786.21" cy="761.51" fx="1786.21" fy="761.51" r="13.52" gradientTransform="matrix(1,0,0,1,0,0)" xlink:href="#radial-gradient"/>
    <radialGradient id="radial-gradient-7" cx="1756.65" cy="876.7" fx="1756.65" fy="876.7" r="14.54" gradientTransform="matrix(1,0,0,1,0,0)" xlink:href="#radial-gradient"/>
  </defs>
  <path class="cls-27" d="M1609.38,1091.53c1.68-8.22,8.95-14.15,17.34-14.15h49.54c8.44,0,15.71,5.96,17.35,14.24l3.13,15.72,2.96-16.29c1.53-8.41,8.86-14.54,17.41-14.54h47.81c5.31,0,10.31,2.36,13.68,6.47,3.37,4.1,4.72,9.46,3.68,14.67l-2.07,10.42c1.12-.56,2.24-1.15,3.38-1.79,5.32-2.98,11.42-8.44,16.13-15.49,4.72-7.06,8.05-15.69,8.05-25.06,0-9.47-3.36-19.76-12.34-30.22l-.84-.98.83-.99h0s.01-.02.01-.02l.06-.07c.05-.06.13-.16.23-.29.2-.26.5-.66.85-1.18.71-1.04,1.67-2.56,2.62-4.45,1.91-3.79,3.81-9.06,3.8-14.97,0-4.27-.97-8.89-3.65-13.64-3.54-6.26-8.14-9.78-12.69-11.81-4.54-2.02-9.05-2.5-12.24-2.5-2.69,0-4.45.34-4.49.35l-2,.4.19-2.03v-.03s.01-.11.01-.11c0-.1.02-.26.03-.46.02-.41.04-1.02.04-1.8,0-3.41-.41-10.02-3-17.12-2.6-7.1-7.33-14.67-16.02-20.22-5.8-3.7-13.4-6.51-23.41-7.62l-1.43-.16.08-1.43h0s0-.05,0-.05v-.18c.01-.16.02-.41.02-.73,0-2.17-.23-7.76-2.2-14.1-1.97-6.34-5.66-13.39-12.56-18.68-4.6-3.53-10.64-6.3-18.69-7.56h-.01s-.02,0-.02,0c-1.57-.28-3.15-.41-4.73-.41-7.98,0-16.07,3.44-22.39,9.01-6.33,5.57-10.88,13.24-11.93,21.54l-.12.98-.94.28c-.07.02-23.32,7.01-46.65,7.02-6.05,0-12.12-.47-17.8-1.68-13.66-2.9-27.43-8.46-39.19-14.16-11.76-5.7-21.5-11.55-27.04-15.04-4.79-3.03-11.78-4.65-17.71-4.64-2.55,0-4.9.29-6.78.85-1.89.55-3.25,1.37-3.94,2.24-.46.58-.68,1.16-.68,1.9,0,1.58-.12,3.06-.38,4.39-.26,1.33-.67,2.54-1.31,3.56-.43.68-.96,1.29-1.62,1.75-.88.62-1.97.95-3.12.95-1.21,0-2.47-.33-3.83-.95-1.36-.62-2.82-1.54-4.43-2.78-1.77-1.37-4.25-2.51-7.06-3.28-2.81-.77-5.96-1.19-9.05-1.19-2.92,0-5.8.37-8.32,1.12-2.52.75-4.66,1.88-6.15,3.34-1,.97-1.73,2.08-2.16,3.37-1.23,3.67-3.05,7.03-5.13,9.81-2.08,2.78-4.42,5-6.77,6.38-1.57.92-3.16,1.49-4.76,1.5-1.14,0-2.28-.32-3.23-1.02-.71-.52-1.11-1.23-1.41-1.96-.29-.74-.49-1.55-.64-2.45-.31-1.79-.48-3.94-.72-6.27-.47-4.65-1.25-9.99-3.65-14.1-1.61-2.74-3.86-4.96-7.36-6.31-2-.77-4.43-1.24-7.4-1.29-.19,0-.37,0-.56,0-5.29,0-9.18,1.24-12.13,3.1-2.94,1.86-4.96,4.37-6.38,7.04-2.83,5.34-3.1,11.32-3.09,13.08,0,.26,0,.43,0,.49v.02s.17,3.5.17,3.5l-2.67-2.28h0s-.02-.02-.02-.02l-.12-.09c-.11-.09-.28-.21-.51-.37-.46-.31-1.16-.74-2.05-1.17-1.79-.86-4.35-1.72-7.46-1.72-2.98,0-6.47.77-10.38,3.16-3.89,2.38-8.2,6.39-12.68,12.89-.27.53-1.26,2.32-3.48,4.25-2.55,2.23-6.74,4.61-13.15,5.46-2.99.4-7.49,1.24-12.77,2.31-5.28,1.08-11.33,2.39-17.48,3.74-12.3,2.7-24.95,5.56-32.56,7-4.93.93-10.41,2.13-15.57,3.62-5.15,1.49-9.97,3.28-13.51,5.34-2.36,1.37-4.14,2.87-5.1,4.34-.55.84-.85,1.66-.93,2.5-.24,2.62-.83,4.9-1.66,6.77-.83,1.87-1.87,3.33-3.12,4.29-.83.64-1.8,1.06-2.86,1.07-.77,0-1.55-.25-2.19-.71-.65-.46-1.17-1.09-1.58-1.85-.5-.93-1.34-1.95-2.4-3.07-1.06-1.12-2.32-2.35-3.65-3.76-2.66-2.81-5.57-6.36-7.51-11.31-.38-.97-1.06-2.5-1.96-4.43-.9-1.93-2.03-4.27-3.32-6.9-2.58-5.25-5.82-11.65-9.22-18.26-6.8-13.21-14.28-27.26-18.54-34.65-1.15-2-2.07-3.51-2.64-4.32-.06-.01-.14-.02-.27-.02-.42,0-1.17.12-2.1.4-.94.28-2.08.7-3.37,1.25-2.59,1.11-5.81,2.73-9.44,4.73-7.27,4-16.22,9.49-25.45,15.42-18.45,11.86-38.02,25.47-47.64,32.36-2.74,1.97-4.69,3.39-5.52,4.04-.21.16-.36.29-.36.29h0c-.13.13-.28.25-.49.37-.22.12-.52.24-.9.24-.26,0-.54-.07-.76-.17-.22-.11-.39-.25-.52-.38-.25-.27-.36-.49-.45-.7-.17-.41-.26-.78-.37-1.22-.2-.86-.39-1.93-.73-3.13-.68-2.4-1.88-5.22-4.5-7.37-1.76-1.44-4.17-2.62-7.68-3.16-1.69-.26-3.17-.38-4.45-.38-2.92,0-4.78.6-6.05,1.48-1.27.88-2.06,2.1-2.66,3.71-.39,1.07-.68,2.28-.92,3.59-.32,1.74-.57,3.62-.94,5.51-.48,2.42-1.18,4.4-2.2,6.03-1.01,1.63-2.35,2.87-3.96,3.71-1.07.56-2.25.95-3.52,1.21-1.7.35-3.58.48-5.69.48-2.96,0-8.11.34-13.64,1.15-5.54.81-11.49,2.09-16.06,3.91-3.05,1.2-5.46,2.68-6.7,4.19-.98,1.17-2.36,1.9-3.92,2.35-1.57.45-3.36.64-5.32.64-4.23,0-9.28-.89-14.34-2.34-5.06-1.45-10.13-3.47-14.34-5.78-2.81-1.55-5.24-3.22-7.06-5-1.04-1.02-1.88-2.09-2.45-3.23-.81-1.6-1.9-2.56-3.26-3.21-1.36-.64-3-.91-4.74-.91-2.67,0-5.52.64-7.73,1.32-2.21.68-3.77,1.38-3.91,1.45h-.01s-.35.17-.35.17l-26.11-1.71-.4-.71-.02-.04-.07-.12c-.06-.11-.16-.27-.29-.49-.25-.43-.63-1.04-1.12-1.81-.98-1.54-2.39-3.67-4.15-6.04-3.51-4.74-8.4-10.4-13.71-14.08-3.54-2.46-7.23-4.01-10.77-4-3.42,0-6.93,1.46-10.29,3.82-3.36,2.35-6.54,5.57-9.29,8.87-5.5,6.58-9.26,13.44-9.66,14.2l-.04.07-.48.91-1.02-.11s-.11-.01-.35-.04c-.24-.02-.59-.06-1.05-.1-.93-.08-2.29-.19-4.04-.3-3.49-.22-8.5-.43-14.55-.43-11.03,0-25.52.72-40.56,3.47-14.55,2.65-29.6,7.22-42.53,14.79.49.86,1.13,2.11,1.77,3.67,1.28,3.13,2.57,7.53,2.57,12.65,0,2.28-.26,4.7-.88,7.2-1.1,4.4-2.98,7.95-5.56,10.42-2.57,2.48-5.88,3.82-9.51,3.81-4.04,0-8.44-1.6-12.99-4.79-1.64-1.15-2.84-2.53-3.6-4.06-.76-1.53-1.08-3.18-1.08-4.82,0-2.64.79-5.3,1.91-7.82,1.12-2.52,2.59-4.92,4.05-7.01.94-1.34,1.87-2.55,2.71-3.58-1.84.45-4.13,1.03-6.71,1.76-6.53,1.83-14.87,4.53-22,7.94-4.75,2.27-8.97,4.87-11.72,7.63-6.87,6.87-14.79,9.99-22.2,9.99-5.83,0-11.34-1.92-15.74-5.37-.6-.48-1.7-.94-3.18-1.22-1.48-.29-3.34-.43-5.44-.43-4.17,0-9.33.55-14.75,1.39-5.42.85-11.1,1.99-16.37,3.17-10.55,2.36-19.45,4.86-21.39,5.41-.26.07-.39.11-.39.11l-1.92.56-.02-2v-.02s0-.09,0-.09c0-.08,0-.2-.01-.35-.01-.31-.04-.78-.1-1.38-.11-1.19-.31-2.89-.7-4.9-.78-4.01-2.33-9.24-5.32-14.05-1.99-3.21-4.61-6.24-8.07-8.66-4.62-3.22-10.74-5.4-19.07-5.41-.37,0-.74,0-1.11.01-7.26.17-12.72,2.03-16.91,4.81-4.18,2.78-7.12,6.52-9.2,10.57-4.16,8.08-4.76,17.36-4.75,21.72,0,1.4.06,2.29.07,2.47v.03s.12,1.51.12,1.51l-1.51.13s-7.2.61-16.32,1.21c-9.12.6-20.15,1.21-27.88,1.21-1.74,0-3.32-.03-4.68-.1-1.36-.07-2.5-.18-3.42-.35-.62-.12-1.12-.24-1.65-.52-.42-.23-.74-.52-1.04-.85-.3-.32-.57-.69-.84-1.09-.54-.81-1.08-1.79-1.68-2.92-1.18-2.26-2.54-5.12-4.23-8.2-3.36-6.16-8-13.15-14.68-17.69-4.45-3.03-9.78-5-16.42-5.01-4.35,0-8.12.89-11.49,2.38-3.37,1.5-6.36,3.62-9.07,6.11-5.43,4.98-9.73,11.45-13.81,17.14-2.73,3.79-5.36,7.25-8.31,9.7-1.69,1.4-3.5,2.47-5.51,3-.65.17-1.42.29-2.37.4-.95.1-2.06.19-3.33.25-2.55.13-5.75.19-9.51.19-21.15,0-59.93-1.9-95.86-3.96-35.92-2.07-68.94-4.31-78.49-5-9.36-.68-16.7-2.21-23.05-3.54-6.36-1.34-11.7-2.48-17.16-2.47-2.33,0-4.68.2-7.16.69-3.07.6-5.59,2.35-7.74,4.94-2.14,2.58-3.85,5.99-5.13,9.65-2.58,7.32-3.49,15.67-3.49,20.4,0,.52.01,1,.03,1.43l.07,1.41-1.4.17h-.05s-.19.03-.19.03c-.17.02-.41.06-.74.11-.64.1-1.58.27-2.75.51-2.33.48-5.58,1.27-9.17,2.5-7.19,2.45-15.75,6.68-21.32,13.53-3.72,4.57-6.17,10.26-6.18,17.59,0,3.09.44,6.47,1.43,10.18l.57,2.12-2.18-.22c-1.12-.11-2.24-.17-3.38-.17-9.4,0-17.9,3.81-24.07,9.97-6.16,6.16-9.97,14.66-9.97,24.07,0,9.4,3.81,17.9,9.97,24.07,4.42,4.42,10.05,7.62,16.35,9.08,1.03-7.86,3.1-16.22,6.34-25.11,2.6-7.15,6.11-13.76,10.33-19.72,4.22-5.96,9.15-11.28,14.58-15.91,10.88-9.26,23.76-15.77,37.46-19.53,9.14-2.5,18.66-3.78,28.27-3.78,10.38,0,20.88,1.49,31.1,4.6,6.57,1.99,12.47,4.91,17.5,8.57,5.04,3.65,9.17,8.04,12.35,12.69,2.13,3.1,3.84,6.31,5.22,9.52,1.83,4.28,3.06,8.56,3.88,12.68.49,2.46.82,4.87,1.05,7.21l7.93-37.4c1.73-8.15,8.98-14.03,17.31-14.03h79.97c.7,0,2.85.04,6.04.5,3.18.47,7.4,1.35,12.18,3.16,3.19,1.21,6.62,2.83,10.11,5.04,4.64,2.93,9.37,6.93,13.49,12.18,2.35,2.99,4.5,6.38,6.33,10.13,2.09,4.29,3.77,9.04,4.95,14.22.38,1.68.71,3.42.99,5.19.19-.33.37-.65.56-.98,3.47-5.89,7.56-12.06,12.41-18.05,6.47-7.97,14.29-15.7,23.97-21.75,7.48-4.65,15.69-8.24,24.31-10.71,8.62-2.47,17.65-3.82,26.77-3.82,7.75,0,15.58.98,23.22,3.19,7.63,2.2,15.09,5.66,21.86,10.58,4.51,3.27,8.7,7.19,12.39,11.72,4.92,6.04,8.93,13.16,11.78,21.14,1.88,5.25,3.11,10.69,3.9,16.27.72,5.07,1.05,10.27,1.1,15.55l12.3-58.6c1.72-8.21,8.93-14.06,17.32-14.06h92.13c1.04,0,1.78.06,2.81.22,5.44.87,10.74,2.4,15.72,4.84,4.97,2.42,9.59,5.8,13.38,9.96,2.53,2.77,4.7,5.85,6.47,9.13.35.64.67,1.29.99,1.94l2.87-13.4c1.75-8.15,8.97-13.99,17.3-13.99h121.69c5.12,0,9.94,2.18,13.31,6.03.4.45.76.92,1.11,1.41,3.27-3.79,8.08-6.14,13.4-6.14h119.08c5.31,0,10.37,2.4,13.72,6.52,3.35,4.12,4.68,9.55,3.61,14.75l-8.26,39.98c-.54,2.64-1.61,4.98-3.24,7.13l-5.64,7.43h61.31l12.41-62.43c1.65-8.28,8.92-14.25,17.36-14.25h48.24c8.44,0,15.73,6,17.36,14.28l4,20.34,3.87-19.5c1.64-8.28,8.92-14.25,17.36-14.25h45.63c5.31,0,10.32,2.37,13.69,6.48,3.37,4.11,4.71,9.49,3.66,14.7l-10.97,54.63h59.44l12.89-62.97c1.68-8.22,8.95-14.15,17.34-14.15h109.08c4.69,0,9.09,1.83,12.38,5.06,3.22-3.16,7.61-5.06,12.39-5.06h49.11c5.31,0,10.33,2.37,13.69,6.48,2.06,2.52,3.35,5.52,3.81,8.66,1.81-8.08,8.97-13.84,17.26-13.84h50.41c5.31,0,10.36,2.4,13.71,6.51,1.91,2.34,3.17,5.11,3.7,8.03l2.63-.39Z"/>
  <path class="cls-29" d="M1603.06,1083.89c1.91,2.34,3.17,5.11,3.7,8.03l2.63-.39c1.68-8.22,8.95-14.15,17.34-14.15h49.54c8.44,0,15.71,5.96,17.35,14.24l3.13,15.72,2.96-16.29c1.53-8.41,8.86-14.54,17.41-14.54h47.81c5.31,0,10.31,2.36,13.68,6.47,3.37,4.1,4.72,9.46,3.68,14.67l-2.07,10.42c1.12-.56,2.24-1.15,3.38-1.79,5.32-2.98,11.42-8.44,16.13-15.49,4.72-7.06,8.05-15.69,8.05-25.06,0-9.47-3.36-19.76-12.34-30.22l-.84-.98.83-.99h0s.01-.02.01-.02l.06-.07c.05-.06.13-.16.23-.29.2-.26.5-.66.85-1.18.71-1.04,1.67-2.56,2.62-4.45,1.91-3.79,3.81-9.06,3.8-14.97,0-4.27-.97-8.89-3.65-13.64-3.54-6.26-8.14-9.78-12.69-11.81-4.54-2.02-9.05-2.5-12.24-2.5-2.69,0-4.45.34-4.49.35l-2,.4.19-2.03v-.03s.01-.11.01-.11c0-.1.02-.26.03-.46.02-.41.04-1.02.04-1.8,0-3.41-.41-10.02-3-17.12-2.6-7.1-7.33-14.67-16.02-20.22-1.73-1.1-3.64-2.11-5.7-3.03-20.82,2.11-52.64,6.99-51.84,16.99,1.19,14.83,7.12,32.62,7.12,32.62,0,0-13.64-2.97-42.7,0-29.06,2.97-71.17,32.62-71.17,32.62,0,0-39.74-33.81-81.25-32.62-41.52,1.19-45.08,23.13-80.66,36.77-35.59,13.64-46.26,23.72-46.26,23.72,0,0-8.3-36.18-42.7-32.03-29.85,3.6-29.78,35.79-29.24,44.24-.84-4.66-5.6-15.77-31.85-15.77-33.21,0-33.21,22.54-33.21,22.54,0,0-8.3-18.98-36.77-21.94-28.47-2.97-35.59,11.86-35.59,11.86-10.68-20.17-21.35-33.21-51.01-23.13-13.51,4.59-18.28,22.23-19.47,40.07h40.07c8.44,0,15.73,6,17.36,14.28l4,20.34,3.87-19.5c1.64-8.28,8.92-14.25,17.36-14.25h45.63c5.31,0,10.32,2.37,13.69,6.48,3.37,4.11,4.71,9.49,3.66,14.7l-10.97,54.63h59.44l12.89-62.97c1.68-8.22,8.95-14.15,17.34-14.15h109.08c4.69,0,9.09,1.83,12.38,5.06,3.22-3.16,7.61-5.06,12.39-5.06h49.11c5.31,0,10.33,2.37,13.69,6.48,2.06,2.52,3.35,5.52,3.81,8.66,1.81-8.08,8.97-13.84,17.26-13.84h50.41c5.31,0,10.36,2.4,13.71,6.51Z"/>
  <g>
    <polygon class="cls-2" points="1231.53 1153.19 1230.92 1156.22 1290.35 1156.22 1290.97 1153.19 1231.53 1153.19"/>
    <polygon class="cls-2" points="997.61 1153.19 995.3 1156.22 1058.32 1156.22 1058.92 1153.19 997.61 1153.19"/>
    <path class="cls-2" d="M57.53,1159.76c.1-1,.22-2.01.36-3.03-6.3-1.46-11.93-4.66-16.35-9.08-6.16-6.16-9.97-14.66-9.97-24.07,0-9.4,3.81-17.9,9.97-24.07,6.16-6.16,14.66-9.97,24.07-9.97,1.14,0,2.27.06,3.38.17l2.18.22-.57-2.12c-.99-3.71-1.43-7.09-1.43-10.18,0-7.33,2.46-13.02,6.18-17.59,5.57-6.85,14.13-11.08,21.32-13.53,3.59-1.23,6.83-2.02,9.17-2.5,1.17-.24,2.11-.4,2.75-.51.32-.05.57-.09.74-.11l.19-.03h.05s1.4-.18,1.4-.18l-.07-1.41c-.02-.42-.03-.9-.03-1.43,0-4.73.91-13.08,3.49-20.4,1.29-3.66,2.99-7.07,5.13-9.65,2.15-2.59,4.68-4.34,7.74-4.94,2.48-.48,4.84-.69,7.16-.69,5.46,0,10.8,1.13,17.16,2.47,6.35,1.34,13.69,2.86,23.05,3.54,4.36.32,13.64.96,25.84,1.76l.66-3c-12.43-.81-21.87-1.46-26.28-1.79-9.15-.67-16.3-2.15-22.65-3.49-6.34-1.33-11.9-2.54-17.78-2.54-2.51,0-5.06.22-7.74.74-3.89.75-7.05,3.01-9.5,5.98-3.69,4.47-5.96,10.57-7.38,16.49-1.41,5.93-1.93,11.68-1.94,15.49,0,.07,0,.13,0,.2-3.2.53-11.54,2.18-19.98,6.31-5.35,2.62-10.75,6.24-14.85,11.26-4.11,5.02-6.87,11.48-6.86,19.5,0,2.78.35,5.76,1.05,8.92-.53-.02-1.05-.04-1.59-.04-20.47,0-37.07,16.59-37.07,37.07,0,17.7,12.41,32.49,29,36.18Z"/>
    <path class="cls-2" d="M1798.52,1034.48c.79-1.09,2.08-3.01,3.38-5.58,2.05-4.07,4.13-9.78,4.13-16.34,0-4.74-1.1-9.92-4.05-15.13-3.85-6.83-9.04-10.85-14.1-13.09-5.06-2.25-9.98-2.76-13.47-2.76-1.28,0-2.35.07-3.19.15,0-.25,0-.51,0-.8,0-4.86-.75-15.59-6.8-25.83-3.03-5.11-7.39-10.09-13.63-14.06-5.95-3.79-13.61-6.64-23.33-7.89-.03-3.4-.53-12.52-5.12-21.67-2.36-4.69-5.81-9.39-10.82-13.24-5.01-3.84-11.56-6.82-20.04-8.14h0s-.01,0-.02,0c0,0,0,0-.01,0h0c-1.74-.31-3.49-.45-5.23-.45-.92,0-1.83.05-2.75.13l-.33,3.07c1.03-.11,2.05-.17,3.08-.17,1.58,0,3.17.13,4.73.41h.02s.01,0,.01,0c8.05,1.25,14.09,4.03,18.69,7.56,6.89,5.29,10.58,12.34,12.56,18.68,1.97,6.33,2.2,11.92,2.2,14.1,0,.32,0,.57,0,.73v.18s0,.04,0,.04h0s-.08,1.44-.08,1.44l1.43.16c10.01,1.11,17.6,3.93,23.41,7.62,8.7,5.55,13.42,13.11,16.02,20.22,2.59,7.1,3,13.71,3,17.12,0,.78-.02,1.39-.04,1.8-.01.21-.02.36-.03.46v.11s-.01.03-.01.03l-.19,2.03,2-.4s1.8-.35,4.49-.35c3.2,0,7.7.48,12.24,2.5,4.54,2.03,9.14,5.55,12.69,11.81,2.68,4.75,3.65,9.36,3.65,13.64,0,5.91-1.89,11.19-3.8,14.97-.96,1.89-1.91,3.41-2.62,4.45-.36.52-.65.92-.85,1.18-.1.13-.18.23-.23.3l-.06.07h-.01s0,.02,0,.02l-.83.99.84.98c8.97,10.46,12.33,20.75,12.34,30.22,0,9.38-3.33,18.01-8.05,25.06-4.71,7.06-10.81,12.52-16.13,15.49-1.13.64-2.26,1.23-3.38,1.79l-.74,3.74c1.83-.86,3.71-1.82,5.6-2.88,5.81-3.26,12.18-9,17.17-16.45,4.98-7.45,8.56-16.64,8.56-26.75,0-9.91-3.49-20.64-12.28-31.24Z"/>
  </g>
  <g>
    <path class="cls-15" d="M47.54,968.97c-10.78,0-19.54,8.77-19.54,19.54s8.77,19.54,19.54,19.54,19.54-8.77,19.54-19.54-8.77-19.54-19.54-19.54ZM47.54,1005.02c-9.12,0-16.51-7.39-16.51-16.51s7.39-16.51,16.51-16.51,16.51,7.39,16.51,16.51-7.39,16.51-16.51,16.51Z"/>
    <path class="cls-15" d="M544.83,925.7c-2.61-3.46-6.1-6.55-9.81-8.81-3.71-2.25-7.64-3.7-11.27-3.71-.81,0-1.61.08-2.39.24-3.62.78-7.68,3.04-10.94,6.42-3.25,3.38-5.7,7.96-5.7,13.31,0,3.26.92,6.76,3.03,10.34,3.08,5.24,6.96,8.87,11.04,11.17,4.08,2.31,8.34,3.29,12.21,3.29,3.37,0,6.46-.74,8.91-2.05l.05-.03.05-.03c.08-.05,2.5-1.59,4.96-4.37,1.23-1.4,2.48-3.11,3.42-5.13.95-2.01,1.59-4.34,1.59-6.91,0-2.03-.41-4.21-1.36-6.46-.72-2.53-2.07-4.99-3.79-7.28ZM541.09,951.11c-.77.72-1.46,1.27-1.95,1.64-.25.18-.44.32-.57.41l-.13.09c-1.92,1.02-4.53,1.67-7.43,1.67-3.36,0-7.11-.85-10.71-2.9-3.61-2.04-7.08-5.27-9.92-10.07-1.87-3.17-2.61-6.11-2.61-8.8,0-4.39,2.01-8.24,4.86-11.21,2.83-2.96,6.5-4.95,9.38-5.56.54-.12,1.13-.17,1.76-.17,1.86,0,4.05.53,6.3,1.5,3.38,1.46,6.89,3.9,9.74,6.79,2.86,2.89,5.05,6.22,5.92,9.35l.03.1.04.09c.83,1.94,1.16,3.73,1.16,5.39,0,2.06-.51,3.93-1.3,5.62-1.18,2.53-3.01,4.62-4.55,6.05Z"/>
    <path class="cls-15" d="M907.86,830.7c-5-4.06-11.83-6.53-19.34-6.54-7.51,0-14.34,2.47-19.34,6.54-4.99,4.05-8.18,9.77-8.17,16.13,0,6.36,3.18,12.08,8.17,16.13,5,4.06,11.83,6.53,19.34,6.54,7.51,0,14.34-2.47,19.34-6.54,4.99-4.05,8.18-9.77,8.17-16.13,0-6.36-3.18-12.08-8.17-16.13ZM905.94,860.62c-4.41,3.59-10.58,5.86-17.43,5.86-6.85,0-13.02-2.26-17.43-5.86-4.42-3.6-7.05-8.46-7.06-13.78,0-5.32,2.64-10.18,7.06-13.78,4.41-3.59,10.58-5.86,17.43-5.86,6.85,0,13.02,2.26,17.43,5.86,4.42,3.6,7.05,8.46,7.06,13.78,0,5.32-2.64,10.18-7.06,13.78Z"/>
    <path class="cls-15" d="M1443.94,822.43c-9.56,0-17.32,7.75-17.32,17.32,0,9.56,7.75,17.32,17.32,17.32,9.57,0,17.32-7.75,17.32-17.32,0-9.57-7.75-17.32-17.32-17.32ZM1443.94,854.03c-3.95,0-7.51-1.6-10.1-4.18-2.59-2.59-4.18-6.15-4.18-10.1,0-3.95,1.6-7.51,4.18-10.1,2.59-2.59,6.15-4.18,10.1-4.18,3.95,0,7.51,1.6,10.1,4.18,2.59,2.59,4.18,6.15,4.18,10.1,0,3.95-1.6,7.51-4.18,10.1-2.59,2.59-6.15,4.18-10.1,4.18Z"/>
    <path class="cls-15" d="M1718.42,698.57c-8.86,0-16.04,7.18-16.04,16.04,0,8.86,7.18,16.04,16.04,16.04,8.86,0,16.04-7.18,16.04-16.04,0-8.86-7.18-16.04-16.04-16.04ZM1718.42,727.62c-3.6,0-6.84-1.45-9.2-3.81-2.36-2.36-3.81-5.6-3.81-9.2,0-3.6,1.45-6.84,3.81-9.2,2.36-2.36,5.6-3.81,9.2-3.81,3.6,0,6.84,1.45,9.2,3.81,2.36,2.36,3.81,5.6,3.81,9.2,0,3.6-1.45,6.84-3.81,9.2-2.36,2.36-5.6,3.81-9.2,3.81Z"/>
    <path class="cls-15" d="M1786.21,744.95c-9.14,0-16.55,7.41-16.55,16.55,0,9.14,7.41,16.55,16.55,16.55,9.14,0,16.55-7.41,16.55-16.55,0-9.14-7.41-16.55-16.55-16.55ZM1786.21,775.02c-3.74,0-7.11-1.51-9.56-3.96-2.45-2.45-3.96-5.82-3.96-9.56,0-3.74,1.51-7.11,3.96-9.56,2.45-2.45,5.82-3.96,9.56-3.96,3.74,0,7.11,1.51,9.56,3.96,2.45,2.45,3.96,5.82,3.96,9.56,0,3.74-1.51,7.11-3.96,9.56-2.45,2.45-5.82,3.96-9.56,3.96Z"/>
    <g>
      <circle class="cls-5" cx="47.54" cy="988.51" r="16.51" transform="translate(-225.84 37.37) rotate(-13.28)"/>
      <path class="cls-18" d="M546.94,939.44c0-1.66-.33-3.45-1.16-5.39l-.04-.09-.03-.1c-.87-3.13-3.06-6.46-5.92-9.35-2.85-2.89-6.36-5.33-9.74-6.79-2.25-.98-4.44-1.51-6.3-1.5-.63,0-1.21.06-1.76.17-2.89.6-6.55,2.6-9.38,5.56-2.84,2.96-4.86,6.82-4.86,11.21,0,2.69.74,5.62,2.61,8.8,2.84,4.81,6.31,8.03,9.92,10.07,3.61,2.04,7.35,2.9,10.71,2.9,2.91,0,5.51-.65,7.43-1.67l.13-.09c.13-.09.33-.23.57-.41.49-.37,1.18-.92,1.95-1.64,1.54-1.43,3.37-3.52,4.55-6.05.79-1.69,1.3-3.56,1.3-5.62Z"/>
      <path class="cls-19" d="M905.94,833.06c-4.41-3.59-10.58-5.86-17.43-5.86-6.85,0-13.02,2.26-17.43,5.86-4.42,3.6-7.05,8.46-7.06,13.78,0,5.32,2.64,10.18,7.06,13.78,4.41,3.59,10.58,5.86,17.43,5.86,6.85,0,13.02-2.26,17.43-5.86,4.42-3.6,7.05-8.46,7.06-13.78,0-5.32-2.64-10.18-7.06-13.78Z"/>
      <path class="cls-20" d="M1454.04,829.65c-2.59-2.59-6.15-4.18-10.1-4.18-3.95,0-7.51,1.6-10.1,4.18-2.59,2.59-4.18,6.15-4.18,10.1,0,3.95,1.6,7.51,4.18,10.1,2.59,2.59,6.15,4.18,10.1,4.18,3.95,0,7.51-1.6,10.1-4.18,2.59-2.59,4.18-6.15,4.18-10.1,0-3.95-1.6-7.51-4.18-10.1Z"/>
      <path class="cls-22" d="M1727.62,705.41c-2.36-2.36-5.6-3.81-9.2-3.81-3.6,0-6.84,1.45-9.2,3.81-2.36,2.36-3.81,5.6-3.81,9.2,0,3.6,1.45,6.84,3.81,9.2,2.36,2.36,5.6,3.81,9.2,3.81,3.6,0,6.84-1.45,9.2-3.81,2.36-2.36,3.81-5.6,3.81-9.2,0-3.6-1.45-6.84-3.81-9.2Z"/>
      <path class="cls-21" d="M1795.77,751.95c-2.45-2.45-5.82-3.96-9.56-3.96-3.74,0-7.11,1.51-9.56,3.96-2.45,2.45-3.96,5.82-3.96,9.56,0,3.74,1.51,7.11,3.96,9.56,2.45,2.45,5.82,3.96,9.56,3.96,3.74,0,7.11-1.51,9.56-3.96,2.45-2.45,3.96-5.82,3.96-9.56,0-3.74-1.51-7.11-3.96-9.56Z"/>
      <path class="cls-23" d="M1766.93,866.42c-2.64-2.63-6.26-4.26-10.28-4.26-4.02,0-7.64,1.62-10.28,4.26-2.63,2.64-4.26,6.26-4.26,10.28,0,4.02,1.62,7.64,4.26,10.28,2.64,2.63,6.26,4.26,10.28,4.26,4.02,0,7.64-1.63,10.28-4.26,2.63-2.64,4.26-6.26,4.26-10.28,0-4.02-1.63-7.64-4.26-10.28Z"/>
    </g>
    <path class="cls-15" d="M1756.65,859.13c-9.71,0-17.57,7.87-17.57,17.57,0,9.71,7.87,17.57,17.57,17.57,9.71,0,17.57-7.87,17.57-17.57,0-9.71-7.87-17.57-17.57-17.57ZM1756.65,891.24c-4.02,0-7.64-1.63-10.28-4.26-2.63-2.64-4.26-6.26-4.26-10.28,0-4.02,1.62-7.64,4.26-10.28,2.64-2.63,6.26-4.26,10.28-4.26,4.02,0,7.64,1.62,10.28,4.26,2.63,2.64,4.26,6.26,4.26,10.28,0,4.02-1.63,7.64-4.26,10.28-2.64,2.63-6.26,4.26-10.28,4.26Z"/>
  </g>
  <path class="cls-14" d="M1491.11,896.35l.22-.16-.26.07.05.09.22-.16-.26.07c.02.06.08.65.14,1.4.1,1.15.24,2.78.52,4.32.29,1.55.69,3,1.43,3.86l.61-.53c-.76-.84-1.26-3.13-1.51-5.19-.13-1.03-.21-2.01-.27-2.75-.03-.37-.06-.68-.08-.92l-.04-.3-.11-.3-.64.48Z"/>
  <path class="cls-26" d="M1812.72,1201.43c-.37-1.92-2.22-3.18-4.14-2.81l-21.48,4.09c-1.33.25-2.4,1.25-2.75,2.56l-11.46,42.54c-3.27-1.84-8.22-2.7-13.62-2.05-9.11,1.1-16.01,6.05-15.41,11.05.6,5.01,5.47,9.46,14.58,8.36,5.97-.72,12.27-3.64,15.74-6.97l1.74-.58c1.12-.37,1.99-1.29,2.3-2.44l12.38-45.94,19.3-3.68c1.92-.37,3.18-2.22,2.81-4.14Z"/>
  <path class="cls-3" d="M1950.11,1170.98c-.42-1.91-2.31-3.11-4.22-2.69l-27.62,6.14c-1.22.27-2.21,1.17-2.6,2.37l-19.75,61.09c-4.6-3.08-11.89-4.83-19.97-4.34-13.38.81-23.86,7.42-23.42,14.78.44,7.35,11.65,12.66,25.03,11.85s23.86-7.42,23.42-14.78c0-.03,0-.07-.01-.1l14.77-45.7,23.14-4.96c1.91-.41,3.13-2.29,2.72-4.2-.41-1.91-2.29-3.13-4.2-2.72l-19.14,4.1,3.53-10.92,25.64-5.7c1.91-.42,3.11-2.31,2.69-4.22Z"/>
  <path class="cls-12" d="M1913.99,1086.37c-.75-.96-1.95-1.47-3.17-1.34l-51.15,5.46c-1.36.14-2.5,1.05-2.96,2.33l-15.78,44.36c-4.34-2.81-10.95-4.94-18.48-5.61-13.73-1.22-25.31,2.86-25.87,9.12-.56,6.26,10.12,12.32,23.85,13.55,13.73,1.22,25.31-2.86,25.87-9.12.05-.54,0-1.09-.11-1.62l16.43-46.2,43.28-4.62-29.08,79.3c-4.1-2.43-10.23-3.92-17.05-3.81-12.23.19-22.06,5.44-21.96,11.73.1,6.28,10.09,11.22,22.32,11.03,12.23-.19,22.06-5.44,21.96-11.73,0-.28-.03-.55-.08-.82l32.49-88.6c.42-1.14.22-2.44-.53-3.4Z"/>
  <g>
    <circle class="cls-6" cx="1774.93" cy="1012.96" r="27.35"/>
    <circle class="cls-6" cx="1745.83" cy="1039.44" r="15.32"/>
    <circle class="cls-6" cx="1400.33" cy="918.44" r="19.91"/>
    <path class="cls-6" d="M1014.57,1023.25c-10.94,9.19-15.32,5.25-19.26-5.69s-9.63-27.13,2.19-40.26c11.82-13.13,25.38-21.44,37.2-12.69,11.82,8.75,17.94,29.32,4.38,44.64-13.57,15.32-24.51,14-24.51,14Z"/>
    <g>
      <circle class="cls-25" cx="539.31" cy="1005.31" r="32.38"/>
      <path class="cls-7" d="M539.31,969.89c-19.53,0-35.42,15.89-35.42,35.42s15.89,35.42,35.42,35.42,35.42-15.89,35.42-35.42-15.89-35.42-35.42-35.42ZM539.31,1037.69c-17.89,0-32.38-14.5-32.38-32.38s14.5-32.38,32.38-32.38,32.38,14.5,32.38,32.38-14.5,32.38-32.38,32.38Z"/>
    </g>
  </g>
  <g>
    <circle class="cls-30" cx="1698.35" cy="988.89" r="29.1"/>
    <circle class="cls-30" cx="1527.9" cy="941.85" r="15.75"/>
    <circle class="cls-30" cx="1496.39" cy="973.36" r="15.75"/>
    <circle class="cls-30" cx="1429.21" cy="1019.09" r="22.1"/>
    <circle class="cls-30" cx="1362.04" cy="972.92" r="17.07"/>
    <circle class="cls-30" cx="873.87" cy="967.01" r="36.54"/>
    <circle class="cls-30" cx="697.07" cy="1064.6" r="12.03"/>
    <circle class="cls-30" cx="398.39" cy="1044.69" r="15.75"/>
  </g>
  <g>
    <path class="cls-10" d="M1822.48,765s-3.66,1.74-5.96,3.49c-2.31,1.74-3.85,4.07-1.92,7.17,1.92,3.1,4.81,2.71,7.89,15.5,3.08,12.79,10.39,30.03,10.77,32.94.38,2.91,8.08,33.13,6.35,42.82l-7.5-2.91-5.39,9.11s10.97,2.52,11.93,5.62c0,0,1.35,11.04.77,16.66-.58,5.62-2.31,17.63-2.12,24.61.19,6.98,2.69,13.76.77,19.57-1.92,5.81-1.35,21.12-1.35,26.54s4.81,55.22,4.81,55.22c0,0,3.08,0,6.54,1.74,3.46,1.74,2.69,3.88,4.23,4.84,1.54.97,5.77,1.94,5.77,1.94,0,0,.38,8.91-.38,13.18-.77,4.26-2.31,10.46,5.39,10.27,7.7-.19,10.77-.19,12.7.39,1.92.58,9.04,1.36,11.54.19,2.5-1.16,4.43,0,4.62-1.55.19-1.55-2.69-2.13-5.77-2.52-3.08-.39-12.51-6.98-14.62-11.43-2.12-4.46-4.04-12.59-4.81-27.13-.77-14.53.19-68.98.19-68.98,0,0,2.12-.78,2.12-1.94s-.38-6.2.19-6.98c.58-.77,1.73-1.55,1.73-2.52s.38-9.88.38-9.88l3.46.19s0,25.38,3.08,32.55l1.73-1.94s-4.04-14.73-1.92-31.19c0,0,5.58,5.23,10.2,8.91,4.62,3.68,5.58,3.68,8.85,4.26,3.27.58,7.5.19,7.5.19,0,0-4.23,7.94-6.73,10.08-2.5,2.13-4.23,8.14-1.92,11.82,2.31,3.68,6.73,9.88,11.74,11.24,5,1.36,18.85-13.95,20.97-18.41,2.12-4.46,10.97-19.96,11.35-20.93.38-.97,3.08-8.91.96-12.79,0,0,5.96-4.65,6.16-6.78.19-2.13.38-8.33.38-8.33,0,0,8.08-3.68,10.39-6.2,0,0,5.96,1.55,7.89-.97,1.92-2.52,2.31-6.59,4.04-9.3,1.73-2.71,3.08-8.33,2.31-10.85-.77-2.52-5.39-7.36-7.7-8.33-2.31-.97-7.12-3.68-8.66-3.68s-5,2.91-7.12,5.81c-2.12,2.91-3.66,4.26-4.43,6.98-.77,2.71-4.23,7.17-4.23,7.17,0,0-2.12-.58-2.69-4.65-.58-4.07-4.23-8.14-5-8.91-.77-.78-17.89-17.83-23.86-22.48-5.96-4.65-6.35-6.01-10.58-6.2-4.23-.19-9.24,1.36-9.62,7.75-.38,6.39-.58,11.82-.96,16.28-.38,4.46-2.31,5.23,2.31,7.75,4.62,2.52,8.47,5.23,9.62,5.62,1.15.39-3.85,1.94-4.43,2.33s-1.92.39-2.5-.97c-.58-1.36-4.23-4.07-4.23-4.07l-.19,2.71s-4.62.39-6.16-.97c-1.54-1.36-2.31-4.46-3.08-9.69-.77-5.23-6.93-29.64-12.89-40.3-5.96-10.66-14.43-40.49-16.35-45.92-1.92-5.43-9.43-22.67-12.31-23.64s-10,.58-10,.58c0,0,1.15-13.56.77-22.48-.38-8.91-4.43-12.01-6.73-12.21-2.31-.19-5,4.26-4.81,9.88.19,5.62,1.73,7.36.58,11.24-1.15,3.88-3.08,5.04-3.85,7.56-.77,2.52-.19,6.98,2.89,8.33s6.93,6.98,6.93,6.98Z"/>
    <g>
      <circle class="cls-13" cx="1418.26" cy="726.69" r="22.3"/>
      <path class="cls-13" d="M1350.63,773.78s12.39-11.05,12.58-17.15c.19-6.1-6.29-17.15-19.25-18.1-12.96-.95-18.29,8.57-19.06,11.43s-6.1,3.24-6.48,4.19-.57,3.24-.57,3.24c0,0-2.86,2.29-3.43,4.95-.57,2.67-.19,10.1,4,12,4.19,1.91,9.72,1.71,9.72,1.71l-.19,8.38s-12.58,3.62-16.2,8.38c-3.62,4.76-8,16.77-17.91,25.15-9.91,8.38-15.82,5.53-23.25,9.72s-14.48,3.43-15.24,3.24-5.14-5.91-7.81-8.77-5.14-5.72-6.1-4.38c-.95,1.33,0,5.91,2.29,8,2.29,2.1,2.29,4,2.29,4,0,0-2.86.95-7.62-.38-4.76-1.33-11.05-2.48-11.05-.95s10.48,3.81,10.48,3.81c0,0-4,1.52-8.38,2.29-4.38.76-5.34,2.67-1.71,3.05,3.62.38,8.96.57,8.96.57,0,0-.76,3.05-4,3.81s-6.29,2.67-5.91,3.24c.38.57,12.2-1.14,16.96-3.05,4.76-1.91,23.82-4.38,33.16-3.62,9.34.76,22.49-3.24,22.49-3.24,0,0-2.67,22.68,1.14,32.2,3.81,9.53,3.24,14.29,4.95,17.72,1.71,3.43,1.33,17.72,2.29,21.15s-1.71,24.2-3.62,29.35c-1.91,5.14.57,30.49,11.43,36.78,10.86,6.29,25.92,4,26.3,4.76.38.76,3.24,3.24,8.57,1.14,5.34-2.1,6.1-5.72,17.53-8.19,11.43-2.48,16.96-2.48,16.96-2.48,0,0,4.95,8.77,7.24,8.57,2.29-.19,6.67-6.86,8-7.43s11.81,8.57,15.63,13.53c3.81,4.95,11.24,4.19,12.39-4.76,1.14-8.96-13.91-23.63-14.29-29.54-.38-5.91-2.29-14.67-9.15-14.29-6.86.38-11.81,12.77-14.1,15.82-2.29,3.05-16.77,1.91-16.77,1.91,0,0,7.81-17.72,14.48-24.96,6.67-7.24,11.24-8.96,11.62-8.19.38.76,2.1.57,3.05-.19s-1.52-4.95,7.43-12.77c8.96-7.81,22.1-6.86,25.34-6.86s3.05-3.05,2.29-4.95c-.76-1.91-23.06-8.77-32.39-8.19s-12.96-2.1-17.91-1.33-6.48,7.62-5.53,10.48c.95,2.86,3.81,15.24,3.81,16.77s-7.24,5.72-12.39,10.48c-5.14,4.76-9.91,9.53-11.05,9.91s-7.81-3.05-8.77-3.62c-.95-.57,6.86-22.29,5.53-37.35-1.33-15.05-8.96-23.63-9.91-25.53-.95-1.91,1.14-3.62.38-5.53s-4.95-4-5.14-5.72c-.19-1.71,13.34-20.96,18.1-29.73,4.76-8.77,4.19-16.77,6.67-18.67,2.48-1.91,12.2-2.29,20.58-2.48,8.38-.19,16.2-7.62,20.2-8.77,4-1.14,14.29-7.62,25.15-22.49,10.86-14.86,15.05-23.82,15.43-26.68.38-2.86-1.33-16.01-2.48-21.91-1.14-5.91-12.58-16.77-23.63-15.63-11.05,1.14,6.48,27.25,6.48,27.25,0,0,8.96,3.24,10.29,3.81s.19,7.05,0,8.96c-.19,1.91-12.2,11.43-20.96,18.48-8.77,7.05-14.67,15.63-16.01,15.82s-11.62-2.29-15.82-1.14c-4.19,1.14-4.38,2.48-7.81,3.05-3.43.57-5.91-4.57-14.86-4s-11.05,3.62-13.72,4.19c-2.67.57-1.71-10.29-1.71-10.29Z"/>
    </g>
    <g>
      <path class="cls-1" d="M1466.84,861.67l6,4.07,4.69-4.78-2.45-5.28-.34-.03c-2.4,0-4.66.49-6.78,1.29l-1.12,4.74Z"/>
      <path class="cls-1" d="M1464.26,873.94l-4.9-5.05-3.53,2.08c-.28,1.3-.43,2.64-.43,4.02,0,1.28.14,2.54.38,3.75l5.32.73,3.16-5.53Z"/>
      <path class="cls-1" d="M1485.93,865.89l3.19,5.69,4.79,1.51c-.45-4.52-2.37-8.6-5.38-11.66l-2.59,4.47Z"/>
      <path class="cls-1" d="M1471.07,893.81l-2.01-6.48-7.13.9-.18,1.01c2.54,2.32,5.66,4.02,9.17,4.72l.16-.14Z"/>
      <path class="cls-1" d="M1492.63,882.35l-3.66.78-5.26,3.85-1.05,5.64c4.5-2.02,8.09-5.69,9.97-10.27Z"/>
      <polygon class="cls-1" points="1482.86 876.51 1476.24 871 1470.62 876.37 1472.04 884.81 1480.63 884.53 1482.86 876.51"/>
      <path class="cls-1" d="M1494.1,874.99h-.48c0,5.21-2.11,9.93-5.53,13.34-3.42,3.42-8.13,5.53-13.34,5.53-5.21,0-9.93-2.11-13.34-5.53-3.42-3.42-5.53-8.13-5.53-13.34,0-5.21,2.11-9.93,5.53-13.34,3.42-3.42,8.13-5.53,13.34-5.53,5.21,0,9.93,2.11,13.34,5.53,3.42,3.42,5.53,8.13,5.53,13.34h.96c0-10.95-8.88-19.83-19.83-19.83-10.95,0-19.83,8.88-19.83,19.83,0,10.95,8.88,19.83,19.83,19.83,10.95,0,19.83-8.88,19.83-19.83h-.48Z"/>
      <path class="cls-1" d="M1470.93,862.7l.32.51c1.08,1.55,4.92,7.11,4.89,10.59v.25s.95.05.95.05v-.31c0-2.34-1.32-5.08-2.62-7.35-.65-1.13-1.31-2.13-1.81-2.88l-.62-.9-.18-.27-.05-.07h0s-.22.11-.22.11l.23-.09v-.02s-.23.12-.23.12l.23-.09-.89.36Z"/>
      <path class="cls-1" d="M1487.43,866.1s-2.16-1.47-4.72-2.97c-2.58-1.49-5.46-3.02-7.25-3.13l-.05.96c1.34.04,4.31,1.52,6.81,3,2.52,1.47,4.65,2.93,4.66,2.93l.54-.8Z"/>
      <path class="cls-1" d="M1468.79,859.92s-9.3,5.59-10.69,11.95l.94.2c.57-2.81,3.12-5.69,5.55-7.81,1.21-1.06,2.39-1.95,3.26-2.56.87-.61,1.43-.95,1.43-.96l-.5-.82Z"/>
      <polyline class="cls-1" points="1467.95 888.58 1473.73 883.42 1473.09 882.7 1467.31 887.86"/>
      <polyline class="cls-1" points="1476.94 881.96 1485.07 888.29 1485.66 887.53 1477.54 881.2"/>
      <path class="cls-1" d="M1488.88,884.63s1.2-7.02,1.2-11.68c0-1.31-.09-2.43-.36-3.24l-.91.31c.21.6.31,1.67.31,2.93,0,4.52-1.19,11.51-1.19,11.52l.95.16Z"/>
      <path class="cls-1" d="M1482.2,877.83s1.98-1.39,3.98-3c1-.8,2-1.66,2.77-2.43.76-.8,1.34-1.39,1.42-2.13l-.96-.05c.04.08-.4.8-1.14,1.5-1.09,1.1-2.76,2.43-4.14,3.49-1.38,1.06-2.48,1.83-2.49,1.83l.55.79Z"/>
      <path class="cls-1" d="M1473.45,876.42s-2.3-.58-4.8-1.31c-2.48-.71-5.24-1.64-5.9-2.13l-.56.78c.98.68,3.65,1.52,6.19,2.27,2.52.74,4.83,1.32,4.83,1.32l.24-.93Z"/>
      <path class="cls-1" d="M1509.99,803.38s-7.15,7.32-6.32,12.64c.83,5.32,8.65,8.98,9.64,11.14,1,2.16,1.33,5.32,1.83,5.82s2.16-1,2.16-1c0,0,2.66,1.5,3.49,2.66s3.99,2.16,5.65,2.16,2.33-2.49,3.82-2.83c1.5-.33,4.32,1.16,4.32,1.16,0,0-1.83,4.32-2.49,9.48-.67,5.15-1.83,10.14-1.83,13.64s1.66,10.48,1.5,12.31c-.17,1.83-13.8,2.16-18.96,2.33s-7.15,5.15-7.15,6.49,4.66-.5,5.99-1c1.33-.5,3.49,2.16,6.65,2.99,3.16.83,8.65-2.16,10.97-2.66,2.33-.5,6.15,1.5,6.15,1.5,0,0,.5,17.79.33,19.12s-15.63.17-21.95-3.82c-6.32-3.99-6.82-3.16-8.15-1.16-1.33,2-1.33,3.66-1.33,3.66,0,0-19.29-1.66-21.78,6.32-2.49,7.98-1.66,40.74-1.33,44.56.33,3.82-2.33,3.82-2.99,5.49-.67,1.66-1.33,7.15-1.5,8.31-.17,1.16-7.65,7.65-14.13,10.64-6.49,2.99-10.14,4.66-9.64,6.98.5,2.33,8.98,2.49,16.46,1,7.48-1.5,21.12-2.16,22.78-2.49,1.66-.33,2.33-9.31,1.66-10.97-.66-1.66-4.99-2.33-5.32-3.66s1.16-11.47,2.99-14.63c1.83-3.16,7.32-15.3,8.31-20.45,1-5.15-.5-12.64-.17-12.14.33.5,2,6.49,3.82,8.48,1.83,2,17.13,7.15,21.12,8.98,3.99,1.83,6.98,1.83,7.82,2.33.83.5-6.98,15.8-7.32,18.46-.33,2.66,2.66,3.66,2.66,3.66,0,0,.83,21.95,3.16,28.1,2.33,6.15,3.49,42.4,3.66,45.9.17,3.49-7.82,10.81-14.13,12.31-6.32,1.5-13.97,6.98-13.47,9.15.5,2.16,8.98,2.83,13.14,2.83s12.8-2.66,22.28-2.66,8.31-7.98,7.98-12.14c-.33-4.16-3.99-4.66-3.99-5.32s-.66-18.96,2.99-28.1c3.66-9.15,1.16-20.79-1.16-25.28-2.33-4.49-3.66-7.15-3.66-7.15,0,0,3.33-6.82,4.99-8.31,1.66-1.5,5.99.33,6.82,0,.83-.33,9.81-24.78,13.14-31.76,3.33-6.98,4.99-21.95,3.82-27.6-1.16-5.65-4.32-9.98-4.32-9.98,0,0,4.82-.33,5.49-1.33.66-1-2.83-32.92-2.16-34.09s9.15,7.32,11.14,9.81c2,2.49,6.82,5.99,6.98,6.82.17.83-2.83,8.48-2.83,9.48s5.32-3.33,6.49-3.99c1.16-.66,4.21,3.25,3.37,6.24-.83,2.99-1.6,6.38-.94,5.88.66-.5,5.88-5.64,6.71-5.47.83.17,4.82,9.48,5.49,9.64.66.17,1.5-13.47-6.15-26.27-7.65-12.8-13.14-16.63-18.96-24.78-5.82-8.15-11.64-13.97-17.13-15.96-5.49-2-23.45-12.8-24.61-13.8-1.16-1-2.33-18.62-10.31-22.95-7.98-4.32-18.62.66-21.62,5.32Z"/>
    </g>
    <path class="cls-4" d="M1794.61,821.15c-.46-1.16.34-4.16-1.09-4.45-1.43-.29-3.21,2.6-3.61,2.66-.4.06-1.55-2.43-2.12-3.18-.57-.75-1.72-1.56-2.58-1.39-.86.17-1.89.81-3.1-1.16s-3.1-2.72-4.13-1.68c-1.03,1.04-1.83,2.31-2.52,1.85-.69-.46-4.07-.64-5.39-.12s-1.32.92-2.01,1.39c-.69.46-2.35.98-2.64,3.18-.29,2.2-.4,2.43-.92,2.66-.52.23-.52,1.39-.52,2.25s1.83,2.14,3.38,4.45c1.22,1.82-.49,6.71-.49,6.71.08,0,.19.9.32,2.32-8.37,1.11-20.68,2.7-24.54,3-6.03.47-16.12,1.29-22.16.12-6.03-1.17-2.55-1.87-11.25-3.27-8.7-1.4-14.73-1.4-14.73-1.4l.58-12.75s1.28.94,3.83-1.4c2.55-2.34,1.16-3.27,1.16-3.27l3.94,1.64s-3.83,2.57-4.52,3.74,2.78,3.04,2.78,3.04c0,0,2.09,6.55,3.71,7.48,1.62.94,2.09-20.81,1.62-25.26-.46-4.44-3.48-3.74-3.48-3.74,0,0,.23-2.34-5.8-8.19-6.03-5.85-11.43-3.98-14.62.7-2.8,4.11-5.15,7.64-6.38,9.71-2.61,4.38,3.23,6.99-1.91,8.42-5.05,1.4-6.09-8.07-6.09-8.07-2.09-14.27-15.54-45.84-15.54-48.41s1.16-1.87,2.78-.94c1.62.94,3.94,2.1,4.41-1.64.46-3.74,3.25-2.57,5.34-2.57s4.18.7,5.57-1.4c1.39-2.1,1.39-3.98,4.41-5.38,3.02-1.4,4.87-6.31,5.1-10.52.23-4.21-.93-4.21-3.48-5.61-2.55-1.4-2.09-3.27-1.39-4.68.7-1.4-2.55-2.34-5.57-2.81-3.02-.47-4.18-1.64-5.34-3.51-1.16-1.87-3.71-2.1-6.26-2.81-2.55-.7-1.62-3.27-4.18-4.44-2.55-1.17-2.55,1.64-3.71,1.87-1.16.23-2.55-1.87-5.57-1.4-3.02.47-4.41,3.04-6.03,3.74-1.62.7-3.71-2.81-6.26-3.51-2.55-.7-1.16,3.74-3.71,3.98-2.55.23-4.18-5.14-7.89-2.81-3.71,2.34-3.25.23-6.73,2.1-3.48,1.87-3.94,7.72-3.71,11.69.23,3.98,4.64,4.68,7.42,6.78,2.78,2.1-2.55,2.81-2.55,3.98s-.93,1.87-2.32,3.74c-1.39,1.87-.46,3.27,3.25,4.21,3.71.94.7,2.34,1.16,3.74.46,1.4,6.03,5.15,8.35,5.85,2.32.7-3.25,5.85-2.09,6.31,1.16.47,3.25-.47,4.87-.47s3.94,1.4,7.89,1.17c3.94-.23,2.32-1.17,4.41-.7,2.09.47,7.89.47,7.89.47,0,0,2.09,17.31,7.66,38.12,5.57,20.81,11.83,34.14,11.83,34.14-3.94,15.2-8.12,13.1-9.28,20.81-1.16,7.72,3.48,11.69,3.48,11.69.7,19.41,3.94,28.77,3.94,28.77,0,0-8.35,1.17-21.81,5.38-13.46,4.21-25.06,9.59-24.13,17.07.93,7.48,9.98,11.23,20.18,15.9,10.21,4.68,27.38,13.33,27.38,13.33,0,0,1.16,2.57,4.18,14.73,3.02,12.16,5.57,19.18,6.26,21.52.7,2.34,1.39,10.29,2.55,18.94,1.16,8.65,1.39,25.26,1.39,25.26-8.58,4.44-6.03,20.58-7.66,21.98-1.62,1.4-4.64-.23-6.5,2.57-1.86,2.81,2.78,3.27,8.58,2.57,5.8-.7,5.57-1.4,10.67-6.78,5.1-5.38,11.83-7.95,11.6-10.29-.23-2.34-2.09-7.48-4.87-10.06-2.78-2.57-2.32-.94-2.32-.94,0,0-.93-2.1-1.16-8.89-.23-6.78,2.78-16.37,1.62-29.23-1.16-12.86-1.86-11.46-2.55-14.03-.7-2.57-2.09-7.02-1.16-6.08s8.35,2.81,9.28,1.87c.93-.94-.93-2.57-2.09-3.74-1.16-1.17.46-1.4-.7-3.51-1.16-2.1-3.71-7.48-4.18-11.69-.46-4.21-3.94-4.68-3.94-4.68,0,0-2.09-5.61,1.86-15.2,3.94-9.59,11.83-8.19,13.69-18.94,1.86-10.76-3.71-14.27-9.05-20.81-5.34-6.55-3.02-10.76-2.32-19.41.7-8.65,1.62-3.51,4.64-8.65,3.02-5.15,10.44-12.16,10.44-12.16,0,0,14.15-.94,21.11-1.4,6.96-.47,30.62-6.78,36.19-8.42,1.03-.3,2-.55,2.91-.76.01.22.03.44.04.67.29,4.51,2.87,3.01,3.9,3.12s.75-.92,1.89-.75c1.15.17,1.78,1.79,2.12,2.14.34.35,2.81.98,3.73-.92.92-1.91.46-3.18,1.61-3.29,1.15-.12,2.87-.17,4.36-.12,1.49.06-.8-.64.75-1.5,1.55-.87,1.55-.06,2.18.92.22.34.21.49.19.55.07-.05.28-.13.85-.15,1.61-.06,2.64-1.5,4.19-3.35,1.55-1.85.52-1.5.52-4.22s1.2-3.01,1.89-4.57c.69-1.56,2.01-2.43,2.24-4.16.23-1.73-2.98-4.22-3.44-5.38ZM1658.05,927.11c-1.57-3.16,6.09-1.23,6.09-1.23l.35,5.61s-4.87-1.23-6.44-4.39ZM1682.93,828.07c-.93.82-5.92,0-5.92,0l3.36-6.9c1.62-2.81,2.78-2.46,2.9-.82.12,1.64.58,6.9-.35,7.72Z"/>
  </g>
  <g>
    <g>
      <polygon class="cls-8" points="433.31 831.87 433.31 835.65 381.34 835.65 381.34 831.87 339.45 831.87 407.17 759.74 475.83 831.87 433.31 831.87"/>
      <rect class="cls-31" x="384.64" y="983.84" width="48.59" height="15.6"/>
      <rect class="cls-11" x="384.64" y="873.6" width="48.59" height="20.79"/>
      <rect class="cls-17" x="384.64" y="956.24" width="48.59" height="17.68"/>
      <rect class="cls-9" x="384.64" y="842.28" width="48.59" height="24.55"/>
      <rect class="cls-24" x="384.64" y="928.78" width="48.59" height="20.96"/>
      <rect class="cls-16" x="384.64" y="901.16" width="48.59" height="23.77"/>
      <path class="cls-32" d="M149.69,985.84v-223.16h-55.34v223.62c0,30.56,24.77,55.33,55.33,55.33h224.07v-55.79h-224.06Z"/>
      <path class="cls-32" d="M586.56,764.93v221.01c0,9.64-7.81,17.45-17.45,17.45h-112.84c-8.8,0-16.45-4.91-20.36-12.15h-51.05c-2.93,30.11,29.33,55.34,61.23,55.34h126.78c38.88,0,70.39-31.51,70.39-70.39v-211.26h-56.69Z"/>
    </g>
    <path class="cls-32" d="M649.39,820.24v221.4h57.07v-222.67h55.5v222.67h54.78v-222.67h56.23v222.67h55.82v-221.4c0-31.79-25.77-57.56-57.56-57.56h-164.29c-31.79,0-57.56,25.77-57.56,57.56Z"/>
    <path class="cls-32" d="M1159.82,762.68h-166.85c-31.08,0-56.28,25.2-56.28,56.28v222.68h55.22v-110.94h167.96v110.94h56.23v-222.68c0-31.08-25.2-56.28-56.28-56.28ZM1159.87,874.47h-167.96v-56.23h167.96v56.23Z"/>
  </g>
  <g>
    <path class="cls-28" d="M206.02,1156.79s14.78-50.41-25.21-62.58c-39.98-12.17-86.05,5.22-99.96,43.46-13.91,38.24-1.3,59.54,12.17,66.06,13.47,6.52,46.5,19.99,45.63,38.68,0,14.34-10.86,22.16-21.73,22.16s-21.73-8.26-16.08-33.9h-44.33s-21.3,58.67,37.38,69.1c58.67,10.43,90.4-30.86,95.61-50.85,5.22-19.99,6.52-47.81-14.34-60.84-20.86-13.04-43.46-25.64-48.24-32.16-4.78-6.52-1.3-28.25,19.99-28.68,21.3-.43,14.34,29.55,14.34,29.55h44.76Z"/>
    <path class="cls-28" d="M331.18,1094.2h-79.97l-43.03,202.96h48.68l14.78-68.67s17.38.43,33.9-1.3,56.93-19.12,62.58-76.05c5.65-56.93-36.94-56.93-36.94-56.93ZM317.71,1158.53c-4.78,25.21-20.43,28.68-20.43,28.68h-16.95l10.43-53.02c.43.43,16.51-.43,16.51-.43,0,0,15.21-.43,10.43,24.77Z"/>
    <path class="cls-28" d="M431.57,1101.16c-29.99,18.69-44.33,63.89-44.33,63.89,0,0-13.47,38.68-12.6,81.27.87,26.08,17.38,49.54,41.72,53.02,24.34,3.48,55.63-3.91,75.19-25.64,19.56-21.73,49.11-108.22,34.33-149.5-14.78-41.29-64.32-41.72-94.31-23.03ZM460.69,1244.58c-8.69,19.99-23.47,15.65-23.47,15.65-10.43-2.17-13.47-13.04-12.17-32.16,1.3-19.12,11.73-70.41,23.03-84.75,11.3-14.34,29.99-14.34,31.73,6.08,1.74,20.43-10.86,79.97-19.12,95.18Z"/>
    <path class="cls-28" d="M669.3,1095.07h-92.13l-42.59,202.96h48.68l13.33-65.62h12.31l10.86,65.62h52.15l-17.82-74.75s35.2-22.16,41.29-63.45c6.08-41.29-1.74-60.84-26.08-64.76ZM646.62,1150.34l-5.09,24.35c-2.05,9.83-10.72,16.87-20.76,16.87h-15.89l11.83-58.24h16.08c8.97,0,15.66,8.24,13.83,17.02Z"/>
    <path class="cls-28" d="M850.53,1093.77h-121.69l-9.13,42.59h39.18l-32.66,160.8h49.54l32.32-160.8h36.78l5.65-42.59Z"/>
    <polygon class="cls-28" points="871.39 1136.36 930.93 1136.36 842.27 1259.35 834.45 1297.16 954.39 1297.16 962.22 1256.31 897.03 1256.31 989.16 1135.06 997.42 1095.07 878.34 1095.07 871.39 1136.36"/>
    <polygon class="cls-28" points="1179.52 1095.07 1158.22 1202.42 1136.93 1094.2 1088.69 1094.2 1048.27 1297.6 1091.29 1297.6 1112.59 1192.86 1134.75 1298.47 1184.3 1298.47 1225.15 1095.07 1179.52 1095.07"/>
  </g>
  <polygon class="cls-28" points="1321.2 1093.77 1430.28 1093.77 1420.28 1136.36 1361.61 1136.36 1351.62 1180.26 1406.38 1180.26 1397.25 1223.72 1343.36 1223.72 1327.72 1297.6 1279.47 1297.6 1321.2 1093.77"/>
  <path class="cls-28" d="M1455.05,1093.77h49.11l-29.71,147.79c-1.94,9.65,5.44,18.66,15.28,18.66h0c7.91,0,14.75-5.52,16.42-13.25l32.78-151.89h50.41l-29.12,141.68s-12.17,59.54-76.92,64.32c-64.76,4.78-56.65-51.86-57.8-65.62-.43-5.22,29.55-141.68,29.55-141.68Z"/>
  <polygon class="cls-28" points="1585.43 1297.16 1629.33 1297.16 1651.06 1193.29 1674.09 1298.03 1724.5 1298.03 1764.92 1094.2 1717.12 1094.2 1697.56 1201.99 1676.26 1095.07 1626.72 1095.07 1585.43 1297.16"/>
</svg>